<svg width="24" height="24" viewBox="0 0 24 24" fill="none" xmlns="http://www.w3.org/2000/svg">
<g clip-path="url(#clip0_1030_1903)">
<path d="M23.93 11.16C23.8402 10.3054 23.5317 9.48838 23.0343 8.78774C22.5368 8.0871 21.8672 7.52649 21.09 7.15998C20.3129 6.85676 19.4928 6.6779 18.66 6.62998C17.4741 6.57004 16.2859 6.57004 15.1 6.62998C13.24 6.62998 11.38 6.73998 9.52002 6.87998C2.72002 7.39998 2.85002 7.53998 2.18002 7.92998C1.62523 8.24952 1.15002 8.69055 0.790018 9.21998C0.512062 9.61557 0.302483 10.055 0.170018 10.52C0.0211736 10.9983 -0.0364929 11.5004 1.76467e-05 12C0.061247 12.8779 0.277947 13.7379 0.640018 14.54C1.02175 15.3654 1.63714 16.0607 2.41002 16.54C2.77643 16.755 3.17475 16.9103 3.59002 17C4.44002 17.19 5.31002 17.12 6.23002 17.24C6.95002 17.33 7.66002 17.37 8.37002 17.39C9.99002 17.39 11.61 17.3 13.24 17.32H16.24H17.55C18.5618 17.3072 19.5686 17.1763 20.55 16.93C21.2706 16.7352 21.933 16.368 22.48 15.86C23.0732 15.2451 23.5135 14.4993 23.7654 13.6829C24.0173 12.8664 24.0737 12.0022 23.93 11.16ZM21.71 15C21.2997 15.3849 20.7967 15.657 20.25 15.79C19.3466 16.0141 18.4207 16.1349 17.49 16.15H13.25C11.61 16.15 10 16.31 8.38002 16.31C7.71217 16.3185 7.04439 16.2885 6.38002 16.22C5.61002 16.13 4.87002 16.22 4.15002 16.1C3.71658 16.054 3.29758 15.9178 2.92002 15.7C2.28257 15.3148 1.77162 14.7517 1.45002 14.08C1.11582 13.3794 0.912482 12.6237 0.850018 11.85C0.808259 11.4572 0.842205 11.06 0.950018 10.68C1.055 10.2931 1.22036 9.92528 1.44002 9.58998C1.7306 9.17348 2.10534 8.82259 2.54002 8.55998C2.87002 8.35998 3.06002 7.95998 9.54002 7.61998C11.38 7.52998 13.23 7.49998 15.08 7.51998C16.18 7.51998 17.38 7.51998 18.54 7.61998C19.2659 7.68401 19.9775 7.8594 20.65 8.13998C21.2497 8.44173 21.7616 8.8928 22.1364 9.44976C22.5112 10.0067 22.7363 10.6508 22.79 11.32C22.9024 11.9751 22.8636 12.6473 22.6764 13.2851C22.4892 13.9229 22.1586 14.5095 21.71 15Z" fill="black"/>
<path d="M4.86002 8.99999C4.16958 9.1928 3.56388 9.61186 3.14002 10.19C2.91163 10.4854 2.74373 10.8229 2.64592 11.1832C2.54812 11.5436 2.52232 11.9197 2.57002 12.29C2.71273 13.1423 3.16057 13.9136 3.83002 14.46C4.48765 15.048 5.3486 15.3565 6.23002 15.32C7.09377 15.2314 7.89641 14.8336 8.49002 14.2C8.80035 13.8928 9.03987 13.5216 9.19186 13.1122C9.34386 12.7029 9.40466 12.2653 9.37002 11.83C9.2545 10.9706 8.83179 10.182 8.18002 9.60999C7.70454 9.27247 7.16102 9.04299 6.58752 8.93762C6.01403 8.83225 5.42443 8.85353 4.86002 8.99999ZM7.70002 13.45C7.28493 13.8748 6.73164 14.1373 6.14002 14.19C5.55622 14.2018 4.98909 13.9949 4.55002 13.61C4.05994 13.256 3.70679 12.7439 3.55002 12.16C3.4523 11.6554 3.55257 11.1326 3.83002 10.7C4.1173 10.239 4.55015 9.88713 5.06002 9.69999C5.49757 9.59101 5.95406 9.58207 6.39554 9.67383C6.83702 9.76559 7.25214 9.95569 7.61002 10.23C8.06945 10.6861 8.34677 11.2941 8.39002 11.94C8.38545 12.2257 8.32179 12.5073 8.20304 12.7672C8.08428 13.0271 7.91302 13.2595 7.70002 13.45Z" fill="black"/>
</g>
<defs>
<clipPath id="clip0_1030_1903">
<rect width="24" height="24" fill="white"/>
</clipPath>
</defs>
</svg>
