<svg width="24" height="24" viewBox="0 0 24 24" fill="none" xmlns="http://www.w3.org/2000/svg">
<g clip-path="url(#clip0_1030_1907)">
<path d="M23.93 11.16C23.8402 10.3054 23.5317 9.48838 23.0343 8.78774C22.5368 8.0871 21.8672 7.52649 21.09 7.15998C20.3129 6.85676 19.4928 6.6779 18.66 6.62998C17.4741 6.57004 16.2859 6.57004 15.1 6.62998C13.24 6.62998 11.38 6.73998 9.52002 6.87998C2.72002 7.39998 2.85002 7.53998 2.18002 7.92998C1.62523 8.24952 1.15002 8.69055 0.790018 9.21998C0.512062 9.61557 0.302483 10.055 0.170018 10.52C0.0211736 10.9983 -0.0364929 11.5004 1.76467e-05 12C0.061247 12.8779 0.277947 13.7379 0.640018 14.54C1.02175 15.3654 1.63714 16.0607 2.41002 16.54C2.77574 16.7564 3.1743 16.9118 3.59002 17C4.44002 17.19 5.31002 17.12 6.23002 17.24C6.95002 17.33 7.66002 17.37 8.37002 17.39C9.99002 17.39 11.61 17.3 13.24 17.32H16.24H17.55C18.5618 17.3072 19.5686 17.1763 20.55 16.93C21.2706 16.7352 21.933 16.368 22.48 15.86C23.0732 15.2451 23.5135 14.4993 23.7654 13.6829C24.0173 12.8664 24.0737 12.0022 23.93 11.16ZM21.71 15C21.2997 15.3849 20.7967 15.657 20.25 15.79C19.3466 16.0141 18.4207 16.1349 17.49 16.15H13.25C11.61 16.15 10 16.31 8.38002 16.31C7.71217 16.3185 7.04439 16.2885 6.38002 16.22C5.61002 16.13 4.87002 16.22 4.15002 16.1C3.71658 16.054 3.29758 15.9178 2.92002 15.7C2.28257 15.3148 1.77162 14.7517 1.45002 14.08C1.11582 13.3794 0.912482 12.6237 0.850018 11.85C0.808259 11.4572 0.842205 11.06 0.950018 10.68C1.055 10.2931 1.22036 9.92528 1.44002 9.58998C1.7306 9.17348 2.10534 8.82259 2.54002 8.55998C2.87002 8.35998 3.06002 7.95998 9.54002 7.61998C11.38 7.52998 13.23 7.49998 15.08 7.51998C16.18 7.51998 17.38 7.51998 18.54 7.61998C19.2659 7.68401 19.9775 7.8594 20.65 8.13998C21.2497 8.44173 21.7616 8.8928 22.1364 9.44976C22.5112 10.0067 22.7363 10.6508 22.79 11.32C22.9024 11.9751 22.8636 12.6473 22.6764 13.2851C22.4892 13.9229 22.1586 14.5095 21.71 15Z" fill="black"/>
<path d="M15.38 10.22C15.1516 10.5153 14.9837 10.8529 14.8859 11.2132C14.7881 11.5735 14.7623 11.9496 14.81 12.32C14.957 13.1707 15.404 13.9406 16.07 14.49C16.7287 15.0761 17.5889 15.3844 18.47 15.35C19.3345 15.2641 20.1381 14.8658 20.73 14.23C21.0403 13.9228 21.2799 13.5515 21.4319 13.1422C21.5838 12.7328 21.6446 12.2952 21.61 11.86C21.5051 10.9886 21.0812 10.1871 20.42 9.60996C19.6614 9.04734 18.716 8.79699 17.7784 8.91047C16.8408 9.02395 15.9825 9.49261 15.38 10.22ZM19.94 13.45C19.5249 13.8748 18.9716 14.1372 18.38 14.19C17.7962 14.2018 17.2291 13.9949 16.79 13.61C16.2999 13.2559 15.9468 12.7439 15.79 12.16C15.6923 11.6554 15.7926 11.1326 16.07 10.7C16.2714 10.4004 16.5345 10.1475 16.8416 9.958C17.1488 9.76855 17.493 9.64701 17.851 9.60154C18.209 9.55608 18.5727 9.58774 18.9174 9.6944C19.2622 9.80107 19.5802 9.98026 19.85 10.22C20.3094 10.6761 20.5868 11.284 20.63 11.93C20.6268 12.2173 20.5638 12.5009 20.445 12.7626C20.3262 13.0243 20.1542 13.2584 19.94 13.45Z" fill="black"/>
</g>
<defs>
<clipPath id="clip0_1030_1907">
<rect width="24" height="24" fill="white"/>
</clipPath>
</defs>
</svg>
