<svg width="24" height="24" viewBox="0 0 24 24" fill="none" xmlns="http://www.w3.org/2000/svg">
<g clip-path="url(#clip0_1030_2051)">
<path d="M2.00003 10.09C2.32639 10.7255 2.70785 11.3312 3.14003 11.9C3.57341 12.4736 4.06246 13.0028 4.60003 13.48C5.78258 14.5886 7.20678 15.4068 8.76003 15.87C8.80968 15.8902 8.86296 15.9 8.91654 15.8987C8.97013 15.8973 9.02286 15.885 9.07146 15.8624C9.12005 15.8398 9.16347 15.8074 9.19899 15.7672C9.23451 15.7271 9.26138 15.6801 9.27791 15.6291C9.29445 15.5781 9.3003 15.5243 9.29509 15.4709C9.28989 15.4176 9.27375 15.3659 9.24767 15.319C9.2216 15.2722 9.18615 15.2313 9.14354 15.1987C9.10093 15.1662 9.05208 15.1428 9.00003 15.13C7.64774 14.5532 6.43659 13.6901 5.45003 12.6C4.99811 12.1278 4.57723 11.6267 4.19003 11.1C3.89003 10.72 3.80003 10.65 3.54003 10.3C2.84003 9.48005 1.75003 9.62005 2.00003 10.09Z" fill="black"/>
<path d="M21.66 2.92003C21.5828 2.85578 21.4855 2.8206 21.385 2.8206C21.2845 2.8206 21.1873 2.85578 21.11 2.92003C21.0731 2.95464 21.0436 2.99645 21.0235 3.0429C21.0034 3.08934 20.993 3.13941 20.993 3.19003C20.993 3.24064 21.0034 3.29072 21.0235 3.33716C21.0436 3.3836 21.0731 3.42542 21.11 3.46003C21.488 3.79938 21.7343 4.26109 21.8056 4.76403C21.877 5.26697 21.7687 5.77896 21.5 6.21003C20.4942 7.53324 19.0397 8.44359 17.41 8.77003C15.2758 9.22159 13.1014 9.45611 10.92 9.47003C8.77872 9.54155 6.64355 9.2021 4.63001 8.47003C4.33711 8.33763 4.05608 8.18039 3.79001 8.00003C3.52765 7.85787 3.2798 7.69041 3.05001 7.50003C1.85001 6.50003 1.53001 5.67003 1.84001 4.89003C2.39001 3.50003 4.42001 2.47003 6.11001 2.00003C6.98158 1.71267 7.8699 1.4789 8.77001 1.30003C9.66903 1.13988 10.5777 1.03966 11.49 1.00003C12.8995 0.934622 14.3121 0.99822 15.71 1.19003C17.1117 1.37994 18.496 1.68088 19.85 2.09003C19.8927 2.10382 19.9377 2.10907 19.9824 2.10547C20.0271 2.10188 20.0707 2.08951 20.1106 2.06909C20.1505 2.04866 20.186 2.02056 20.2151 1.98641C20.2442 1.95226 20.2662 1.91271 20.28 1.87003C20.2938 1.82735 20.2991 1.78237 20.2955 1.73766C20.2919 1.69296 20.2795 1.6494 20.2591 1.60947C20.2386 1.56954 20.2106 1.53402 20.1764 1.50495C20.1422 1.47588 20.1027 1.45382 20.06 1.44003C18.6798 0.958143 17.2615 0.593517 15.82 0.35003C14.3797 0.106205 12.9208 -0.0109102 11.46 2.96794e-05C10.4988 0.0178807 9.53987 0.101409 8.59001 0.25003C7.64248 0.395222 6.70422 0.595562 5.78001 0.85003C3.73002 1.42003 1.32001 2.74003 0.640015 4.40003C0.480333 4.80697 0.417097 5.24538 0.455267 5.68086C0.493437 6.11635 0.631974 6.53707 0.860015 6.91003C1.19695 7.42754 1.61574 7.88686 2.10001 8.27003C2.55001 8.65003 3.01001 9.06003 3.10001 9.14003C3.42127 9.3212 3.75552 9.4783 4.10001 9.61003C5.83635 10.2503 7.66951 10.5885 9.52001 10.61C12.2348 10.6591 14.9445 10.3531 17.58 9.70003C19.2861 9.25258 20.8231 8.31369 22 7.00003C22.1169 6.85672 22.2083 6.69435 22.27 6.52003C22.73 5.37003 23 3.86003 21.66 2.92003Z" fill="black"/>
<path d="M21.91 7.90005C21.6388 8.67929 21.2363 9.40643 20.72 10.05C20.3574 10.6182 19.9459 11.1536 19.49 11.65C19.0303 12.1546 18.5322 12.6226 18 13.05C16.7469 14.0717 15.3211 14.8608 13.79 15.38C13.7301 15.3993 13.6758 15.4331 13.6322 15.4785C13.5886 15.5239 13.5569 15.5794 13.54 15.64C13.54 15.64 13.47 15.59 13.43 15.59C13.3738 15.5842 13.317 15.5906 13.2635 15.6088C13.21 15.627 13.1612 15.6567 13.1203 15.6957C13.0794 15.7347 13.0474 15.7821 13.0267 15.8346C13.0059 15.8872 12.9968 15.9436 13 16C12.93 16.75 13 17.86 13 18.79C12.9942 19.1369 12.9122 19.4783 12.76 19.79C12.6424 19.9745 12.5049 20.1455 12.35 20.3C11.91 20.75 11.35 21.2 10.96 21.57L10.45 22.15L10.37 21.01C10.28 20.01 10.19 19.01 10.15 18.01C10.15 17.33 10.09 16.66 10.08 16.01C10.0828 15.9215 10.0509 15.8354 9.99111 15.77C9.93135 15.7047 9.84843 15.6652 9.76002 15.66C9.66884 15.6573 9.58019 15.6902 9.51295 15.7519C9.44571 15.8135 9.40519 15.899 9.40002 15.99C9.33002 16.84 9.28002 17.7 9.25002 18.55C9.22002 19.4 9.16002 20.1 9.15002 21V22.6C9.15002 22.81 9.05002 23.21 9.08002 23.39C9.09898 23.5739 9.18431 23.7446 9.32002 23.87C9.41606 23.96 9.53616 24.0202 9.66574 24.0433C9.79532 24.0664 9.92881 24.0514 10.05 24C10.3261 23.8985 10.5805 23.7459 10.8 23.55C11.1807 23.1862 11.538 22.7988 11.87 22.39C12.2 22 12.75 21.51 13.17 21.02C13.376 20.7776 13.5538 20.5126 13.7 20.23C13.8972 19.7755 13.9993 19.2855 14 18.79C14 17.89 13.84 16.86 13.84 16.11C13.9058 16.1254 13.9742 16.1254 14.04 16.11C15.7289 15.7096 17.3269 14.9937 18.75 14C19.3735 13.5645 19.947 13.0615 20.46 12.5C20.8766 12.0363 21.2483 11.534 21.57 11C21.8501 11.1972 22.0713 11.4669 22.21 11.78C22.5246 12.5747 22.5599 13.4527 22.31 14.27C22.0411 14.9564 21.5878 15.5551 21 16C20.4061 16.493 19.7287 16.8757 19 17.13C18.3044 17.4462 17.5315 17.5522 16.7764 17.435C16.0213 17.3177 15.317 16.9823 14.75 16.47C14.68 16.4064 14.5891 16.3704 14.4945 16.3688C14.3999 16.3672 14.3079 16.4 14.2357 16.4612C14.1635 16.5224 14.116 16.6078 14.1021 16.7014C14.0881 16.795 14.1087 16.8905 14.16 16.97C14.7968 17.6828 15.632 18.1892 16.5584 18.4244C17.4848 18.6595 18.4603 18.6128 19.36 18.29C20.2798 18.0457 21.136 17.6057 21.87 17C22.6351 16.3773 23.1931 15.5369 23.47 14.59C23.6768 13.4943 23.5113 12.3609 23 11.37C22.7475 10.9439 22.3802 10.5973 21.94 10.37C22.4797 9.55686 22.7747 8.6059 22.79 7.63005C22.76 7.18005 22.25 7.36005 21.91 7.90005Z" fill="black"/>
</g>
<defs>
<clipPath id="clip0_1030_2051">
<rect width="24" height="24" fill="white"/>
</clipPath>
</defs>
</svg>
