<svg width="24" height="24" viewBox="0 0 24 24" fill="none" xmlns="http://www.w3.org/2000/svg">
<g clip-path="url(#clip0_1030_2201)">
<path fill-rule="evenodd" clip-rule="evenodd" d="M6.18999 19.91L4.78999 19C4.30608 18.6753 3.845 18.3178 3.40999 17.93C2.96594 17.5489 2.54518 17.1415 2.14999 16.71C1.9469 16.5232 1.75333 16.3263 1.56999 16.12C1.17999 15.66 1.28999 15.71 1.47999 15.52C1.64209 15.3358 1.81578 15.1621 1.99999 15L4.49999 12.41L5.28999 11.66C5.38017 11.66 5.46665 11.6242 5.53041 11.5604C5.59417 11.4967 5.62999 11.4102 5.62999 11.32C5.62999 11.2298 5.59417 11.1433 5.53041 11.0796C5.46665 11.0158 5.38017 10.98 5.28999 10.98C5.13783 10.9854 4.98967 11.0302 4.85999 11.11C4.54078 11.3146 4.23666 11.5418 3.94999 11.79L1.14999 14.08C0.793632 14.336 0.479789 14.6464 0.219995 15C0.0453625 15.2618 -0.0291824 15.5777 0.00999485 15.89C0.0649857 16.1529 0.173952 16.4014 0.329995 16.62C0.598566 16.9834 0.903475 17.3184 1.23999 17.62C1.7008 18.0496 2.18487 18.4535 2.68999 18.83C3.20397 19.1985 3.74182 19.5326 4.29999 19.83C6.38999 20.98 6.22 21.21 6.52999 20.9C6.60799 20.8291 6.65796 20.7326 6.67081 20.628C6.68365 20.5234 6.65853 20.4176 6.59999 20.33C6.48473 20.1706 6.34657 20.0291 6.18999 19.91Z" fill="black"/>
<path fill-rule="evenodd" clip-rule="evenodd" d="M23.7 7.69C23.3569 6.67756 22.759 5.77044 21.9639 5.0559C21.1688 4.34135 20.2032 3.84342 19.16 3.61C18.3365 3.42722 17.5011 3.30357 16.66 3.24C15.08 3.09 13.36 3 13 3C12.8966 3 12.7974 3.04109 12.7242 3.11423C12.6511 3.18737 12.61 3.28657 12.61 3.39C12.6086 3.44159 12.6178 3.49292 12.6369 3.54086C12.656 3.5888 12.6847 3.63234 12.7212 3.66884C12.7576 3.70533 12.8012 3.73401 12.8491 3.75312C12.8971 3.77223 12.9484 3.78138 13 3.78C13.39 3.78 15.06 3.92 16.6 4.12C17.3816 4.20976 18.1565 4.35006 18.92 4.54C19.7691 4.7633 20.548 5.19757 21.1844 5.80247C21.8208 6.40737 22.294 7.16328 22.56 8C22.8018 8.853 22.8372 9.75128 22.6633 10.6207C22.4894 11.49 22.1112 12.3056 21.56 13C21.0592 13.6137 20.4315 14.1118 19.72 14.46C18.9729 14.8368 18.1887 15.135 17.38 15.35C16.2002 15.6895 14.9918 15.9205 13.77 16.04C12.5342 16.1655 11.2913 16.2056 10.05 16.16C8.99999 16.16 5.62999 15.77 4.20999 15.59L3.63999 15.51C3.5534 15.475 3.45658 15.475 3.36999 15.51C3.36999 15.51 3.04999 16.07 3.51999 16.17L4.11999 16.27C5.54999 16.51 8.93999 17.02 10.01 17.1C11.2939 17.2063 12.5837 17.223 13.87 17.15C15.1685 17.0695 16.457 16.872 17.72 16.56C18.8095 16.294 19.8564 15.8766 20.83 15.32C21.5145 14.9225 22.1156 14.3961 22.6 13.77C23.2519 12.9162 23.6916 11.9197 23.8828 10.8626C24.0741 9.80551 24.0114 8.71811 23.7 7.69Z" fill="black"/>
</g>
<defs>
<clipPath id="clip0_1030_2201">
<rect width="24" height="24" fill="white"/>
</clipPath>
</defs>
</svg>
