<svg width="24" height="24" viewBox="0 0 24 24" fill="none" xmlns="http://www.w3.org/2000/svg">
<g clip-path="url(#clip0_1030_2359)">
<path fill-rule="evenodd" clip-rule="evenodd" d="M16.81 16.89C16.7575 16.8898 16.7055 16.9006 16.6573 16.9215C16.6091 16.9425 16.5658 16.9732 16.5301 17.0117C16.4944 17.0502 16.4671 17.0957 16.4498 17.1454C16.4326 17.195 16.4258 17.2476 16.43 17.3C16.4954 18.3237 16.4686 19.3511 16.35 20.37C16.2445 20.9905 15.9674 21.569 15.55 22.04C15.2363 22.2768 14.8686 22.4314 14.48 22.49C12.6564 22.8962 10.7839 23.0376 8.91999 22.91C6.38999 22.77 3.81999 22.23 2.64999 20.91C2.32805 20.29 2.14385 19.6078 2.10999 18.91C1.72525 15.7215 1.64489 12.5037 1.86999 9.30001C1.95272 7.44524 2.21732 5.60308 2.65999 3.80001C2.78703 3.1301 3.09479 2.50766 3.54999 2.00001C4.43999 1.29001 6.54999 1.11001 8.80999 1.14001C11.3884 1.12199 13.9598 1.41068 16.47 2.00001C16.72 2.09001 16.92 2.31001 17.01 2.24001C17.1769 2.72216 17.2582 3.22983 17.25 3.74001C17.25 4.68001 17.19 5.74001 17.19 6.35001C17.1873 6.39631 17.194 6.44268 17.2099 6.48627C17.2258 6.52986 17.2504 6.56974 17.2822 6.60346C17.3141 6.63718 17.3525 6.66403 17.3951 6.68235C17.4377 6.70068 17.4836 6.71009 17.53 6.71001C17.576 6.71134 17.6217 6.7036 17.6647 6.68723C17.7077 6.67086 17.747 6.64619 17.7804 6.61461C17.8139 6.58303 17.8408 6.54518 17.8596 6.50321C17.8784 6.46124 17.8887 6.41598 17.89 6.37001C17.89 5.60001 18.06 4.37001 18.01 3.27001C17.9983 2.77998 17.9001 2.29587 17.72 1.84001C17.4721 1.51783 17.1176 1.29448 16.72 1.21001C14.1528 0.485511 11.5063 0.079134 8.83999 8.05221e-06C6.22999 -0.0999919 3.83999 0.180008 2.77999 1.00001C2.09792 1.65893 1.62493 2.50406 1.41999 3.43001C0.914848 5.31569 0.613127 7.25006 0.519987 9.20001C0.284283 12.5019 0.388161 15.8193 0.829987 19.1C0.911653 20.0384 1.21683 20.9437 1.71999 21.74C3.09999 23.22 5.99999 23.89 8.86999 24C12.27 24.11 15.6 23.4 16.24 22.65C16.7647 22.0544 17.1112 21.3232 17.24 20.54C17.3403 19.459 17.3403 18.371 17.24 17.29C17.2401 17.2349 17.2289 17.1803 17.2069 17.1297C17.185 17.0791 17.1528 17.0336 17.1124 16.996C17.0721 16.9584 17.0243 16.9296 16.9723 16.9114C16.9202 16.8932 16.865 16.8859 16.81 16.89Z" fill="black"/>
<path fill-rule="evenodd" clip-rule="evenodd" d="M23.16 9.56C20.88 10.01 18.46 10.38 16.02 10.76C14.45 11.01 12.86 11.27 11.29 11.43C9.98999 11.56 8.69999 11.63 7.42999 11.64L8.31999 10.79C9.01999 10.14 9.70999 9.49 10.32 8.79L12.63 6.04C12.6925 5.97176 12.7272 5.88256 12.7272 5.79C12.7272 5.69743 12.6925 5.60823 12.63 5.54C12.5965 5.50644 12.5568 5.47981 12.513 5.46164C12.4693 5.44347 12.4224 5.43411 12.375 5.43411C12.3276 5.43411 12.2807 5.44347 12.2369 5.46164C12.1932 5.47981 12.1534 5.50644 12.12 5.54L9.57999 8.08C8.77999 8.83 7.79999 9.51 6.92999 10.26C6.31468 10.7871 5.74898 11.3696 5.23999 12C5.16969 12.0912 5.11989 12.1964 5.094 12.3086C5.06812 12.4208 5.06675 12.5372 5.08999 12.65C5.12353 12.7772 5.18614 12.8949 5.27291 12.9938C5.35967 13.0927 5.46821 13.1702 5.58999 13.22C5.73999 13.29 6.03999 13.33 6.17999 13.41L7.45999 14.33C8.2992 14.9522 9.10373 15.6199 9.86999 16.33C10.3607 16.8156 10.8184 17.3334 11.24 17.88C11.2989 17.9668 11.3896 18.027 11.4925 18.0475C11.5954 18.0681 11.7022 18.0475 11.79 17.99C11.8775 17.9292 11.9379 17.8368 11.9584 17.7323C11.9789 17.6278 11.958 17.5193 11.9 17.43C11.4969 16.8114 11.049 16.2232 10.56 15.67C9.82871 14.8587 9.05072 14.0907 8.22999 13.37L7.13999 12.49C8.8393 12.6402 10.5476 12.6603 12.25 12.55C13.13 12.49 14 12.4 14.87 12.28C15.74 12.16 16.59 12 17.45 11.81C19.45 11.36 21.45 10.81 23.33 10.21C23.419 10.1843 23.4946 10.1252 23.5412 10.0451C23.5877 9.96503 23.6016 9.87007 23.58 9.78C23.5524 9.69586 23.4931 9.62579 23.4147 9.58471C23.3362 9.54362 23.2449 9.53476 23.16 9.56Z" fill="black"/>
</g>
<defs>
<clipPath id="clip0_1030_2359">
<rect width="24" height="24" fill="white"/>
</clipPath>
</defs>
</svg>
