<svg width="24" height="24" viewBox="0 0 24 24" fill="none" xmlns="http://www.w3.org/2000/svg">
<g clip-path="url(#clip0_1030_2363)">
<path d="M22.69 1.48001H20.88C16.89 1.62001 6.76 2.00001 6.53 2.00001C6.47562 1.98999 6.41971 1.99195 6.36616 2.00577C6.31262 2.01959 6.26274 2.04492 6.22 2.08001C5.77852 2.73262 5.56737 3.51386 5.62 4.30001C5.61491 4.89778 5.69231 5.49339 5.85 6.07001C5.90841 6.2845 6.03044 6.47625 6.2 6.62001C6.33792 6.69272 6.48639 6.74334 6.64 6.77001C6.91634 6.84102 7.1969 6.89446 7.48 6.93001L9.79 7.04001C11.4 7.04001 14.69 7.13001 17.54 7.12001C20.39 7.11001 22.84 7.05001 22.86 7.04001C23.1633 6.92801 23.4109 6.70195 23.55 6.41001C23.8679 5.71418 24.0218 4.95469 24 4.19001C24 3.00001 23.53 1.78001 22.69 1.48001ZM22.63 5.59001C22.5887 5.70546 22.5351 5.8161 22.47 5.92001L9.8 6.17001H7.51L6.63 6.00001C6.59166 5.92562 6.55826 5.84879 6.53 5.77001C6.35369 5.16315 6.27935 4.53122 6.31 3.90001C6.29319 3.47045 6.38611 3.04369 6.58 2.66001C7.67 2.66001 13.41 2.66001 17.7 2.61001H22.02H22.3H22.43C22.6975 2.9242 22.8368 3.32769 22.82 3.74001C22.8797 4.36317 22.8151 4.99199 22.63 5.59001Z" fill="black"/>
<path d="M22.31 2.56C22.3456 2.58777 22.3864 2.60817 22.43 2.62C22.3965 2.589 22.3549 2.56818 22.31 2.56Z" fill="black"/>
<path d="M20.32 9.39001H18.67L5.67 9.82001C5.57717 9.82001 5.48815 9.85689 5.42251 9.92253C5.35687 9.98817 5.32 10.0772 5.32 10.17C5.3226 10.2637 5.36168 10.3528 5.42891 10.4181C5.49614 10.4835 5.58623 10.5201 5.68 10.52L19.88 10.43C20.26 10.58 20.34 11.1 20.4 11.65C20.457 12.2659 20.3959 12.887 20.22 13.48C20.1778 13.6 20.1207 13.7142 20.05 13.82L7.39 14.06H5.09L4.24 13.92C4.24 13.87 4.14 13.78 4.11 13.69C3.93871 13.0821 3.86446 12.451 3.89 11.82C3.8593 11.3305 3.99305 10.8448 4.27 10.44C4.29873 10.4121 4.32156 10.3786 4.33715 10.3417C4.35274 10.3048 4.36077 10.2651 4.36077 10.225C4.36077 10.1849 4.35274 10.1453 4.33715 10.1083C4.32156 10.0714 4.29873 10.038 4.27 10.01C4.24118 9.98099 4.20691 9.95795 4.16915 9.94223C4.13139 9.92651 4.0909 9.91842 4.05 9.91842C4.0091 9.91842 3.9686 9.92651 3.93084 9.94223C3.89309 9.95795 3.85881 9.98099 3.83 10.01C3.3691 10.6509 3.14629 11.4325 3.2 12.22C3.20879 12.8236 3.30306 13.4229 3.48 14C3.53595 14.2184 3.65823 14.414 3.83 14.56C3.96864 14.631 4.11685 14.6816 4.27 14.71C4.54654 14.7801 4.82705 14.8336 5.11 14.87L7.43 15C8.8 15 11.43 15.08 13.88 15.09C17.25 15.09 20.46 15 20.5 14.99C20.6486 14.9365 20.7851 14.8542 20.9018 14.7478C21.0185 14.6414 21.113 14.513 21.18 14.37C21.5009 13.6681 21.6549 12.9014 21.63 12.13C21.61 10.85 21.15 9.69001 20.32 9.39001Z" fill="black"/>
<path d="M17.07 16.88H15.26C11.26 17.01 1.14001 17.4 0.91001 17.36C0.854927 17.3481 0.79776 17.3502 0.743649 17.3659C0.689537 17.3816 0.640179 17.4105 0.60001 17.45C0.141478 18.1098 -0.0708692 18.9096 1.0387e-05 19.71C-0.00507924 20.3078 0.0723169 20.9034 0.23001 21.48C0.295796 21.6826 0.417047 21.8628 0.58001 22C0.72078 22.0635 0.868431 22.1105 1.02001 22.14C1.29503 22.2168 1.57602 22.2703 1.86001 22.3L4.17001 22.41C5.78001 22.41 9.06001 22.5 11.92 22.49C14.78 22.48 17.21 22.42 17.24 22.41C17.5412 22.2945 17.7876 22.0694 17.93 21.78C18.2494 21.0811 18.4034 20.318 18.38 19.55C18.36 18.35 17.9 17.18 17.07 16.88ZM17 21C16.9587 21.1155 16.9051 21.2261 16.84 21.33L4.17001 21.58H1.88001L1.00001 21.41C0.955758 21.3337 0.918923 21.2533 0.89001 21.17C0.726937 20.5607 0.65615 19.9303 0.68001 19.3C0.68329 18.8667 0.79319 18.4408 1.00001 18.06H12.11H16.44H16.72H16.85C17.1133 18.3766 17.252 18.7784 17.24 19.19C17.2734 19.803 17.192 20.4169 17 21Z" fill="black"/>
<path d="M16.69 18C16.7243 18.0298 16.7656 18.0504 16.81 18.06C16.775 18.0312 16.734 18.0107 16.69 18Z" fill="black"/>
</g>
<defs>
<clipPath id="clip0_1030_2363">
<rect width="24" height="24" fill="white"/>
</clipPath>
</defs>
</svg>
