<svg width="426" height="401" viewBox="0 0 426 401" fill="none" xmlns="http://www.w3.org/2000/svg">
<path d="M285.575 322.904C285.575 338.701 307.287 351.507 334.068 351.507C353.622 351.507 370.458 344.687 378.133 334.854L378.428 334.935L388.607 337.724C388.413 338.029 388.307 338.381 388.302 338.742C388.302 338.844 388.302 338.956 388.302 339.078C388.194 339.541 388.188 340.021 388.283 340.487C388.378 340.952 388.572 341.392 388.851 341.776C389.484 342.35 390.225 342.794 391.03 343.08C391.836 343.367 392.69 343.491 393.544 343.445C396.272 343.445 398.41 342.04 398.44 340.829C398.44 338.793 398.389 338.274 398.175 337.948C397.698 337.348 397.053 336.901 396.323 336.666C395.306 335.491 393.871 334.761 392.323 334.63C391.305 334.345 385.309 332.787 380.321 331.485C381.772 328.856 382.542 325.906 382.561 322.904C382.561 307.106 360.849 294.301 334.068 294.301C307.287 294.301 285.575 307.075 285.575 322.904ZM359.566 334.528C359.556 334.721 359.472 334.902 359.332 335.035C359.192 335.167 359.006 335.241 358.813 335.241H358.762C358.662 335.234 358.564 335.208 358.474 335.163C358.384 335.119 358.303 335.057 358.237 334.981C358.171 334.906 358.12 334.818 358.088 334.723C358.056 334.627 358.043 334.527 358.05 334.426L358.223 331.892C358.719 332.02 359.227 332.099 359.74 332.126L359.566 334.528ZM395.997 339.404C396.289 339.163 396.507 338.846 396.628 338.488L396.873 338.671C396.983 339.344 397.01 340.027 396.954 340.707C396.51 341.142 395.977 341.475 395.392 341.685C394.807 341.894 394.183 341.973 393.564 341.918C392.239 341.997 390.935 341.555 389.93 340.686C389.737 340.493 389.808 339.556 389.839 339.21C389.839 339.068 389.839 338.936 389.839 338.813C389.839 338.691 389.839 338.467 390.368 338.223C390.508 338.68 390.772 339.089 391.132 339.404C391.492 339.719 391.932 339.927 392.404 340.004C392.795 340.093 393.194 340.137 393.595 340.137C394.456 340.177 395.305 339.918 395.997 339.404ZM358.06 330.141C358.099 329.297 358.464 328.502 359.078 327.922C359.638 327.576 360.483 327.84 361.307 328.095L361.908 328.278L363.546 328.706L379.711 332.92C386.989 334.803 391.335 335.973 391.926 336.116H392.068C392.783 336.19 393.475 336.408 394.104 336.757C394.467 336.933 394.779 337.199 395.01 337.531L395.071 337.653C395.081 337.707 395.081 337.762 395.071 337.816C395.076 337.889 395.062 337.963 395.03 338.029C394.998 338.095 394.949 338.151 394.888 338.192C394.555 338.389 394.185 338.514 393.802 338.561C393.418 338.609 393.029 338.577 392.658 338.467C392.43 338.444 392.214 338.35 392.04 338.199C391.867 338.048 391.745 337.846 391.691 337.622C391.602 337.295 391.391 337.015 391.101 336.839L390.419 336.625C387.823 335.861 378.835 333.439 378.734 333.408C376.352 332.757 364.432 329.53 363.465 329.337C363.292 329.323 363.119 329.323 362.946 329.337C362.631 329.328 362.318 329.4 362.038 329.547C361.759 329.693 361.521 329.908 361.348 330.171C361.275 330.277 361.19 330.372 361.093 330.456H360.829C360.261 330.533 359.686 330.533 359.119 330.456H358.956C358.6 330.415 358.255 330.308 357.938 330.141H358.06ZM351.25 338.589C351.34 338.768 351.356 338.975 351.295 339.165C351.234 339.355 351.101 339.514 350.924 339.607C347.372 341.47 341.315 342.437 335.096 342.437C330.339 342.503 325.598 341.862 321.029 340.534C320.836 340.473 320.675 340.338 320.581 340.158C320.488 339.979 320.469 339.77 320.53 339.577C320.593 339.383 320.73 339.222 320.911 339.129C321.092 339.035 321.303 339.017 321.497 339.078C330.139 341.857 344.105 341.46 350.212 338.254C350.39 338.176 350.591 338.167 350.775 338.229C350.96 338.291 351.115 338.42 351.209 338.589H351.25ZM328.51 336.136C328.54 335.937 328.648 335.757 328.811 335.637C328.973 335.517 329.176 335.466 329.375 335.495C333.043 336.142 336.802 336.066 340.44 335.271C340.538 335.247 340.639 335.242 340.738 335.258C340.838 335.273 340.933 335.307 341.019 335.359C341.105 335.411 341.18 335.48 341.24 335.561C341.299 335.641 341.342 335.733 341.366 335.831C341.39 335.929 341.395 336.03 341.38 336.129C341.365 336.229 341.33 336.324 341.278 336.41C341.226 336.496 341.158 336.571 341.077 336.631C340.996 336.69 340.904 336.733 340.807 336.757C338.806 337.231 336.755 337.463 334.699 337.449C332.838 337.436 330.981 337.29 329.141 337.012C328.943 336.977 328.766 336.866 328.648 336.702C328.53 336.539 328.481 336.336 328.51 336.136ZM348.97 319.738C348.97 324.593 342.303 328.533 334.068 328.533C325.833 328.533 319.166 324.593 319.166 319.738C319.166 314.883 325.833 310.943 334.068 310.943C342.303 310.943 348.97 314.872 348.97 319.728V319.738ZM308.254 304.52C312.153 302.24 316.397 300.774 319.512 300.612C319.714 300.608 319.91 300.682 320.059 300.819C320.209 300.955 320.301 301.143 320.316 301.344C320.32 301.445 320.305 301.545 320.27 301.639C320.235 301.733 320.182 301.82 320.114 301.893C320.046 301.967 319.964 302.027 319.873 302.069C319.782 302.111 319.684 302.134 319.583 302.138C316.713 302.291 312.662 303.706 309.017 305.844C308.903 305.91 308.773 305.945 308.641 305.945C308.472 305.947 308.308 305.892 308.173 305.79C308.039 305.688 307.942 305.545 307.898 305.382C307.854 305.219 307.865 305.046 307.929 304.89C307.994 304.735 308.108 304.604 308.254 304.52ZM305.933 311.707C310.005 307.808 317.619 303.777 325.273 303.563C325.475 303.561 325.67 303.637 325.816 303.776C325.963 303.914 326.049 304.105 326.057 304.307C326.061 304.407 326.045 304.508 326.01 304.602C325.974 304.696 325.92 304.782 325.851 304.855C325.782 304.928 325.699 304.987 325.606 305.027C325.514 305.068 325.415 305.089 325.314 305.09C318.097 305.284 310.758 309.223 306.992 312.806C306.853 312.942 306.667 313.019 306.473 313.02C306.318 313.022 306.167 312.977 306.039 312.891C305.91 312.806 305.811 312.683 305.754 312.54C305.696 312.397 305.684 312.239 305.718 312.089C305.751 311.938 305.83 311.801 305.943 311.696L305.933 311.707Z" fill="black"/>
<path d="M293.739 84.8166C293.575 84.7159 293.378 84.681 293.19 84.7187C293.001 84.7565 292.833 84.8642 292.721 85.0202C291.207 87.2758 289.814 89.6101 288.547 92.0131C288.465 92.1914 288.455 92.3944 288.519 92.5801C288.582 92.7657 288.715 92.9197 288.889 93.01C289.063 93.1004 289.266 93.1202 289.454 93.0654C289.643 93.0105 289.803 92.8852 289.901 92.7155C291.137 90.3684 292.496 88.0885 293.973 85.8854C294.029 85.8002 294.067 85.7047 294.086 85.6045C294.105 85.5042 294.103 85.4012 294.081 85.3016C294.059 85.2019 294.018 85.1077 293.959 85.0244C293.9 84.9411 293.825 84.8704 293.739 84.8166Z" fill="black"/>
<path d="M294.207 98.6806C294.281 98.6916 294.357 98.6916 294.431 98.6806C296.971 97.7586 299.388 96.5279 301.627 95.0161C301.716 94.9627 301.794 94.8918 301.854 94.8075C301.915 94.7233 301.958 94.6276 301.98 94.5262C302.002 94.4249 302.004 94.3201 301.984 94.2181C301.965 94.1162 301.925 94.0193 301.867 93.9333C301.808 93.8474 301.733 93.7743 301.646 93.7183C301.558 93.6624 301.46 93.6249 301.358 93.6081C301.256 93.5913 301.151 93.5956 301.05 93.6207C300.949 93.6458 300.855 93.6911 300.772 93.754C298.655 95.1735 296.376 96.3353 293.983 97.2148C293.806 97.2665 293.653 97.3807 293.553 97.5362C293.454 97.6918 293.414 97.8781 293.441 98.0608C293.469 98.2434 293.561 98.41 293.702 98.5296C293.843 98.6491 294.022 98.7137 294.207 98.7111V98.6806Z" fill="black"/>
<path d="M299.297 108.707C300.742 108.88 304.834 109.521 304.875 109.531H304.997C305.189 109.531 305.373 109.458 305.513 109.328C305.654 109.198 305.74 109.02 305.756 108.829C305.771 108.638 305.714 108.449 305.596 108.298C305.478 108.147 305.308 108.046 305.119 108.015C304.946 108.015 300.956 107.363 299.48 107.19C299.38 107.177 299.279 107.185 299.182 107.212C299.085 107.239 298.994 107.285 298.916 107.348C298.837 107.41 298.772 107.488 298.723 107.576C298.675 107.665 298.645 107.762 298.635 107.862C298.612 108.061 298.669 108.262 298.792 108.42C298.916 108.578 299.097 108.681 299.297 108.707Z" fill="black"/>
<path d="M386.195 112.473C386.375 112.471 386.548 112.406 386.684 112.29C394.114 106.04 396.099 97.021 392.282 86.9234C392.202 86.7467 392.058 86.6071 391.878 86.533C391.699 86.4589 391.498 86.4559 391.317 86.5246C391.135 86.5933 390.987 86.7286 390.901 86.9029C390.816 87.0772 390.8 87.2774 390.857 87.4629C394.491 97.0516 392.71 105.236 385.707 111.119C385.589 111.22 385.504 111.355 385.464 111.505C385.425 111.655 385.432 111.814 385.485 111.96C385.538 112.106 385.635 112.233 385.762 112.322C385.889 112.412 386.04 112.461 386.195 112.463V112.473Z" fill="black"/>
<path d="M322.138 193.172C322.048 193.216 321.967 193.278 321.901 193.353C321.834 193.428 321.783 193.516 321.751 193.611C321.718 193.706 321.704 193.806 321.711 193.907C321.717 194.007 321.743 194.105 321.787 194.195C321.831 194.285 321.892 194.366 321.968 194.432C322.043 194.499 322.131 194.55 322.226 194.583C322.321 194.615 322.421 194.629 322.521 194.623C322.622 194.616 322.72 194.59 322.81 194.546C357.134 177.761 392.984 171.389 398.257 177.955C398.687 178.47 398.995 179.078 399.155 179.731C399.316 180.383 399.325 181.064 399.183 181.721C397.809 189.111 382.255 198.201 382.093 198.292C381.946 198.376 381.832 198.506 381.768 198.662C381.703 198.818 381.692 198.991 381.737 199.154C381.781 199.317 381.878 199.46 382.012 199.562C382.146 199.664 382.311 199.719 382.479 199.717C382.615 199.719 382.749 199.684 382.866 199.615C383.528 199.229 399.153 190.078 400.69 182.006C400.874 181.132 400.859 180.228 400.646 179.361C400.433 178.494 400.027 177.686 399.458 176.998C393.025 169.007 355.454 176.865 322.138 193.172Z" fill="black"/>
<path d="M425.221 254.928C423.063 253.024 415.836 246.947 413.261 248.719C411.815 249.737 411.744 253.33 411.744 259.152C411.744 262.42 411.744 267.876 410.889 268.313C410.034 268.751 407.245 265.992 405.464 264.242C402.776 261.565 401.056 259.946 399.621 260.17C397.585 260.486 397.85 264.038 398.491 269.85C398.725 271.957 399.051 274.848 398.817 275.388C398.349 275.54 395.641 274.37 388.79 267.153C388.73 267.06 388.65 266.981 388.556 266.922C388.462 266.863 388.356 266.825 388.246 266.811C388.136 266.797 388.024 266.807 387.919 266.841C387.813 266.875 387.716 266.931 387.634 267.006C387.552 267.081 387.488 267.173 387.445 267.275C387.403 267.378 387.383 267.488 387.387 267.599C387.392 267.71 387.42 267.819 387.471 267.917C387.522 268.016 387.593 268.103 387.681 268.171C393.198 273.952 396.934 276.884 398.796 276.884H399.041C399.278 276.849 399.503 276.755 399.695 276.611C399.887 276.467 400.04 276.277 400.14 276.06C400.578 275.143 400.384 273.138 399.998 269.667C399.702 267.071 399.163 262.226 399.845 261.666C400.598 261.544 402.899 263.814 404.374 265.31C407.143 268.069 409.545 270.4 411.408 269.759C413.271 269.117 413.261 265.484 413.251 259.132C413.251 255.712 413.251 250.541 414.106 249.971C415.124 249.238 420.213 252.526 424.193 256.078C424.344 256.213 424.543 256.282 424.745 256.271C424.948 256.26 425.137 256.168 425.272 256.017C425.407 255.866 425.476 255.667 425.465 255.465C425.453 255.263 425.362 255.073 425.211 254.938L425.221 254.928Z" fill="black"/>
<path d="M404.344 321.763C404.482 321.764 404.617 321.727 404.735 321.657C404.854 321.586 404.951 321.485 405.017 321.364C405.083 321.243 405.114 321.107 405.109 320.969C405.103 320.831 405.06 320.698 404.985 320.583C404.904 320.45 396.333 307.472 388.8 299.878C388.731 299.803 388.646 299.743 388.553 299.702C388.459 299.66 388.358 299.637 388.255 299.636C388.153 299.634 388.051 299.653 387.956 299.691C387.861 299.729 387.775 299.787 387.702 299.859C387.63 299.932 387.572 300.018 387.534 300.113C387.496 300.208 387.477 300.31 387.479 300.412C387.48 300.515 387.503 300.616 387.545 300.71C387.586 300.803 387.647 300.888 387.722 300.957C395.152 308.449 403.631 321.315 403.713 321.427C403.783 321.531 403.877 321.615 403.987 321.674C404.097 321.732 404.219 321.763 404.344 321.763Z" fill="black"/>
<path d="M405.993 313.498C405.916 313.431 405.828 313.38 405.732 313.348C405.636 313.315 405.534 313.302 405.433 313.308C405.332 313.315 405.233 313.341 405.142 313.386C405.051 313.431 404.97 313.493 404.903 313.569C404.837 313.646 404.785 313.734 404.753 313.83C404.72 313.926 404.707 314.028 404.713 314.129C404.72 314.23 404.747 314.329 404.791 314.42C404.836 314.511 404.898 314.592 404.975 314.659C407.438 316.786 412.242 324.013 412.293 324.084C412.363 324.191 412.458 324.278 412.57 324.339C412.682 324.399 412.807 324.431 412.935 324.43C413.083 324.432 413.228 324.389 413.352 324.308C413.51 324.197 413.619 324.03 413.659 323.841C413.699 323.653 413.665 323.456 413.566 323.29C413.382 322.904 408.609 315.778 405.993 313.498Z" fill="black"/>
<path d="M411.866 341.317V341.256C411.853 341.224 411.836 341.193 411.815 341.165C411.824 341.138 411.824 341.11 411.815 341.083C411.561 340.778 386.876 309.773 382.937 304.602C378.998 299.431 366.702 285.353 364.401 283.134C364.318 283.055 364.218 282.995 364.109 282.96C364 282.925 363.884 282.915 363.77 282.931C363.231 283.002 329.813 287.633 304.029 291.226C304.298 287.072 304.805 282.936 305.546 278.839C306.946 270.674 307.878 262.436 308.335 254.165C309.475 253.471 310.505 252.609 311.389 251.61C311.471 251.503 311.523 251.377 311.541 251.243C311.541 251.243 311.928 248.464 312.651 244.678C316.814 222.864 315.949 210.751 315.114 199.035L314.941 196.562C314.534 190.648 313.862 185.446 313.272 180.855C313.15 179.919 313.038 179.023 312.926 178.158C316.113 173.843 319.553 169.72 323.227 165.811C325.324 163.622 329.049 159.927 333.406 155.632C341.285 147.835 351.087 138.134 358.07 130.54C364.775 123.329 370.815 115.528 376.117 107.23C376.779 106.213 377.41 105.195 377.583 105.072C382.53 101.296 380.494 97.4993 377.685 92.2367C377.064 91.0763 376.361 89.753 375.649 88.3483C371.954 80.6734 354.08 55.9994 347.219 47.1844C340.358 38.3693 332.836 28.4855 331.085 23.2229C333.058 20.2908 333.79 16.6972 333.121 13.2271C332.388 8.53462 330.973 6.4072 328.825 3.18045L328.123 2.16255C326.93 0.69693 326.056 -1.00199 325.558 -2.82517C325.548 -3.53186 325.575 -4.2386 325.639 -4.94241C325.731 -6.45909 325.863 -8.54579 325.812 -10.5714C325.767 -13.5974 325.468 -16.6143 324.917 -19.59C324.581 -21.2492 323.695 -23.3257 322.321 -23.6616C322.014 -23.7428 321.689 -23.731 321.388 -23.6277C321.088 -23.5245 320.824 -23.3344 320.631 -23.0814C319.613 -21.8905 319.563 -19.4577 319.522 -16.6585C319.522 -16.0579 319.522 -15.4573 319.522 -14.867C319.43 -12.3196 319.113 -9.78532 318.575 -7.29376C318.432 -7.57076 318.306 -7.85631 318.199 -8.14881C317.984 -9.75542 317.96 -11.3818 318.127 -12.994C318.199 -13.5233 318.29 -14.0119 318.382 -14.5921C318.823 -16.9419 319.051 -19.3267 319.064 -21.7174C319.064 -24.364 318.443 -26.3794 317.242 -27.2345C316.909 -27.4754 316.512 -27.6102 316.102 -27.6213C315.891 -28.1126 315.536 -28.528 315.084 -28.8122C314.802 -28.9667 314.479 -29.0318 314.16 -28.9991C313.84 -28.9664 313.537 -28.8373 313.292 -28.629C311.837 -27.4788 308.671 -21.5037 308.121 -20.2008C307.47 -18.6739 307.246 -16.7603 307.195 -11.915C307.043 -11.8652 306.899 -11.7932 306.768 -11.7013C306.494 -11.4702 306.277 -11.1793 306.134 -10.8509C305.991 -10.5226 305.926 -10.1657 305.943 -9.80799C305.725 -10.2514 305.574 -10.7248 305.495 -11.2127L305.444 -11.5181C304.683 -16.1161 303.546 -20.644 302.044 -25.0562C300.07 -30.9193 297.973 -31.9066 296.955 -31.9677C296.61 -31.9969 296.264 -31.9212 295.962 -31.7505C295.661 -31.5798 295.418 -31.322 295.265 -31.0109C294.685 -29.7996 294.766 -29.1583 295.784 -21.3408L296.029 -19.4577C297.047 -11.6097 297.729 -6.41837 297.688 -3.90415C297.688 -3.54788 297.688 -3.18144 297.688 -2.82517C297.325 0.219498 298.161 3.28584 300.019 5.72521C303.704 10.9688 307.056 16.439 310.055 22.1033C312.57 27.0808 320.448 40.9955 323.726 46.6143C327.003 52.2332 336.959 71.4817 339.717 77.528C340.267 78.7292 340.969 80.2255 341.753 81.8745C344.379 87.5137 349.275 97.998 349.143 99.4231C348.97 101.021 342.333 107.057 336.47 112.371C334.821 113.867 333.141 115.425 331.492 116.921C323.288 124.494 313.587 130.021 309.394 131.721L307.521 132.454C302.436 134.268 297.666 136.865 293.382 140.149C290.328 142.45 283.946 147.275 281.371 145.595C279.946 144.577 276.587 128.922 278.317 118.835C278.886 119.016 279.48 119.109 280.078 119.109C280.647 119.108 281.212 119.026 281.758 118.865C282.871 118.551 283.878 117.939 284.669 117.094C285.499 116.212 286.097 115.139 286.409 113.969C286.646 112.949 286.738 111.9 286.684 110.854V110.64C286.484 106.16 285.401 101.764 283.498 97.7029C283.478 97.6388 283.451 97.5773 283.417 97.5196V97.4687C282.713 96.0015 281.763 94.6657 280.607 93.5193C279.746 92.6907 278.673 92.1149 277.506 91.8546C276.339 91.5943 275.123 91.6596 273.991 92.0433C273.364 92.255 272.771 92.5567 272.23 92.9391C266.55 82.1493 258.997 75.7162 249.897 73.7923C237.683 62.4529 208.978 57.567 185.373 68.3364C161.024 79.4213 152.861 92.766 155.263 117.46C155.401 118.962 155.23 120.476 154.759 121.908C154.288 123.34 153.527 124.661 152.525 125.787C148.331 130.815 139.964 134.184 129.581 135.04C112.613 136.434 96.5911 137.757 89.8831 157.952C89.8316 158.105 89.8295 158.269 89.877 158.423C89.9245 158.576 90.0193 158.711 90.1478 158.808C90.2774 158.903 90.4344 158.955 90.5957 158.955C90.7569 158.955 90.9139 158.903 91.0435 158.808C96.3108 155.332 102.57 153.673 108.867 154.084C115.463 154.39 117.662 156.365 117.692 156.904C117.723 157.444 115.219 157.535 113.621 157.657C108.531 158.054 100.011 158.675 93.5272 165.536C93.4115 165.659 93.3397 165.817 93.3232 165.985C93.3066 166.153 93.3462 166.321 93.4358 166.464C93.5254 166.607 93.6599 166.717 93.8183 166.775C93.9766 166.834 94.1499 166.838 94.311 166.788C94.881 166.605 100.154 165.159 111.371 170.351C121.133 174.88 128.563 177.934 137.836 177.934C140.974 177.916 144.102 177.603 147.181 176.997C160.027 174.565 171.061 165.638 176.7 153.107C178.909 148.232 180.975 142.755 182.97 137.452C185.179 131.609 187.459 125.573 189.882 120.463C193.831 112.157 203.481 98.904 213.1 97.4687C212.479 104.717 213.889 111.996 217.172 118.488C216.267 119.434 215.745 120.682 215.706 121.99C215.452 125.929 216.938 129.94 220.857 135.823C223.819 140.272 226.516 141.371 228.471 141.371C229.457 141.371 230.423 141.085 231.249 140.546C231.822 140.159 232.327 139.681 232.746 139.131C234.502 141.408 236.417 143.558 238.476 145.565C241.734 148.618 245.826 152.038 250.488 153.972C247.973 154.99 244.798 156.008 241.459 157.026C235.738 158.797 229.824 160.64 226.19 162.94C218.879 167.377 212.656 173.398 207.98 180.56C204.874 185.214 202.039 190.043 199.491 195.024C198.249 197.376 197.068 199.605 195.826 201.631C192.457 207.148 187.347 214.11 179.947 224.096C175.733 229.765 173.036 233.664 171.061 236.514C169.626 238.55 168.669 239.965 167.915 240.891C166.205 243.213 164.019 245.142 161.503 246.551L161.096 246.744C158.378 248.027 152.016 251.04 136.076 265.138C129.714 270.777 125.377 274.787 121.896 278.004C117.132 282.411 113.977 285.323 109.295 289.038L109.193 289.099C105.325 288.081 103.014 287.358 102.994 287.358C102.885 287.324 102.77 287.315 102.658 287.33C102.545 287.346 102.437 287.387 102.342 287.45C86.1983 298.291 29.4605 331.057 28.5342 331.596C28.4392 331.646 28.3559 331.716 28.2899 331.8C28.2886 331.824 28.2886 331.848 28.2899 331.871V331.943C28.2447 332.038 28.2204 332.142 28.2186 332.248C28.2186 332.248 28.2186 332.248 28.2186 332.248C28.3504 339.125 29.3142 345.961 31.0891 352.606C31.1384 352.777 31.2466 352.925 31.3945 353.023C69.7388 378.41 119.514 390.289 188.039 390.39H189.353C278.205 390.39 368.9 374.867 408.629 365.655C408.776 365.621 408.91 365.544 409.013 365.433C409.117 365.323 409.185 365.184 409.209 365.035C409.759 361.625 411.642 347.862 412.069 341.531C412.075 341.48 412.075 341.429 412.069 341.378C412.011 341.334 411.939 341.313 411.866 341.317ZM363.516 284.447C366.264 287.246 377.848 300.53 381.634 305.487C385.238 310.22 406.125 336.452 409.942 341.246C386.968 351.842 295.937 362.958 286.542 364.088C286.084 359.701 283.722 337.806 280.679 324.166C277.961 312.012 276.047 299.807 275.589 296.682L281.788 295.797L284.455 295.42L303.327 292.784L363.516 284.447ZM233.132 219.617C233.387 220.319 233.652 221.012 233.916 221.653C236.422 227.709 237.841 234.159 238.11 240.708C238.592 246.904 237.255 253.105 234.262 258.552C234.204 258.643 234.166 258.745 234.151 258.852C234.135 258.96 234.143 259.069 234.172 259.173C234.202 259.276 234.254 259.373 234.324 259.455C234.394 259.538 234.48 259.605 234.578 259.651C235.453 260.068 236.319 260.445 237.163 260.822C236.329 262.165 233.967 265.504 228.338 270.624C226.506 272.293 223.697 274.492 220.439 277.037C211.624 283.938 199.593 293.323 192.793 303.095C187.775 303.095 182.614 303.024 177.311 302.892L177.128 300.265C177.128 300.265 177.128 300.265 177.128 300.204C177.13 300.167 177.13 300.13 177.128 300.092C177.131 300.059 177.131 300.024 177.128 299.991V299.929C177.106 299.889 177.074 299.854 177.036 299.828L176.965 299.767H176.873H176.751H176.69C176.643 299.756 176.594 299.756 176.547 299.767C160.749 299.767 143.445 296.947 131.159 294.443C134.925 291.919 140.218 289.058 147.384 285.19L152.026 282.686C172.007 271.856 179.194 267.662 182.37 264.16C184.485 261.631 186.469 258.994 188.314 256.261C189.788 254.044 191.393 251.916 193.119 249.889C195.573 247.186 197.87 244.345 200 241.38C201.17 239.843 202.514 238.092 204.071 236.066C206.85 232.463 210.423 227.923 214.25 223.037C218.678 217.388 223.249 211.535 227.412 206.15C228.878 204.247 230.038 202.699 230.975 201.407C230.152 207.562 230.894 213.825 233.132 219.617ZM266.581 293.822L268.617 285.679C273.197 286.178 277.849 286.585 282.511 286.697L280.974 294.402L279.895 294.565C275.43 294.741 270.958 294.492 266.54 293.822H266.581ZM273.961 296.061L273.614 297.822C245.113 301.09 221.701 303.085 194.666 303.146C201.435 293.904 212.897 284.926 221.376 278.289C223.259 276.813 224.989 275.459 226.465 274.217C238.796 287.461 255.85 295.309 273.93 296.061H273.961ZM265.064 293.578C260.225 292.748 255.493 291.383 250.956 289.506L253.389 282.584C257.761 284.039 262.275 285.025 266.856 285.526H267.08L265.064 293.578ZM249.551 288.855C246.003 287.281 242.598 285.405 239.372 283.246L241.968 276.894C245.059 279.008 248.408 280.719 251.933 281.984L249.551 288.855ZM238.1 282.361L237.54 281.964L240.349 275.663L240.726 275.948L238.1 282.361ZM236.278 281.037C233.182 278.709 230.297 276.114 227.656 273.281C228.277 272.762 228.857 272.263 229.356 271.805C230.913 270.39 232.216 269.107 233.326 267.957C234.923 270.457 236.878 272.71 239.128 274.645L236.278 281.037ZM175.814 303.747C175.827 303.937 175.91 304.115 176.048 304.247C176.185 304.379 176.367 304.454 176.557 304.459C182.288 304.612 187.754 304.693 193.149 304.693H193.312C221.203 304.693 245.052 302.657 274.337 299.288H274.459C275.243 304.215 276.963 314.394 279.233 324.542C280.913 332.065 282.379 342.132 283.437 350.346C284.496 358.561 285.127 364.912 285.137 365.024L285.198 366.134C243.108 370.653 196.081 374.348 126.131 366.388L126.039 365.157C159.202 329.377 172.038 309.437 175.774 303.065L175.814 303.747ZM282.623 294.178L284.048 286.768H284.73L283.661 294.026L282.643 294.168L282.623 294.178ZM285.229 293.812L286.247 286.809C291.873 286.864 297.489 286.298 302.991 285.119C302.7 287.202 302.513 289.298 302.431 291.399L285.219 293.812H285.229ZM303.989 278.543C303.714 280.274 303.459 281.913 303.225 283.48C291.662 286.208 278.999 285.323 267.018 283.948C251.648 282.177 240.095 276.09 234.395 266.797C235.958 265.163 237.353 263.376 238.558 261.463C245.663 264.581 253.346 266.163 261.104 266.105C265.819 266.052 270.525 265.692 275.192 265.026C288.14 263.316 300.131 258.918 306.696 255.071C306.207 262.942 305.293 270.781 303.958 278.554L303.989 278.543ZM313.262 194.923C313.262 195.483 313.353 196.032 313.394 196.602L313.567 199.086C314.402 210.7 315.257 222.711 311.124 244.332C310.513 247.548 310.106 250.032 310.035 250.755C306.829 254.48 291.519 261.351 275.009 263.519C258.142 265.738 248.879 264.608 235.972 258.654C238.825 253.099 240.087 246.863 239.617 240.637C239.337 233.926 237.876 227.317 235.301 221.113C235.046 220.431 234.781 219.749 234.527 219.078C231.88 212.469 231.267 205.221 232.766 198.261C233.789 196.676 234.704 195.023 235.504 193.314C236.044 192.205 236.665 190.953 237.54 189.243C240.594 183.644 244.37 177.822 248.737 171.073L250.691 168.07C251.635 169.485 252.82 170.722 254.193 171.725C256.126 173.114 258.449 173.856 260.83 173.842C262.357 173.829 263.873 173.571 265.319 173.079C274.378 170.096 280.526 164.742 283.264 157.81C298.278 172.783 307.531 184.275 313.231 194.933L313.262 194.923ZM315.99 -20.9642C316.304 -21.8696 316.529 -22.8038 316.662 -23.7532C316.735 -24.4298 316.735 -25.1124 316.662 -25.789C317.381 -24.601 317.695 -23.2115 317.557 -21.8294C317.55 -19.5207 317.332 -17.2175 316.906 -14.9484C316.804 -14.3682 316.712 -13.8389 316.641 -13.2892C316.439 -11.4383 316.49 -9.56847 316.794 -7.73146C317.063 -7.02005 317.404 -6.33792 317.812 -5.69566H315.175C314.825 -8.11654 314.638 -10.5582 314.616 -13.0042C314.666 -15.7061 315.119 -18.3855 315.959 -20.954L315.99 -20.9642ZM309.475 -19.6409C310.157 -21.239 313.18 -26.6746 314.188 -27.4686C314.218 -27.4948 314.253 -27.5155 314.29 -27.5297C314.585 -27.4788 315.308 -26.1351 315.145 -23.8754C315.016 -23.0342 314.812 -22.2064 314.534 -21.4019C313.616 -18.663 313.118 -15.8007 313.058 -12.9126C313.064 -11.0348 313.176 -9.15882 313.394 -7.29376C312.599 -8.93603 311.366 -10.3272 309.831 -11.3145C309.47 -11.5428 309.084 -11.7306 308.681 -11.8743C308.691 -16.4752 308.885 -18.338 309.475 -19.6409ZM284.852 147.061C287.733 146.145 291.133 143.753 294.288 141.381C298.464 138.182 303.114 135.654 308.07 133.889L309.964 133.146C314.249 131.406 324.214 125.766 332.52 118.051C334.169 116.534 335.849 114.997 337.488 113.511C345.743 106.009 350.425 101.673 350.649 99.5961C350.812 98.0693 348.247 92.2164 343.127 81.2739C342.364 79.6249 341.661 78.1388 341.091 76.9377C338.241 70.6979 328.154 51.4901 324.866 45.8509C321.578 40.2117 313.74 26.3785 311.236 21.4213C308.194 15.6862 304.794 10.148 301.057 4.83963C300.236 3.76961 299.633 2.54827 299.284 1.24536C298.935 -0.0575562 298.845 -1.41652 299.021 -2.75392C299.021 -3.13054 299.021 -3.50717 299.021 -3.88379C299.021 -6.50998 298.38 -11.742 297.352 -19.6613L297.108 -21.5444C296.151 -28.8733 296.09 -29.5756 296.456 -30.3594C296.456 -30.4307 296.578 -30.451 296.68 -30.451C297.362 -30.451 298.92 -29.1278 300.457 -24.5676C301.932 -20.2318 303.049 -15.7822 303.795 -11.2636L303.846 -10.948C304.111 -9.37029 304.701 -8.50507 306.269 -6.19443L306.421 -5.96032L306.666 -5.05438C305.342 -4.92206 304.202 -4.77954 303.368 -4.62686C303.178 -4.59561 303.007 -4.49382 302.889 -4.34184C302.771 -4.18986 302.714 -3.99891 302.731 -3.80721C302.748 -3.61551 302.836 -3.4372 302.979 -3.30796C303.122 -3.17872 303.308 -3.10808 303.5 -3.11019H303.643C304.498 -3.26287 305.678 -3.41556 307.063 -3.54788C307.814 -1.00722 308.359 1.59013 308.691 4.21871C308.71 4.41853 308.805 4.60347 308.957 4.73452C309.108 4.86556 309.305 4.93245 309.506 4.92106C309.606 4.91336 309.704 4.88588 309.794 4.84021C309.883 4.79453 309.963 4.73156 310.028 4.65493C310.094 4.5783 310.143 4.48952 310.174 4.39369C310.205 4.29786 310.216 4.19688 310.208 4.09657C309.847 1.26393 309.254 -1.53444 308.437 -4.27059L308.355 -4.57597C308.06 -5.59387 307.796 -6.61177 307.582 -7.55842C307.093 -9.59423 307.358 -10.3475 307.5 -10.4493C307.643 -10.5511 307.989 -10.5307 308.915 -9.96067C310.801 -8.62423 312.176 -6.68572 312.814 -4.464C312.875 -4.28078 312.936 -4.09755 312.997 -3.90415C313.783 -1.65665 315.17 0.332417 317.008 1.847C323.624 6.7431 326.464 12.5655 325.446 19.1513C325.43 19.251 325.434 19.3528 325.458 19.4509C325.482 19.549 325.524 19.6414 325.584 19.7228C325.644 19.8042 325.719 19.873 325.805 19.9252C325.892 19.9773 325.988 20.0118 326.087 20.0267H326.209C326.391 20.0266 326.566 19.9621 326.704 19.8446C326.842 19.7271 326.934 19.5644 326.963 19.3855C328.082 12.1889 325.039 5.86771 317.934 0.60516C316.467 -0.63693 315.327 -2.22036 314.616 -4.00595C316.234 -4.00595 317.781 -4.06701 319.125 -4.05684C320.204 -4.05684 321.161 -4.05683 321.914 -3.9754C322.116 -3.9754 322.311 -4.05584 322.454 -4.19901C322.597 -4.34218 322.677 -4.53635 322.677 -4.73883C322.677 -4.9413 322.597 -5.13549 322.454 -5.27866C322.311 -5.42183 322.116 -5.50225 321.914 -5.50225C321.222 -5.50225 320.387 -5.57351 319.461 -5.58369C320.281 -8.59947 320.739 -11.7022 320.825 -14.8262C320.825 -15.4268 320.825 -16.0375 320.825 -16.6483C320.825 -18.8368 320.886 -21.3205 321.558 -22.0941C321.592 -22.1412 321.638 -22.1795 321.69 -22.206C321.955 -22.206 322.81 -21.1881 323.196 -19.2847C323.734 -16.393 324.027 -13.4613 324.072 -10.5205C324.123 -8.56614 324.001 -6.52016 323.909 -5.02385C323.806 -4.16512 323.806 -3.29711 323.909 -2.43837C324.415 -0.459324 325.323 1.39442 326.576 3.00741L327.278 4.02531C329.385 7.19099 330.658 9.11483 331.35 13.4511C332.246 19.2633 329.538 22.4188 329.426 22.5511C329.34 22.6479 329.28 22.765 329.251 22.8914C329.223 23.0179 329.227 23.1495 329.263 23.2738C330.841 28.6891 338.607 38.9292 345.774 48.1106C352.614 56.8748 370.376 81.4164 374.041 88.9896C374.733 90.435 375.445 91.7583 376.076 92.9391C379.13 98.5681 380.148 100.97 376.392 103.841C375.68 104.609 375.068 105.464 374.57 106.386C369.364 114.607 363.43 122.344 356.838 129.502C349.876 137.065 340.083 146.806 332.225 154.543C327.899 158.818 324.174 162.513 322.046 164.722C318.694 168.28 315.538 172.018 312.59 175.918C312.112 171.776 311.898 168.457 312.397 166.279C312.423 166.18 312.43 166.077 312.416 165.975C312.402 165.874 312.367 165.776 312.315 165.688C312.262 165.6 312.192 165.523 312.11 165.463C312.027 165.402 311.933 165.359 311.833 165.336C311.733 165.313 311.629 165.31 311.528 165.328C311.427 165.345 311.331 165.383 311.245 165.439C311.159 165.494 311.085 165.567 311.027 165.652C310.97 165.737 310.93 165.832 310.91 165.933C310.157 169.18 310.798 174.147 311.684 181.008C312.091 184.123 312.529 187.533 312.895 191.248C306.971 181.15 297.861 170.177 283.875 156.202C284.767 153.242 285.098 150.142 284.852 147.061ZM282.104 98.3238C283.929 102.186 284.967 106.373 285.157 110.64C285.025 111.19 284.74 111.577 284.445 111.597C283.773 111.597 282.175 110.243 280.373 104.828C278.796 99.9321 279.518 97.2346 280.261 96.8885C280.638 96.746 281.33 97.1226 282.094 98.3238H282.104ZM274.429 93.4887C274.948 93.316 275.49 93.2267 276.037 93.2241C277.335 93.2344 278.581 93.7405 279.518 94.639C279.755 94.8646 279.979 95.1024 280.19 95.3515C280.007 95.3798 279.828 95.4347 279.661 95.5144C277.696 96.4407 277.411 100.472 278.969 105.307C280.628 110.396 282.501 113.134 284.414 113.134H284.516C284.697 113.123 284.875 113.085 285.045 113.022C285.005 113.226 284.964 113.409 284.923 113.572C284.702 114.467 284.255 115.29 283.624 115.962C282.993 116.634 282.199 117.133 281.32 117.409C280.271 117.718 279.146 117.634 278.154 117.175L278.012 117.104C277.622 116.904 277.263 116.65 276.943 116.351C276.677 116.098 276.439 115.818 276.23 115.516C273.798 112.188 271.039 103.749 270.856 99.1075C270.827 98.6009 270.851 98.0926 270.927 97.5909C271.086 96.656 271.494 95.7813 272.108 95.0592C272.723 94.3372 273.521 93.7945 274.419 93.4887H274.429ZM214.607 96.7053C215.091 92.7386 216.623 88.9724 219.045 85.7934C220.968 83.3679 223.364 81.3592 226.089 79.8896C234.161 75.4108 242.192 73.7822 249.317 75.2378C258.173 77.0191 265.461 83.3301 270.978 93.9671C270.147 94.912 269.59 96.0668 269.37 97.3059C269.37 97.3059 269.37 97.4077 269.37 97.4586C266.418 90.7608 259.995 80.7853 247.526 78.6375C228.389 75.3497 214.637 90.1195 217.457 106.121C218.118 109.838 219.085 113.495 220.348 117.053C219.642 117.113 218.952 117.299 218.312 117.603C215.073 111.145 213.785 103.883 214.607 96.7053ZM230.293 139.274C229.163 140.017 226.068 141.096 222.007 134.978C217.396 128.057 216.917 124.575 217.101 122.092C217.091 121.624 217.176 121.16 217.35 120.726C217.525 120.293 217.786 119.899 218.117 119.569C218.448 119.239 218.842 118.979 219.277 118.806C219.711 118.632 220.175 118.549 220.643 118.56C220.796 118.56 220.979 118.56 221.142 118.56C221.886 121.012 222.839 123.396 223.992 125.685C226.171 129.98 228.737 134.069 231.657 137.9C231.291 138.439 230.829 138.905 230.293 139.274ZM252.473 154.726C254.19 155.26 255.977 155.538 257.776 155.55C260.795 155.53 263.758 154.731 266.377 153.229C276.475 147.651 275.63 133.604 275.233 126.856C275.221 126.653 275.129 126.464 274.977 126.329C274.825 126.195 274.626 126.126 274.424 126.138C274.221 126.15 274.032 126.242 273.897 126.394C273.763 126.546 273.694 126.745 273.706 126.947C274.093 133.38 274.887 146.786 265.644 151.896C257.745 156.263 249.358 153.932 239.423 144.455C237.192 142.273 235.13 139.925 233.255 137.432L233.204 137.36C230.216 133.481 227.599 129.33 225.386 124.962C222.903 119.944 221.64 115.608 221.64 112.076C221.62 106.599 223.502 101.285 226.964 97.0412C227.585 99.9321 229.845 105.785 238.161 108.666C249.022 112.442 259.975 108.951 265.42 105.948C266.55 109.409 268.696 112.449 271.579 114.671C272.427 115.32 273.463 115.677 274.531 115.689C274.693 115.954 274.856 116.198 275.019 116.422C275.292 116.789 275.599 117.13 275.935 117.44C276.249 117.721 276.59 117.97 276.953 118.183C275.151 128.026 278.144 145.3 280.638 146.878C281.265 147.261 281.99 147.455 282.725 147.438C282.97 147.436 283.215 147.419 283.458 147.387C283.895 154.369 281.849 166.075 265.003 171.623C261.308 172.844 258.03 172.458 255.241 170.473C251.465 167.785 248.941 162.248 248.717 156.222C250.04 155.764 251.343 155.255 252.473 154.726ZM108.948 290.962C109.387 290.772 109.801 290.53 110.18 290.239C114.913 286.483 118.079 283.551 122.873 279.124C126.344 275.907 130.67 271.907 137.022 266.278C152.8 252.322 159.029 249.37 161.686 248.118L162.103 247.925C164.826 246.411 167.19 244.328 169.035 241.817C169.829 240.8 170.796 239.446 172.252 237.339C174.216 234.499 176.904 230.61 181.108 224.961C188.538 214.935 193.658 207.952 197.068 202.384C198.33 200.348 199.521 198.078 200.773 195.696C203.289 190.779 206.086 186.011 209.151 181.415C213.71 174.427 219.78 168.552 226.913 164.223C230.354 162.034 236.176 160.222 241.795 158.482C243.637 157.912 245.429 157.352 247.108 156.792C247.286 160.242 248.232 163.608 249.877 166.645L247.526 170.218C243.108 176.987 239.301 182.84 236.237 188.54C235.29 190.281 234.67 191.594 234.13 192.673C233.794 193.365 233.489 193.986 233.112 194.617C233.126 192.19 232.828 189.772 232.227 187.421C232.173 187.225 232.043 187.059 231.866 186.959C231.69 186.858 231.481 186.832 231.285 186.886C231.089 186.94 230.923 187.07 230.823 187.246C230.723 187.423 230.697 187.632 230.751 187.828C231.591 191.053 231.771 194.415 231.28 197.712C230.16 199.422 228.562 201.631 225.926 205.041C221.773 210.425 217.192 216.238 212.774 221.917C208.957 226.793 205.384 231.353 202.595 234.957C201.028 236.993 199.684 238.743 198.524 240.28C196.433 243.19 194.179 245.98 191.775 248.637C189.982 250.725 188.32 252.921 186.798 255.213C184.986 257.895 183.039 260.484 180.965 262.969C177.769 266.502 169.381 271.235 151.028 281.18L146.387 283.684C138.315 288.04 132.554 291.145 128.635 293.995L128.533 294.066C125.347 296.397 123.443 298.555 122.425 301.059V300.978C122.391 300.879 122.337 300.789 122.267 300.712C122.196 300.635 122.11 300.573 122.015 300.531C121.92 300.488 121.817 300.466 121.712 300.465C121.608 300.464 121.505 300.484 121.408 300.524C121.312 300.565 121.225 300.624 121.153 300.7C121.081 300.775 121.025 300.865 120.988 300.962C120.952 301.06 120.936 301.164 120.942 301.269C120.947 301.373 120.974 301.475 121.021 301.568C121.306 302.271 121.723 303.197 122.181 304.245C123.604 307.26 124.848 310.357 125.907 313.518C126.283 315.788 126.409 318.092 126.283 320.389C126.283 323.178 126.222 325.815 126.721 327.321C127.114 328.447 127.591 329.543 128.146 330.599C128.598 331.32 128.906 332.122 129.052 332.96C129.052 333.113 128.747 333.174 128.604 333.184C127.817 333.156 127.05 332.928 126.376 332.522C125.701 332.116 125.14 331.545 124.746 330.864C123.221 328.4 122.162 325.678 121.621 322.832C121.5 322.241 121.337 321.659 121.133 321.092C120.685 319.84 119.748 317.702 118.486 317.509L117.57 317.346C116.45 317.152 115.779 317.03 115.188 317.458C114.598 317.885 109.895 323.921 109.63 325.224C109.559 325.591 109.468 326.578 109.345 328.146L109.274 329.062C109.111 331.098 108.887 333.785 108.745 334.335C108.245 335.931 107.152 337.276 105.691 338.091C105.357 338.292 104.973 338.393 104.583 338.383C104.193 338.372 103.815 338.249 103.492 338.03C103.769 336.881 104.263 335.796 104.948 334.833C105.274 334.324 105.437 333.205 105.274 329.001V328.726V328.146C105.274 327.851 105.274 327.555 105.274 327.27V326.945C105.274 325.978 105.192 324.909 105.274 324.675C105.566 323.868 105.96 323.102 106.444 322.395C107.719 320.445 108.675 318.304 109.274 316.053C109.3 315.957 109.306 315.857 109.292 315.758C109.279 315.659 109.246 315.564 109.196 315.478C109.146 315.392 109.08 315.317 109 315.257C108.921 315.196 108.831 315.152 108.735 315.127C108.638 315.101 108.538 315.095 108.439 315.109C108.341 315.122 108.246 315.155 108.16 315.205C108.074 315.255 107.998 315.321 107.938 315.401C107.878 315.48 107.834 315.57 107.808 315.666C107.238 317.773 106.338 319.776 105.141 321.601C104.579 322.415 104.131 323.302 103.808 324.237C103.699 325.153 103.699 326.079 103.808 326.995V327.27C103.655 327.912 103.523 328.482 103.421 328.97L103.309 329.459C103.125 330.691 102.747 331.887 102.19 333.001L101.915 333.52C101.314 334.66 99.4819 338.121 98.861 338.498C97.8431 338.844 95.0846 339.221 94.3924 338.63C94.3489 338.599 94.3196 338.551 94.311 338.498C94.1888 337.989 94.993 336.676 95.9905 335.739C96.6114 335.149 97.6599 332.736 99.0442 328.614C99.6753 326.792 100.225 325.102 100.317 324.746C100.769 322.121 100.963 319.459 100.897 316.796C100.886 316.595 100.799 316.406 100.653 316.268C100.507 316.13 100.314 316.053 100.113 316.053C100.013 316.056 99.914 316.078 99.8224 316.119C99.7308 316.16 99.6481 316.218 99.5791 316.291C99.5101 316.364 99.4561 316.449 99.4202 316.543C99.3843 316.637 99.3673 316.737 99.37 316.837C99.4353 319.355 99.2615 321.874 98.8508 324.359C98.7796 324.644 98.2706 326.232 97.609 328.125C96.0211 332.777 95.166 334.426 94.9217 334.671C94.6774 334.915 92.8859 336.594 92.7536 338.213C92.1112 338.483 91.4069 338.571 90.7178 338.467C90.6793 338.457 90.6437 338.437 90.6138 338.411C90.5838 338.384 90.5602 338.351 90.5448 338.315C90.0358 337.103 91.6644 334.314 92.4584 332.971C92.7434 332.472 92.9775 332.085 93.0997 331.81C93.3643 331.21 93.9344 329.367 94.9421 325.835L95.1151 325.245C95.4103 324.227 95.6648 323.341 95.7971 322.924C95.9851 322.317 96.1146 321.693 96.1839 321.061C96.1839 320.664 96.2755 320.247 96.3163 319.799L96.4181 318.781C96.4181 318.364 96.5097 317.916 96.5809 317.448C96.5958 317.255 96.5371 317.064 96.4167 316.913C96.2962 316.762 96.123 316.662 95.932 316.634C95.741 316.605 95.5462 316.65 95.3871 316.76C95.228 316.869 95.1162 317.035 95.0744 317.224C95.0032 317.722 94.9523 318.242 94.9116 318.628L94.8098 319.646C94.8098 320.023 94.7385 320.369 94.6978 320.664C94.4026 321.092 93.6799 322.12 92.8452 323.392C92.0105 324.665 90.4735 326.894 89.3131 328.838C88.2952 330.599 87.0635 331.586 86.4528 331.617C86.4175 331.626 86.3804 331.622 86.3472 331.608C86.314 331.593 86.2867 331.567 86.2696 331.535C85.4044 330.375 87.3689 324.96 88.6311 323.107L88.9467 322.639C90.6437 320.249 92.1514 317.731 93.456 315.106C94.3517 313.223 98.0467 307.706 101.009 303.268C103.767 299.146 105.335 296.784 105.579 296.143C107.035 291.837 107.931 291.41 108.948 290.962ZM119.942 322.252C118.415 324.614 115.117 326.772 110.933 327.973C111.076 326.14 111.147 325.632 111.167 325.52C111.432 324.614 115.606 319.168 116.104 318.689C116.519 318.695 116.932 318.746 117.336 318.842L118.252 318.995C118.972 319.709 119.482 320.607 119.728 321.59C119.759 321.804 119.83 322.028 119.891 322.252H119.942ZM81.2615 338.936C81.186 338.866 81.1252 338.783 81.0827 338.689C81.0402 338.596 81.0169 338.495 81.0142 338.393C81.0115 338.291 81.0294 338.189 81.0669 338.093C81.1044 337.998 81.1607 337.911 81.2325 337.838C81.3042 337.765 81.3899 337.707 81.4845 337.668C81.5792 337.628 81.6807 337.609 81.7831 337.609C81.8856 337.61 81.9868 337.632 82.0808 337.672C82.1748 337.713 82.2597 337.772 82.3303 337.846C84.9361 340.391 90.9112 342.692 99.8687 341.521C99.9683 341.508 100.069 341.515 100.166 341.542C100.263 341.568 100.354 341.613 100.433 341.675C100.513 341.736 100.579 341.813 100.629 341.9C100.679 341.987 100.711 342.083 100.724 342.183C100.736 342.282 100.729 342.383 100.703 342.48C100.677 342.577 100.631 342.668 100.57 342.747C100.509 342.827 100.432 342.893 100.345 342.943C100.258 342.993 100.162 343.025 100.062 343.038C98.4693 343.248 96.8643 343.353 95.2576 343.353C88.3155 343.353 83.5518 341.226 81.2004 338.936H81.2615ZM94.9828 345.43C94.9912 345.632 94.9203 345.829 94.7852 345.979C94.6502 346.129 94.4617 346.221 94.2601 346.234H93.2422C89.6959 346.191 86.2092 345.316 83.0632 343.679C82.8866 343.585 82.753 343.427 82.6904 343.238C82.6277 343.048 82.641 342.841 82.7273 342.661C82.8205 342.484 82.9794 342.351 83.1697 342.29C83.36 342.229 83.5666 342.246 83.7452 342.335C86.9724 344.017 90.5828 344.828 94.2194 344.687C94.4068 344.704 94.5815 344.789 94.7108 344.926C94.8401 345.062 94.9151 345.242 94.9217 345.43H94.9828ZM51.5998 330.161H51.498C51.3557 330.212 51.2317 330.304 51.1418 330.426C51.0244 330.574 50.9441 330.749 50.9076 330.935C50.8466 331.159 50.755 331.515 49.4724 331.698C48.6479 331.82 48.3425 331.698 48.2611 331.596C48.1797 331.495 48.0982 331.291 48.0779 331.037C48.6466 330.644 49.2496 330.303 49.8796 330.019L50.5107 329.693C50.8975 329.53 54.5823 328.522 63.6009 326.202C71.1435 324.257 79.0221 322.262 79.3885 322.13C79.6049 322.121 79.8205 322.163 80.0182 322.251C80.216 322.339 80.3907 322.472 80.5286 322.639C80.8784 322.942 81.0973 323.369 81.1393 323.83C81.0884 324.033 80.4879 324.329 79.7652 324.502C79.3343 324.62 78.8885 324.674 78.4419 324.665C78.3299 324.665 78.2281 324.512 78.0347 324.186C77.8413 323.86 77.3324 322.985 76.3857 323.25C75.2762 323.545 68.7617 325.285 62.695 326.965C54.4907 329.235 52.2411 329.886 51.5388 330.131L51.5998 330.161ZM52.4549 333.948C51.6062 334.506 50.5978 334.771 49.5844 334.701C48.5071 334.832 47.4195 334.56 46.5307 333.938C46.2965 333.724 46.3067 333.317 46.3576 332.767C46.3576 332.594 46.3576 332.441 46.3576 332.299C46.3576 332.156 46.4391 332.126 46.6019 332.014C46.7173 332.344 46.9259 332.634 47.2025 332.848C47.6658 333.183 48.23 333.348 48.8006 333.317C49.063 333.315 49.3249 333.295 49.5844 333.256C51.0603 333.042 51.7118 332.543 52.0273 331.943C52.0989 331.988 52.1639 332.043 52.2207 332.105C52.3643 332.698 52.4225 333.308 52.3938 333.917L52.4549 333.948ZM80.7322 325.876L81.0477 327.586C81.0653 327.685 81.0631 327.786 81.0414 327.884C81.0197 327.982 80.9788 328.075 80.9211 328.158C80.8635 328.24 80.7901 328.31 80.7053 328.364C80.6204 328.418 80.5258 328.454 80.4268 328.471H80.2945C80.1153 328.47 79.9422 328.406 79.8048 328.291C79.6674 328.176 79.5742 328.017 79.5412 327.84L79.2359 326.202C79.7246 326.129 80.2052 326.01 80.6711 325.845L80.7322 325.876ZM102.841 288.926C103.492 289.119 105.029 289.567 107.249 290.178C106.231 290.901 105.304 292.214 104.042 295.471C103.889 295.848 102.576 297.863 101.08 300.103C82.0554 304.174 67.3671 314.119 63.6314 324.593L63.1428 324.715C50.3885 327.993 49.9101 328.248 49.7472 328.329L49.1263 328.655C48.199 329.012 47.359 329.564 46.663 330.273C46.1872 330.379 45.7574 330.633 45.4354 330.999C45.1134 331.365 44.9159 331.824 44.8715 332.309C44.8715 332.411 44.8715 332.533 44.8715 332.665C44.786 333.092 44.8023 333.533 44.9191 333.952C45.0358 334.371 45.2497 334.757 45.5433 335.078C46.616 335.902 47.9488 336.313 49.2994 336.238H49.6353C50.3376 336.238 53.8494 335.984 53.9715 334.1C54.0221 333.265 53.9396 332.427 53.7272 331.617C53.6743 331.458 53.5875 331.312 53.4728 331.189C54.8673 330.792 57.5444 330.039 62.7662 328.604C62.6507 329.844 62.709 331.095 62.9393 332.319C65.4637 345.623 87.5114 352.626 112.185 347.954C136.859 343.282 154.825 328.695 152.301 315.381C150.601 306.414 140.025 300.306 125.764 298.708C126.815 297.517 127.996 296.448 129.286 295.522C141.389 298.046 158.917 301.019 175.092 301.161C172.476 305.864 160.363 325.866 124.97 364.057C85.7606 358.591 49.6455 346.509 30.2544 332.38C37.9396 327.871 87.3994 299.197 102.841 288.926ZM132.36 306.414C132.376 306.315 132.412 306.221 132.464 306.136C132.517 306.051 132.586 305.978 132.668 305.92C132.749 305.862 132.842 305.821 132.939 305.799C133.036 305.777 133.137 305.775 133.236 305.793C139.109 306.811 144.188 310.882 144.565 314.954C144.585 315.155 144.524 315.356 144.396 315.512C144.268 315.668 144.084 315.768 143.883 315.788H143.801C143.612 315.789 143.429 315.718 143.289 315.59C143.15 315.461 143.064 315.285 143.048 315.096C142.763 312.154 138.651 308.327 132.981 307.319C132.879 307.304 132.782 307.267 132.695 307.213C132.608 307.158 132.533 307.086 132.475 307.001C132.416 306.916 132.376 306.82 132.357 306.719C132.337 306.618 132.338 306.514 132.36 306.414ZM407.581 364.342C367.658 373.503 277.493 388.925 189.149 388.925H187.836C119.759 388.813 70.319 377.066 32.2597 351.965C30.7125 346.03 29.8149 339.944 29.5826 333.815C49.4826 348.158 84.7224 359.945 124.451 365.503L124.573 367.081C124.59 367.256 124.665 367.421 124.787 367.548C124.909 367.676 125.07 367.758 125.245 367.783C151.499 370.878 177.91 372.462 204.346 372.526C235.525 372.526 261.573 370.155 285.992 367.528C286.186 367.505 286.365 367.41 286.491 367.26C286.618 367.111 286.683 366.92 286.674 366.724L286.613 365.605C296.293 364.454 386.255 353.573 410.227 342.773C409.749 349.155 408.212 360.566 407.611 364.342H407.581Z" fill="black"/>
<path d="M131.699 399.49C130.365 398.951 126.395 398.096 120.899 396.915C109.05 394.36 91.1557 390.513 80.8138 385.881C80.7218 385.838 80.6222 385.813 80.5207 385.809C80.4192 385.805 80.3178 385.821 80.2226 385.856C80.1273 385.892 80.0401 385.946 79.9661 386.015C79.892 386.085 79.8325 386.168 79.7912 386.261C79.7499 386.354 79.7275 386.454 79.7253 386.556C79.7232 386.657 79.7414 386.758 79.7788 386.853C79.8162 386.947 79.8721 387.033 79.9432 387.106C80.0143 387.179 80.0992 387.236 80.1929 387.276C90.6773 391.968 108.694 395.846 120.583 398.411C125.795 399.531 129.917 400.447 131.139 400.905C131.233 400.948 131.334 400.971 131.437 400.974C131.54 400.976 131.643 400.958 131.738 400.919C131.834 400.881 131.921 400.824 131.994 400.751C132.067 400.678 132.124 400.591 132.163 400.496C132.201 400.4 132.22 400.298 132.218 400.195C132.216 400.092 132.193 399.99 132.151 399.896C132.108 399.802 132.047 399.718 131.971 399.648C131.895 399.578 131.806 399.525 131.709 399.49H131.699Z" fill="black"/>
<path d="M99.8685 399.45L99.3392 399.348C97.0693 398.91 90.1781 397.567 85.0886 394.595C84.9144 394.491 84.7062 394.46 84.5095 394.51C84.3129 394.559 84.1441 394.685 84.0401 394.859C83.9362 395.033 83.9057 395.242 83.9553 395.438C84.005 395.635 84.1307 395.804 84.3048 395.908C89.5572 399.022 96.6723 400.397 99.0135 400.844L99.5224 400.946H99.6751C99.8606 400.941 100.038 400.869 100.174 400.742C100.309 400.616 100.395 400.445 100.413 400.26C100.432 400.076 100.383 399.89 100.275 399.74C100.167 399.589 100.008 399.482 99.8278 399.44L99.8685 399.45Z" fill="black"/>
<path d="M73.709 247.823C77.0274 250.164 81.8522 251.345 87.9596 251.345C92.4114 251.293 96.8458 250.782 101.192 249.818C111.371 247.671 121.988 242.988 133.256 238.021C143.649 233.44 154.398 228.707 165.106 225.918C165.207 225.896 165.301 225.853 165.385 225.794C165.468 225.734 165.539 225.658 165.592 225.57C165.646 225.483 165.681 225.385 165.696 225.284C165.711 225.182 165.705 225.079 165.679 224.979C165.653 224.88 165.607 224.787 165.544 224.706C165.482 224.625 165.403 224.557 165.314 224.507C165.224 224.457 165.125 224.425 165.023 224.414C164.921 224.403 164.818 224.412 164.72 224.442C153.889 227.262 143.079 232.025 132.635 236.657C121.438 241.584 110.883 246.246 100.877 248.363C89.0793 250.857 79.7553 250.236 74.6251 246.612C73.5608 245.914 72.6584 244.996 71.9789 243.919C71.2994 242.843 70.8584 241.633 70.6858 240.372C70.6725 240.273 70.6396 240.177 70.5892 240.09C70.5387 240.003 70.4716 239.927 70.3918 239.866C70.3119 239.805 70.2208 239.76 70.1236 239.734C70.0265 239.709 69.9253 239.702 69.8257 239.716C69.7261 239.729 69.6301 239.762 69.5433 239.812C69.4564 239.863 69.3803 239.93 69.3193 240.01C69.2583 240.09 69.2137 240.181 69.1879 240.278C69.1622 240.375 69.1558 240.476 69.1692 240.576C69.376 242.035 69.8869 243.433 70.669 244.682C71.4511 245.93 72.4868 247.001 73.709 247.823Z" fill="black"/>
<path d="M199.379 258.705C199.387 258.604 199.375 258.504 199.345 258.408C199.314 258.312 199.264 258.224 199.199 258.147C199.067 257.992 198.879 257.896 198.677 257.88C198.474 257.864 198.274 257.929 198.119 258.061C197.965 258.192 197.869 258.38 197.852 258.583C197.262 265.871 190.727 271.133 184.884 273.627C184.723 273.696 184.59 273.818 184.508 273.974C184.426 274.129 184.4 274.308 184.435 274.48C184.47 274.652 184.563 274.807 184.698 274.919C184.834 275.031 185.004 275.092 185.18 275.093C185.281 275.093 185.381 275.072 185.475 275.032C191.786 272.365 198.738 266.675 199.379 258.705Z" fill="black"/>
<path d="M200.621 265.759C200.427 265.698 200.218 265.717 200.039 265.81C199.859 265.904 199.725 266.064 199.664 266.257C198.646 269.545 196.121 272.253 191.979 274.543C191.882 274.586 191.796 274.649 191.725 274.727C191.654 274.805 191.599 274.897 191.566 274.997C191.532 275.097 191.52 275.203 191.529 275.308C191.538 275.413 191.57 275.516 191.62 275.608C191.671 275.701 191.741 275.782 191.825 275.846C191.908 275.91 192.004 275.956 192.107 275.982C192.21 276.007 192.316 276.011 192.42 275.993C192.524 275.974 192.623 275.935 192.711 275.877C197.221 273.393 199.969 270.39 201.119 266.715C201.18 266.522 201.161 266.313 201.068 266.134C200.974 265.954 200.813 265.819 200.621 265.759Z" fill="black"/>
<path d="M30.7229 301.721C30.7655 301.523 30.7287 301.316 30.6201 301.144C30.5116 300.973 30.3402 300.851 30.1427 300.805C29.5319 300.663 28.7685 301.07 26.5596 302.362C25.043 303.248 22.8239 304.551 21.7551 304.693C21.9692 303.404 22.3101 302.139 22.773 300.917C23.791 297.863 24.8089 294.738 23.6484 293.262C22.3252 291.512 19.3834 292.988 16.2788 294.555C14.3346 295.573 12.136 296.642 10.9654 296.54C10.9134 296.544 10.8612 296.534 10.8145 296.511C10.7679 296.488 10.7285 296.452 10.7007 296.408C10.1002 295.512 11.169 292.041 11.8815 289.74C12.4157 288.302 12.7579 286.8 12.8994 285.272C12.907 284.988 12.8473 284.706 12.7252 284.45C12.6032 284.193 12.4222 283.969 12.197 283.796C10.9247 282.839 8.3392 283.501 4.42027 284.498C3.2395 284.804 1.96714 285.129 0.643863 285.425C0.540718 285.441 0.442016 285.478 0.353881 285.534C0.265747 285.59 0.190053 285.664 0.131464 285.75C0.0728744 285.837 0.0326462 285.934 0.0132654 286.037C-0.00611539 286.139 -0.0042447 286.245 0.0187793 286.347C0.0418032 286.449 0.0854883 286.545 0.14712 286.629C0.208751 286.713 0.287027 286.784 0.377101 286.837C0.467176 286.89 0.567134 286.924 0.670795 286.936C0.774457 286.949 0.879605 286.94 0.979757 286.911C2.32339 286.605 3.60594 286.28 4.79689 285.974C7.51469 285.282 10.5888 284.498 11.2809 285.017C11.2809 285.017 11.3725 285.089 11.3827 285.313C11.1829 286.671 10.8417 288.005 10.3648 289.293C9.19423 293.079 8.4308 295.868 9.34691 297.263C9.50439 297.495 9.7128 297.688 9.95623 297.827C10.1997 297.967 10.4717 298.049 10.7516 298.067C12.3701 298.209 14.5586 297.049 16.859 295.919C18.8134 294.901 21.7755 293.446 22.3354 294.189C22.8952 294.932 21.918 298.26 21.2157 300.449C20.2894 303.309 19.8313 304.846 20.4115 305.711C20.5169 305.862 20.6549 305.987 20.8153 306.077C20.9757 306.167 21.1543 306.219 21.3378 306.23H21.4905C22.7934 306.23 24.7071 305.213 27.2518 303.686C28.0723 303.16 28.9335 302.7 29.8271 302.312C30.0235 302.345 30.2254 302.303 30.3918 302.194C30.5582 302.084 30.6766 301.915 30.7229 301.721Z" fill="black"/>
<path d="M190.808 355.476C190.879 355.486 190.951 355.486 191.022 355.476C191.187 355.476 191.348 355.423 191.48 355.324C191.612 355.224 191.709 355.085 191.755 354.927L196.234 339.79C197.638 339.638 199.104 337.979 199.847 335.546C200.59 333.113 200.316 330.782 199.155 329.917L203.797 314.221C203.855 314.026 203.833 313.817 203.737 313.638C203.64 313.46 203.477 313.327 203.283 313.269C203.088 313.211 202.879 313.232 202.7 313.329C202.522 313.425 202.389 313.589 202.331 313.783L197.649 329.601C196.315 329.876 194.951 331.484 194.239 333.815C193.856 334.965 193.731 336.185 193.872 337.388C193.944 338.112 194.264 338.788 194.778 339.302L190.289 354.489C190.255 354.588 190.241 354.692 190.249 354.797C190.257 354.901 190.286 355.003 190.334 355.095C190.383 355.188 190.45 355.269 190.532 355.335C190.613 355.401 190.707 355.449 190.808 355.476Z" fill="black"/>
<path d="M151.06 355.476C156.373 355.914 161.452 356.138 166.471 356.138C168.008 356.138 169.524 356.138 171.072 356.077C171.21 356.073 171.345 356.03 171.462 355.955C171.578 355.88 171.672 355.774 171.733 355.649C173.572 351.91 175.269 348.436 176.823 345.226C176.885 345.112 176.918 344.984 176.918 344.855C176.918 344.725 176.885 344.597 176.823 344.483C176.756 344.371 176.66 344.279 176.545 344.216C176.431 344.154 176.302 344.123 176.171 344.127C172.242 344.188 164.761 344.229 158.796 343.72C158.665 343.711 158.534 343.735 158.414 343.79C158.295 343.845 158.192 343.93 158.114 344.035C154.276 349.349 151.365 353.196 150.571 354.214C150.486 354.322 150.432 354.451 150.414 354.587C150.396 354.723 150.415 354.862 150.469 354.988C150.518 355.113 150.597 355.224 150.701 355.309C150.804 355.395 150.928 355.452 151.06 355.476ZM159.05 345.297C164.415 345.725 170.858 345.735 174.909 345.694C173.552 348.47 172.106 351.432 170.573 354.581C164.569 354.72 158.563 354.554 152.576 354.082C153.849 352.423 156.18 349.267 159.05 345.297Z" fill="black"/>
<path d="M161.31 341.511C165.381 341.826 170.053 341.908 173.759 341.908C175.377 341.908 176.812 341.908 177.942 341.908C178.085 341.905 178.225 341.863 178.345 341.785C178.465 341.708 178.562 341.599 178.624 341.47C179.998 338.569 181.23 335.912 182.34 333.48C182.394 333.363 182.418 333.235 182.409 333.107C182.401 332.978 182.359 332.854 182.289 332.747C182.223 332.634 182.127 332.542 182.012 332.481C181.897 332.42 181.767 332.392 181.637 332.401C178.492 332.451 172.405 332.492 166.928 332.146C166.795 332.134 166.661 332.16 166.54 332.219C166.42 332.278 166.319 332.369 166.246 332.482C164.536 334.976 162.684 337.622 160.75 340.33C160.672 340.442 160.624 340.572 160.612 340.707C160.599 340.843 160.622 340.98 160.679 341.104C160.74 341.22 160.83 341.319 160.941 341.39C161.051 341.462 161.178 341.503 161.31 341.511Z" fill="black"/>
<path d="M169.005 330.457C173.158 330.792 178.003 330.874 181.718 330.874H183.062C183.209 330.876 183.353 330.834 183.476 330.755C183.599 330.675 183.696 330.561 183.754 330.426C184.884 327.942 185.861 325.733 186.686 323.83C186.736 323.714 186.757 323.586 186.747 323.46C186.736 323.333 186.694 323.211 186.624 323.105C186.554 322.999 186.459 322.912 186.347 322.852C186.235 322.792 186.11 322.761 185.983 322.761C180.894 322.761 176.822 322.71 173.341 322.496C173.205 322.49 173.069 322.52 172.948 322.583C172.826 322.645 172.723 322.738 172.649 322.853C171.336 324.889 169.921 327.067 168.435 329.266C168.36 329.375 168.315 329.502 168.304 329.634C168.294 329.766 168.318 329.899 168.374 330.019C168.432 330.14 168.52 330.245 168.631 330.321C168.742 330.398 168.871 330.445 169.005 330.457ZM173.697 324.044C176.822 324.227 180.476 324.288 184.813 324.298C184.134 325.811 183.388 327.508 182.573 329.388C179.163 329.388 174.552 329.388 170.43 329.072C171.529 327.332 172.628 325.662 173.657 324.044H173.697Z" fill="black"/>
<path d="M175.214 320.787C178.756 320.98 182.41 321.021 185.077 321.021H187.327C187.476 321.02 187.621 320.975 187.744 320.891C187.867 320.808 187.963 320.69 188.019 320.552C189.831 316.287 190.625 314.15 190.625 314.129C190.67 314.016 190.686 313.894 190.672 313.773C190.657 313.652 190.613 313.537 190.543 313.437C190.476 313.337 190.385 313.254 190.279 313.196C190.172 313.137 190.054 313.105 189.933 313.101L178.939 312.806C178.798 312.807 178.66 312.846 178.539 312.917C178.417 312.989 178.317 313.091 178.247 313.213C177.229 315.096 176.028 317.285 174.583 319.636C174.516 319.75 174.48 319.88 174.48 320.013C174.48 320.145 174.516 320.275 174.583 320.39C174.647 320.503 174.738 320.599 174.848 320.668C174.958 320.737 175.084 320.778 175.214 320.787ZM179.397 314.333L188.833 314.587C188.457 315.534 187.815 317.173 186.798 319.484C184.446 319.484 180.497 319.484 176.537 319.321C177.647 317.509 178.593 315.84 179.397 314.333Z" fill="black"/>
<path d="M211.757 356.759C211.906 356.774 212.056 356.774 212.205 356.759C212.63 356.725 213.042 356.597 213.412 356.384C213.782 356.171 214.099 355.878 214.342 355.528C215.082 354.57 215.603 353.461 215.869 352.281C216.359 350.683 216.239 348.96 215.533 347.446C215.338 347.097 215.044 346.814 214.688 346.631L221.213 313.437C221.238 313.337 221.242 313.233 221.225 313.131C221.209 313.029 221.171 312.932 221.116 312.844C221.06 312.757 220.988 312.682 220.902 312.624C220.817 312.566 220.721 312.526 220.62 312.506C220.518 312.486 220.414 312.486 220.313 312.508C220.212 312.529 220.116 312.571 220.032 312.631C219.947 312.69 219.876 312.766 219.822 312.854C219.768 312.942 219.732 313.04 219.717 313.142L213.151 346.529C211.869 346.957 210.688 348.637 210.098 350.886C209.456 353.858 210.148 356.362 211.757 356.759ZM211.635 351.303C212.154 349.176 213.253 347.995 213.894 347.995C214.038 348.051 214.155 348.161 214.22 348.301C214.504 348.868 214.637 349.499 214.607 350.133C214.601 350.751 214.523 351.366 214.373 351.965C214.16 352.924 213.743 353.827 213.151 354.612C212.764 355.08 212.357 355.334 212.133 355.273C211.594 355.141 211.126 353.441 211.655 351.303H211.635Z" fill="black"/>
<path d="M234.395 329.011L233.133 354.703C233.127 354.803 233.142 354.904 233.175 354.998C233.208 355.093 233.26 355.18 233.327 355.255C233.394 355.33 233.476 355.39 233.566 355.434C233.657 355.477 233.755 355.502 233.855 355.507C234.051 355.507 234.239 355.433 234.381 355.298C234.523 355.164 234.608 354.98 234.619 354.784L235.881 328.848C237.062 328.217 237.978 326.405 238.182 324.084C238.395 321.519 237.652 319.402 236.38 318.771L236.685 312.48C236.691 312.38 236.676 312.28 236.643 312.185C236.61 312.09 236.558 312.003 236.491 311.928C236.424 311.854 236.342 311.793 236.252 311.75C236.161 311.706 236.063 311.681 235.963 311.676C235.761 311.67 235.566 311.742 235.416 311.877C235.266 312.011 235.174 312.198 235.158 312.399L234.853 318.71C233.56 319.199 232.542 321.112 232.329 323.575C232.196 324.782 232.336 326.003 232.736 327.148C232.854 327.564 233.064 327.947 233.352 328.27C233.639 328.593 233.996 328.846 234.395 329.011Z" fill="black"/>
<path d="M250.651 332.065L251.374 354.225C251.379 354.424 251.462 354.613 251.604 354.752C251.747 354.89 251.938 354.968 252.137 354.968C252.237 354.965 252.336 354.943 252.428 354.902C252.519 354.861 252.602 354.803 252.671 354.73C252.74 354.657 252.794 354.572 252.83 354.478C252.866 354.384 252.883 354.284 252.88 354.184L252.157 331.943C253.379 331.312 254.193 329.347 254.193 326.853C254.193 324.187 253.175 322.11 251.811 321.672L251.486 311.493C251.48 311.294 251.398 311.105 251.255 310.967C251.112 310.828 250.921 310.75 250.722 310.75C250.622 310.753 250.523 310.775 250.432 310.816C250.34 310.857 250.257 310.915 250.188 310.988C250.119 311.061 250.065 311.147 250.029 311.24C249.994 311.334 249.976 311.434 249.979 311.534L250.315 321.866C249.144 322.548 248.34 324.472 248.34 326.864C248.401 329.469 249.297 331.526 250.651 332.065Z" fill="black"/>
<path d="M263.497 336.472C263.813 339.058 264.993 340.971 266.418 341.317L267.884 353.227C267.907 353.411 267.995 353.581 268.134 353.705C268.273 353.829 268.452 353.898 268.637 353.899H268.76C268.859 353.886 268.955 353.854 269.043 353.804C269.13 353.754 269.206 353.688 269.268 353.608C269.329 353.529 269.375 353.438 269.401 353.341C269.427 353.244 269.434 353.143 269.421 353.044L267.935 341.012C269.055 340.228 269.645 338.172 269.35 335.77C269.055 333.368 267.986 331.464 266.693 330.986L264.037 309.457C264.012 309.256 263.909 309.073 263.75 308.948C263.59 308.823 263.388 308.766 263.187 308.79C262.985 308.815 262.802 308.918 262.677 309.077C262.552 309.237 262.496 309.439 262.52 309.64L265.166 331.077C263.894 331.749 263.202 333.887 263.497 336.472ZM265.889 332.401H266.011C266.581 332.401 267.569 333.785 267.823 335.963C268.078 338.142 267.457 339.709 266.907 339.841C266.357 339.913 265.329 338.528 265.054 336.289C264.78 334.05 265.421 332.462 265.889 332.401Z" fill="black"/>
<path d="M374.845 201.285C374.722 201.124 374.541 201.019 374.34 200.993C374.14 200.966 373.937 201.02 373.777 201.142C371.295 202.964 368.398 204.136 365.348 204.552C365.158 204.57 364.982 204.658 364.854 204.8C364.726 204.941 364.655 205.125 364.656 205.316C364.656 205.519 365.002 210.405 365.246 213.774C364.394 213.692 363.534 213.79 362.722 214.062C361.91 214.334 361.165 214.774 360.534 215.352C358.203 217.184 357.266 219.587 358.335 220.961C358.574 221.241 358.876 221.461 359.215 221.604C359.554 221.747 359.922 221.809 360.289 221.785C361.768 221.686 363.175 221.111 364.3 220.147C365.016 219.663 365.621 219.032 366.076 218.297C366.53 217.562 366.824 216.738 366.936 215.882C366.95 215.76 366.95 215.637 366.936 215.515V215.454C366.804 213.601 366.641 211.311 366.499 209.347C369.382 208.992 372.13 207.918 374.489 206.222C374.569 206.16 374.635 206.084 374.685 205.996C374.735 205.909 374.767 205.813 374.78 205.713C374.793 205.613 374.786 205.512 374.76 205.415C374.733 205.318 374.688 205.227 374.626 205.148C374.565 205.068 374.488 205.002 374.401 204.952C374.314 204.902 374.218 204.869 374.118 204.857C374.018 204.844 373.917 204.851 373.82 204.877C373.723 204.904 373.632 204.949 373.553 205.01C371.446 206.52 368.998 207.485 366.427 207.82C366.376 207.056 366.326 206.415 366.295 205.977C369.367 205.458 372.272 204.22 374.774 202.364C374.85 202.298 374.912 202.217 374.956 202.127C375.001 202.037 375.027 201.939 375.034 201.839C375.04 201.739 375.027 201.638 374.995 201.543C374.962 201.448 374.912 201.36 374.845 201.285Z" fill="black"/>
<path d="M60.3236 221.846C58.7027 222.591 57.3771 223.856 56.5573 225.44C55.8272 226.653 55.3882 228.019 55.2748 229.43C55.1722 230.008 55.2386 230.604 55.4661 231.146C55.6936 231.687 56.0725 232.152 56.5573 232.484C56.914 232.686 57.3177 232.791 57.7279 232.789C58.4591 232.751 59.1648 232.508 59.7637 232.087C60.9248 231.301 61.8868 230.255 62.5731 229.033C63.3642 227.749 63.8128 226.284 63.8761 224.778C63.9225 223.95 63.6533 223.135 63.1228 222.498C63.0951 222.452 63.0608 222.411 63.021 222.376L62.9192 222.284L51.8139 212.187C54.0483 211.974 56.1954 211.211 58.0638 209.967C61.0463 208.288 63.2042 207.066 66.6346 210.639C66.7775 210.744 66.9523 210.795 67.1289 210.785C67.3055 210.774 67.4731 210.703 67.603 210.583C67.7328 210.462 67.8168 210.301 67.8407 210.125C67.8646 209.95 67.8268 209.772 67.7339 209.621C63.4893 205.194 60.3541 206.965 57.3208 208.675C55.1119 209.917 52.8318 211.199 49.7781 210.507C49.6129 210.468 49.4395 210.486 49.2853 210.557C49.1312 210.628 49.005 210.748 48.9268 210.898C48.8486 211.049 48.8228 211.221 48.8534 211.388C48.8841 211.555 48.9695 211.707 49.0961 211.82L60.3236 221.846Z" fill="black"/>
<path d="M285.046 65.853C285.323 65.8491 285.598 65.8219 285.87 65.7716C287.042 65.5069 288.136 64.9738 289.067 64.2142C290.411 63.2845 291.347 61.8745 291.683 60.2749C291.683 60.2749 292.263 54.2489 292.701 49.8516H293.423C296.19 49.8442 298.938 49.4011 301.567 48.5385L301.679 54.6459C301.146 54.5225 300.592 54.5225 300.06 54.6459C298.884 54.9062 297.785 55.4397 296.854 56.2033C294.533 58.0355 293.586 60.4378 294.655 61.8119C294.896 62.0898 295.197 62.3086 295.536 62.4516C295.875 62.5945 296.242 62.6578 296.609 62.6364C298.089 62.5406 299.497 61.9653 300.62 60.9976C302.411 59.5929 303.368 57.8523 303.246 56.4985L302.992 43.4591C302.983 43.3818 302.963 43.3062 302.931 43.2352C302.934 43.1912 302.934 43.1469 302.931 43.1029C302.89 43.0457 302.842 42.9943 302.788 42.9502C302.752 42.9047 302.711 42.8637 302.666 42.8281C302.556 42.7697 302.434 42.735 302.31 42.7263C302.229 42.7337 302.15 42.7543 302.076 42.7873C302.035 42.7839 301.994 42.7839 301.953 42.7873C300.574 43.5058 299.105 44.0397 297.587 44.3753C295.946 44.7491 294.271 44.947 292.589 44.9656H292.426C292.358 44.9559 292.29 44.9559 292.222 44.9656C292.082 45.0068 291.957 45.0872 291.862 45.1972C291.766 45.3073 291.704 45.4424 291.683 45.5866C291.683 45.5866 291.683 45.5866 291.683 45.6578C291.683 45.7291 291.54 47.0829 291.326 48.9762C291.021 51.8365 290.644 55.6129 290.421 57.9643C289.822 57.7534 289.177 57.7146 288.558 57.8523C287.383 58.1209 286.285 58.6574 285.351 59.4198C283.02 61.2419 282.084 63.6543 283.153 65.0183C283.384 65.292 283.675 65.5094 284.003 65.654C284.331 65.7987 284.688 65.8667 285.046 65.853Z" fill="black"/>
<path d="M250.569 136.892C250.54 136.796 250.492 136.706 250.428 136.628C250.364 136.55 250.285 136.486 250.196 136.439C250.108 136.391 250.01 136.362 249.91 136.353C249.81 136.343 249.708 136.354 249.612 136.383C249.612 136.383 248.727 136.648 247.016 137.401C246.67 137.579 246.286 137.672 245.897 137.672C245.507 137.672 245.124 137.579 244.777 137.401C243.759 136.811 243.006 135.101 242.65 132.464C241.744 125.797 241.113 122.072 237.743 116.921C237.085 115.763 236.138 114.796 234.994 114.113C233.851 113.429 232.55 113.054 231.219 113.022C228.43 113.022 225.773 114.702 223.941 117.593C223.887 117.678 223.851 117.772 223.834 117.871C223.817 117.97 223.82 118.071 223.842 118.169C223.864 118.267 223.905 118.359 223.963 118.441C224.021 118.523 224.095 118.593 224.18 118.646C224.265 118.7 224.359 118.736 224.458 118.753C224.557 118.77 224.658 118.767 224.756 118.745C224.854 118.723 224.946 118.681 225.028 118.624C225.11 118.566 225.18 118.492 225.233 118.407C225.835 117.318 226.698 116.395 227.744 115.722C228.791 115.048 229.988 114.645 231.229 114.549C232.297 114.599 233.334 114.919 234.244 115.48C235.154 116.041 235.906 116.824 236.43 117.756C239.616 122.631 240.227 126.214 241.102 132.668C241.54 135.874 242.477 137.859 243.973 138.775C244.499 139.079 245.096 139.238 245.703 139.233C246.342 139.22 246.971 139.081 247.556 138.826C249.195 138.154 250.009 137.9 250.019 137.9C250.125 137.876 250.225 137.83 250.312 137.765C250.399 137.699 250.47 137.616 250.522 137.521C250.574 137.425 250.605 137.32 250.614 137.211C250.622 137.103 250.606 136.994 250.569 136.892Z" fill="black"/>
<path d="M238.303 124.606C238.203 124.611 238.105 124.636 238.014 124.68C237.924 124.723 237.842 124.784 237.775 124.858C237.708 124.933 237.656 125.02 237.623 125.115C237.59 125.21 237.575 125.31 237.581 125.41C237.636 125.883 237.58 126.362 237.418 126.809C237.255 127.256 236.99 127.659 236.644 127.986C235.999 128.449 235.262 128.77 234.482 128.926C233.703 129.082 232.899 129.071 232.125 128.892C231.934 128.88 231.745 128.942 231.597 129.063C231.449 129.184 231.352 129.357 231.325 129.546C231.298 129.736 231.343 129.929 231.452 130.087C231.56 130.244 231.724 130.355 231.911 130.398C232.42 130.472 232.934 130.509 233.448 130.51C234.981 130.587 236.487 130.09 237.672 129.115C238.183 128.636 238.577 128.047 238.826 127.393C239.074 126.739 239.171 126.036 239.108 125.339C239.097 125.136 239.007 124.945 238.856 124.807C238.706 124.67 238.507 124.598 238.303 124.606Z" fill="black"/>
<path d="M252.992 121.023C253.89 121.026 254.776 120.817 255.578 120.413C256.577 119.886 257.41 119.092 257.985 118.12C258.56 117.148 258.854 116.035 258.835 114.906C258.835 114.703 258.755 114.509 258.611 114.366C258.468 114.223 258.274 114.142 258.072 114.142C257.869 114.142 257.675 114.223 257.532 114.366C257.389 114.509 257.308 114.703 257.308 114.906C257.33 115.752 257.116 116.588 256.69 117.32C256.264 118.051 255.643 118.65 254.896 119.049C254.057 119.432 253.126 119.569 252.212 119.443C251.298 119.317 250.439 118.933 249.735 118.336C249.572 118.216 249.367 118.166 249.167 118.196C248.966 118.227 248.786 118.336 248.666 118.499C248.546 118.662 248.496 118.867 248.526 119.067C248.557 119.267 248.666 119.448 248.829 119.568C250.026 120.485 251.485 120.995 252.992 121.023Z" fill="black"/>
<path d="M261.267 131.66C261.096 131.657 260.929 131.711 260.792 131.815C260.655 131.918 260.558 132.064 260.514 132.23C260.184 133.746 259.549 135.18 258.648 136.443C257.747 137.706 256.598 138.774 255.272 139.579C254.367 140.132 253.361 140.501 252.314 140.666C251.266 140.83 250.196 140.786 249.165 140.536C249.017 140.51 248.865 140.529 248.727 140.589C248.59 140.649 248.473 140.748 248.392 140.874C248.31 141 248.268 141.147 248.269 141.297C248.271 141.447 248.317 141.593 248.401 141.717C248.605 141.982 252.707 147.214 257.379 147.214C258.312 147.216 259.232 147 260.066 146.583C264.504 144.394 262.275 133.472 262.011 132.23C261.966 132.067 261.869 131.923 261.735 131.82C261.601 131.717 261.437 131.661 261.267 131.66ZM259.384 145.249C256.239 146.796 252.799 144.119 250.956 142.297C252.747 142.299 254.505 141.817 256.046 140.903C258.225 139.623 259.953 137.699 260.993 135.396C261.502 139.437 261.42 144.241 259.384 145.249Z" fill="black"/>
<path d="M264.535 117.277C265.17 117.277 265.685 116.762 265.685 116.127C265.685 115.492 265.17 114.977 264.535 114.977C263.9 114.977 263.385 115.492 263.385 116.127C263.385 116.762 263.9 117.277 264.535 117.277Z" fill="black"/>
</svg>
