<svg width="358" height="408" viewBox="0 0 358 408" fill="none" xmlns="http://www.w3.org/2000/svg">
<path d="M328.266 142.488C320.201 138.866 317.782 139.178 304.335 140.912C301.687 141.253 298.604 141.651 294.935 142.124C293.827 140.308 289.826 133.948 286.282 131.049C286.176 130.96 286.049 130.898 285.913 130.869C285.778 130.84 285.637 130.844 285.503 130.881L283.606 131.441C283.588 131.303 283.57 131.165 283.549 131.005C283.033 125.975 282.649 121.697 282.396 118.171C288.287 106.189 296.537 90.4525 298.906 88.7603C300.591 87.5524 302.776 87.7719 305.303 88.0288C306.26 88.1269 307.262 88.2191 308.304 88.2596L308.614 88.2196C310.955 88.3024 313.693 88.3807 315.538 86.6045C316.855 85.3392 317.505 83.3324 317.539 80.5195C317.575 77.6733 316.748 74.8829 315.167 72.5159C314.165 70.8037 313.553 69.7638 314.255 67.9718C314.688 66.9021 316.174 65.953 317.745 64.9463C320.567 63.1491 324.077 60.9019 323.804 56.4385C323.457 50.7611 317.866 49.792 313.372 49.0079C310.462 48.4973 307.709 48.0248 307.222 46.5027C306.485 44.4066 307.231 42.5974 308.022 40.689C308.813 38.7806 309.812 36.4958 308.949 33.8684C307.921 30.5047 303.338 29.7553 298.905 28.9982C294.733 28.2774 290.419 27.5399 289.438 24.9044C288.667 22.6654 288.273 20.3138 288.273 17.9456C288.128 14.5613 287.997 11.6414 284.049 9.31834C278.121 5.81727 272.065 8.47426 267.21 10.5919C263.392 12.2496 260.094 13.7002 257.938 11.8921C256.677 10.6691 255.589 9.28038 254.702 7.76415C252.281 4.07895 249.518 -0.0866336 243.832 1.00767C239.911 1.78119 239.121 5.60063 238.536 8.37989C238.42 9.21477 238.187 10.0293 237.845 10.7997C237.374 11.2534 236.755 11.5233 236.102 11.5605C234.165 11.9368 232.158 11.6225 230.428 10.672C229.653 9.91126 228.986 9.04855 228.443 8.1077C226.356 4.93876 223.2 0.159647 217.319 2.54929C215.334 3.35272 213.573 4.62467 212.186 6.25651C210.8 7.88836 209.828 9.8316 209.356 11.9203C208.727 14.6352 209.046 17.2045 210.2 18.466C211.403 19.7336 212.792 20.812 214.318 21.6644C216.43 22.9537 217.128 23.4814 216.583 24.9502C216.038 26.4189 213.933 27.541 211.724 28.6649C208.731 30.2162 205.327 31.9253 204.358 35.4415C204.118 36.0405 204.063 36.6977 204.201 37.3282C204.338 37.9587 204.661 38.5335 205.129 38.9783C207.346 40.8951 213.28 39.8271 222.756 35.7734L223.619 35.4174C219.06 40.4571 214.068 46.0304 209.36 51.3688C209.597 49.9126 209.284 48.4204 208.482 47.1816C208.133 46.7409 207.679 46.3939 207.162 46.1717C206.646 45.9495 206.082 45.859 205.521 45.9085C201.39 46.0449 194.447 51.5783 190.727 59.6097C188.392 64.6422 187.874 68.485 189.21 70.7135C189.656 71.4435 190.335 72.0009 191.139 72.2945C190.555 73.0108 190.128 73.497 189.926 73.8261C189.363 74.4623 188.943 75.2117 188.694 76.0237C188.445 76.8357 188.373 77.6917 188.482 78.534C188.938 80.8061 191.214 82.1908 193.046 83.2948L193.995 83.8718C195.152 84.62 195.448 85.1063 195.494 85.3799C195.562 85.9073 194.877 86.7414 194.07 87.708L193.254 88.6989C192.198 90.0004 191.267 91.3674 191.574 92.8429C191.81 94.0477 192.85 95.1491 194.869 96.3455C195.758 103.969 194.289 113.459 191.251 119.724C188.229 120.685 188.799 123.478 189.317 125.963C189.747 127.682 189.858 129.465 189.646 131.224C189.307 133.482 188.868 141.009 197.044 143.416C200.242 144.355 207.371 144.415 215.074 143.422C217.218 143.146 219.407 142.77 221.574 142.316C222.445 146.178 223.236 150.959 223.893 155.513C220.478 158.488 216.645 160.946 212.515 162.806C211.333 163.254 210.234 163.896 209.264 164.706C208.253 165.908 208.483 172.754 209.154 178.134C207.941 180.463 207.014 182.93 206.395 185.482C198.944 178.762 191.837 171.999 189.131 168.548C183.811 161.872 178.897 154.882 174.417 147.615C172.699 144.771 168.849 137.96 165.193 131.474C165.563 131.257 165.921 131.02 166.267 130.765C168.207 131.601 170.333 131.913 172.432 131.671C174.408 131.401 176.283 130.63 177.877 129.431C180.017 127.789 181.696 125.621 182.752 123.139C183.808 120.657 184.206 117.944 183.905 115.263C183.251 110.185 180.042 106.182 174.788 104.027C173.014 103.35 171.115 103.065 169.22 103.19C167.325 103.316 165.48 103.85 163.811 104.755C162.296 105.48 160.941 106.499 159.822 107.751C158.703 109.003 157.844 110.465 157.293 112.051L154.362 113C151.598 109.639 148.216 107.814 145.705 108.499C144.556 108.845 143.548 109.551 142.83 110.513C142.553 110.946 142.172 111.302 141.72 111.548C141.269 111.794 140.763 111.921 140.249 111.918C139.666 111.88 139.089 111.775 138.53 111.603C136.663 111.133 134.109 110.483 131.503 112.509C130.681 113.149 129.927 113.871 129.252 114.664C128.327 115.716 127.94 116.15 125.318 116.243C124.573 116.245 123.837 116.415 123.166 116.742C122.496 117.069 121.908 117.543 121.448 118.129C121.069 118.605 120.6 119.002 120.068 119.296C119.536 119.591 118.952 119.778 118.347 119.846L117.098 120.007C114.022 120.462 113.4 120.612 109.716 122.951C104.943 125.979 101.52 128.262 100.94 130.003C100.647 131.182 100.626 132.412 100.88 133.6C98.7582 134.41 96.509 135.224 94.3985 135.939C86.9489 138.45 86.536 140.309 87.3539 144.574C87.3834 144.803 87.41 145.01 87.5198 145.229C78.4537 146.636 70.103 150.989 63.7574 157.615C57.3563 164.372 54.9432 170.604 54.808 175.702C43.0724 179.138 31.2596 191.919 28.7568 212.462C28.7295 212.689 28.7935 212.918 28.9347 213.099C29.0759 213.279 29.2829 213.397 29.5103 213.425L29.7281 213.397C29.9192 213.373 30.0971 213.287 30.2337 213.151C30.3702 213.015 30.4576 212.838 30.4822 212.647C32.8684 193.099 43.8691 180.889 54.8836 177.464C55.0882 179.961 55.9731 182.354 57.4421 184.383C60.4946 188.535 65.5195 189.996 69.6621 187.959C74.9322 185.357 74.6744 182.092 74.3111 180.81C73.3197 177.278 67.8724 174.077 59.355 174.813C58.4212 174.895 57.4934 175.034 56.5767 175.23C56.8099 170.62 59.1708 164.978 65.0378 158.779C71.225 152.403 79.3361 148.237 88.1228 146.922C88.4945 147.907 89.1236 148.774 89.9444 149.433C90.7652 150.091 91.7477 150.518 92.7894 150.668C93.8477 150.741 99.4132 149.254 110.939 146.09C113.374 148.434 116.902 149.587 119.18 148.722C119.641 148.555 120.064 148.294 120.421 147.958C120.779 147.621 121.063 147.215 121.258 146.764C121.871 147.282 122.583 147.669 123.351 147.903C124.118 148.136 124.925 148.211 125.722 148.124C126.07 148.08 126.411 147.993 126.738 147.864C127.354 147.624 127.878 147.193 128.234 146.634L129.111 148.281C132.403 154.476 135.806 160.89 140.906 163.659C144.501 165.692 148.389 167.156 152.432 168C154.755 171.411 156.832 174.983 158.647 178.69C159.046 179.617 159.826 181.603 160.887 184.228C163.745 191.388 168.483 203.282 172.688 212.483C172.425 213.612 172.197 214.644 171.99 215.568C171.018 219.959 170.508 222.157 169.041 223.791C166.761 226.265 165.595 229.154 165.897 231.492C165.945 231.87 165.99 232.214 166.033 232.547C166.301 234.086 166.528 235.303 165.15 239.35C164.06 242.477 163.203 245.68 162.586 248.934L162.205 250.953C161.555 254.404 156.497 273.482 155.075 277.814C154.616 279.225 153.111 283.102 151.374 287.614C150.324 290.325 149.327 292.889 148.42 295.256C146.224 301.004 144.538 305.557 143.822 308.05C143.513 308.853 143.384 309.714 143.447 310.573C143.509 311.431 143.76 312.265 144.183 313.015C145.932 316.099 150.315 317.55 152.126 318.039C151.684 321.265 151.045 324.461 150.213 327.609C147.431 326.577 144.293 325.595 140.801 324.662C136.118 323.413 127.6 321.702 119.405 320.055C113.087 318.783 107.13 317.593 103.2 316.667C93.1021 314.256 83.3399 310.61 74.1336 305.811C64.3075 300.645 58.6896 295.216 57.3098 292.83C56.2028 290.933 56.0332 289.708 55.5647 286.435C55.4258 285.358 55.2588 284.062 54.9617 282.481C53.8693 275.816 50.8333 273.69 47.3187 271.288C46.7567 270.906 46.1802 270.502 45.5878 270.066C41.8699 267.352 40.3566 265.647 39.0392 260.852C38.7162 259.524 38.0408 258.308 37.0842 257.332C36.1277 256.356 34.9254 255.656 33.6043 255.306C32.5109 255.074 31.3742 255.15 30.3216 255.526C29.2689 255.903 28.3419 256.565 27.6442 257.438C26.9836 258.202 26.4112 259.039 25.9378 259.931C24.6436 258.932 22.263 257.643 19.971 258.847C17.1382 260.378 14.9052 263.125 13.2801 265.164C12.7605 265.845 12.2071 266.5 11.6217 267.126C10.2127 268.7 8.94139 270.392 7.82197 272.184C6.84113 273.616 5.75489 275.224 4.38018 277.126C0.929155 281.906 -0.379855 284.86 1.50156 288.697C2.73711 291.23 6.6074 293.679 11.4993 296.731C13.4539 297.971 15.4831 299.248 17.5789 300.679C22.6143 304.12 27.5416 308.17 31.8248 311.744C33.755 313.336 35.593 314.847 37.3316 316.22C39.6059 317.836 41.6642 319.736 43.4565 321.875C44.0052 322.515 44.6389 323.272 45.6006 324.314C47.3998 326.277 49.8622 327.504 52.5127 327.758C52.9235 327.796 53.3275 327.889 53.7137 328.034C59.0431 331.496 63.8925 334.67 68.2922 337.611C84.9566 348.632 95.9636 355.907 108.916 361.369C119.76 366.198 130.877 370.387 142.21 373.917C144.549 374.484 146.815 375.318 148.963 376.403C154.607 379.859 160.121 381.596 163.675 381.137C164.495 381.058 165.283 380.781 165.972 380.329C167.037 379.55 168.833 378.48 171.06 377.132C173.287 375.784 176.292 373.964 179.346 371.973C179.494 387.314 178.049 395.274 178.026 395.37C177.986 395.576 178.022 395.789 178.126 395.97C178.231 396.152 178.398 396.289 178.597 396.357C191.3 400.369 204.301 403.37 217.478 405.329L217.65 405.307C228.134 406.961 238.729 407.824 249.343 407.887C257.462 407.923 265.575 407.45 273.634 406.469C293.936 403.852 305.629 397.823 320.347 390.226C339.602 380.297 356.698 372.336 356.874 372.255C356.98 372.203 357.075 372.129 357.152 372.038C357.229 371.948 357.287 371.842 357.321 371.729C357.356 371.615 357.367 371.495 357.353 371.377C357.339 371.259 357.301 371.145 357.242 371.042C351.35 361.908 346.292 352.263 342.129 342.224C338.597 333.703 336.172 324.764 334.912 315.627C329.576 274.232 337.111 242.284 342.542 218.963C343.075 216.704 343.569 214.511 344.025 212.386C344.774 210.898 345.468 209.41 346.107 207.922L346.161 207.798C351.451 196.011 353.215 182.945 351.24 170.177C349.232 157.768 341.504 148.532 328.266 142.488ZM59.5504 176.781C67.0416 176.13 71.9044 178.685 72.6895 181.52C73.2055 183.353 71.8378 185.219 68.9474 186.664C65.5718 188.323 61.4481 187.072 58.8929 183.613C57.5522 181.754 56.7708 179.55 56.6405 177.261C57.6041 177.044 58.5818 176.894 59.5663 176.814L59.5504 176.781ZM293.349 142.922C291.522 144.393 285.232 149.388 272.652 158.573C269.905 157.063 265.203 153.403 258.612 147.564L258.125 147.137C256.208 145.461 253.267 147.961 250.423 150.671C245.711 155.159 241.612 158.076 238.229 159.41C237.206 158.566 235.903 158.139 234.579 158.214C234.351 158.243 234.144 158.362 234.003 158.544C233.863 158.726 233.8 158.957 233.83 159.185C233.859 159.413 233.978 159.62 234.16 159.76C234.342 159.9 234.572 159.963 234.8 159.933C235.802 159.91 236.774 160.278 237.508 160.96C237.569 161.023 237.639 161.077 237.715 161.119C241.469 164.202 245.7 172.432 247.767 176.442C248.452 177.776 248.996 178.836 249.315 179.413C249.452 179.679 249.652 179.908 249.898 180.079C250.143 180.251 250.427 180.36 250.724 180.396C251.028 180.398 251.329 180.337 251.609 180.216C251.888 180.096 252.139 179.92 252.347 179.698C251.765 184.224 250.682 193.268 250.963 198.523C246.287 202.389 243.085 204.759 243.021 204.803C242.906 204.886 242.813 204.997 242.752 205.125C242.69 205.253 242.661 205.395 242.666 205.537C242.672 205.679 242.712 205.817 242.784 205.94C242.856 206.063 242.957 206.166 243.078 206.24C243.078 206.24 243.71 206.625 244.724 207.345C242.77 209.121 240.584 210.623 238.225 211.807C238.422 204.3 240.319 196.049 241.867 189.346C242.604 186.023 243.294 183.149 243.573 181.062C243.589 180.936 243.578 180.809 243.54 180.688C243.503 180.568 243.439 180.457 243.353 180.363C243.268 180.27 243.163 180.196 243.046 180.148C242.93 180.099 242.804 180.077 242.677 180.082C234.568 180.463 224.35 183.738 223.914 183.876C223.78 183.919 223.658 183.993 223.559 184.093C223.461 184.193 223.388 184.316 223.347 184.45C223.307 184.595 222.315 187.928 220.255 197.528C218.165 195.782 215.845 193.785 213.415 191.663C215.697 188.665 228.516 171.664 231.15 164.611C232.338 161.62 233.063 158.465 233.3 155.256C241.84 149.178 253.966 143.804 264.407 139.813C266.247 144.237 271.891 151.947 272.145 152.287C272.277 152.47 272.476 152.595 272.699 152.633C272.922 152.672 273.151 152.622 273.337 152.495C273.466 152.408 285.55 144.173 292.506 141.446C292.849 142.124 293.144 142.599 293.364 142.955L293.349 142.922ZM278.942 170.116C279.119 170.445 279.25 170.796 279.333 171.161C279.451 172.078 276.337 175.043 271.335 179.814C269.478 181.591 267.268 183.706 264.67 186.244C260.406 190.406 256.179 194.144 252.601 197.123C252.522 190.455 254.096 179.251 254.347 177.494L254.631 177.166C259.26 171.586 264.559 166.597 270.407 162.312C273.975 161.421 282.285 159.616 286.96 159.631C285.395 160.508 283.7 161.461 281.933 162.493C276.814 165.542 278.175 168.42 278.958 170.149L278.942 170.116ZM269.445 184.043C272.788 183.953 276.119 184.479 279.271 185.597C276.724 190.155 269.708 206.513 268.167 210.115C266.207 210.274 259.146 210.917 253.265 212.036C250.646 209.687 247.881 207.506 244.987 205.505C252.295 199.909 259.271 193.893 265.879 187.486L269.445 184.043ZM253.268 176.083C252.547 177.055 251.719 177.943 250.801 178.732L250.701 178.593C250.378 178.075 249.85 177.048 249.169 175.749C246.212 169.988 242.995 164.016 239.641 160.778C243.056 159.242 247.062 156.325 251.554 152.028C255.249 148.51 256.514 148.196 256.932 148.549L257.406 148.966C261.671 152.902 266.23 156.507 271.044 159.748L270.405 160.215L269.469 160.907C263.487 165.29 258.07 170.396 253.341 176.108L253.268 176.083ZM236.394 212.253C234.022 208.585 231.396 206.476 226.224 202.516C225.009 201.589 223.448 200.333 221.673 198.861C223.432 190.627 224.462 186.684 224.806 185.462C230.29 183.755 235.928 182.587 241.639 181.975C241.313 183.871 240.751 186.297 240.115 189.048C238.577 196.006 236.628 204.485 236.467 212.279L236.394 212.253ZM225.702 155.979C225.722 155.831 225.702 155.681 225.645 155.543C224.977 150.898 224.169 145.991 223.285 142.026C227.591 141.102 231.745 139.578 235.626 137.498L236.255 137.137C252.534 127.813 257.481 124.961 259.632 109.556C260.111 109.552 260.589 109.517 261.064 109.453C262.383 109.262 263.686 108.969 264.96 108.578C266.42 110.861 272.296 119.287 279.634 122.058C279.839 122.141 280.069 122.143 280.275 122.062C280.481 121.981 280.649 121.824 280.743 121.624L280.881 121.338C281.218 125.397 281.606 129.216 281.813 131.275L281.912 132.043C278.167 133.191 271.836 135.242 264.679 137.948L264.61 137.957L264.496 137.971C253.606 142.091 240.779 147.73 231.899 154.154C231.786 154.235 231.694 154.342 231.631 154.465C231.568 154.589 231.536 154.726 231.536 154.865C231.373 158.021 230.682 161.128 229.493 164.056C228.883 165.561 228.159 167.018 227.328 168.414C227.048 165.699 226.492 161.028 225.785 155.991L225.702 155.979ZM285.466 132.762C287.723 134.961 289.724 137.408 291.429 140.058C285.173 142.601 275.633 148.877 272.986 150.675C271.563 148.679 267.419 142.746 265.959 139.286C275.659 135.705 283.617 133.339 285.55 132.786L285.466 132.762ZM190.551 70.0861C189.555 68.4197 190.136 64.9652 192.143 60.5576C195.323 53.6795 201.432 48.3586 205.043 47.8931L205.421 47.8443C205.707 47.8088 205.998 47.8457 206.266 47.9516C206.534 48.0575 206.771 48.2291 206.956 48.4506C207.697 49.404 207.699 51.5014 206.961 54.0906L202.887 58.6481C201.957 58.238 200.936 58.0803 199.926 58.1907L199.834 58.2025C199.606 58.2319 199.399 58.3507 199.259 58.5327C199.118 58.7148 199.056 58.9451 199.085 59.1732C199.114 59.4012 199.233 59.6082 199.415 59.7486C199.597 59.8891 199.828 59.9515 200.056 59.9221C200.585 59.8477 201.125 59.8936 201.635 60.0565L200.172 61.7252L200.1 61.8043L198.784 63.6172L198.256 64.2214L197.062 65.5407L196.42 66.2528L195.508 67.3144L194.757 68.1803L194.058 68.993L193.319 69.8575L192.742 70.5379L192.237 71.1391C191.91 71.0986 191.596 70.9852 191.319 70.8071C191.042 70.6289 190.808 70.3908 190.636 70.1101L190.551 70.0861ZM197.52 141.769C190.847 139.821 190.962 133.933 191.324 131.497C191.509 129.612 191.355 127.71 190.868 125.88C190.224 122.781 190.233 121.953 191.942 121.558C192.15 121.517 192.361 121.49 192.573 121.476L193.387 121.371C193.857 121.311 194.311 121.311 194.748 121.266L195.012 121.232C195.555 121.158 196.095 121.053 196.626 120.919L196.741 120.904C198.224 120.518 199.635 119.895 200.92 119.06L201.001 119.05C201.365 118.805 201.695 118.564 202.07 118.306L202.176 118.222C202.479 117.981 202.758 117.739 203.015 117.496L203.107 117.403C203.356 117.161 203.594 116.932 203.799 116.708L203.87 116.629L204.418 115.999C204.679 115.674 204.927 115.339 205.151 114.995C206.166 113.625 206.802 112.011 206.995 110.317C206.99 110.109 206.963 109.901 206.916 109.698C206.445 107.043 201.536 98.3413 196.775 95.8551C196.488 95.7056 196.212 95.5547 195.947 95.4023C194.174 94.3956 193.251 93.559 193.11 92.8313C192.97 92.1035 193.529 91.2856 194.459 90.0935L195.245 89.1414C196.37 87.831 197.264 86.7251 197.095 85.4067C196.934 84.819 196.647 84.2731 196.255 83.8066C195.863 83.3401 195.375 82.9641 194.823 82.7045L193.836 82.0975C192.221 81.1403 190.386 80.0134 190.072 78.4806C190.023 77.8752 190.1 77.2664 190.296 76.6918C190.493 76.1172 190.805 75.5891 191.214 75.1401C191.621 74.5865 192.437 73.5956 193.22 72.6206C194.299 71.3161 195.748 69.6259 197.503 67.6049C199.259 65.5838 201.166 63.3801 203.353 60.9072C204.29 61.5246 205.148 62.2556 205.906 63.0837C205.412 64.0447 204.923 65.0401 204.472 66.0655C201.782 72.3209 201.267 77.993 203.276 80.8339C203.708 81.4671 204.304 81.971 205 82.2918C205.696 82.6126 206.466 82.7382 207.228 82.6552L207.458 82.6256C210.645 82.2148 215.197 77.8403 218.906 71.9896C219.335 72.1581 219.777 72.292 220.228 72.3902C221.403 72.6319 222.61 72.6733 223.798 72.5127C226.816 72.0983 229.601 70.6616 231.688 68.4422C231.765 68.3558 231.824 68.255 231.862 68.1458C231.9 68.0365 231.916 67.9208 231.909 67.8054C231.902 67.6899 231.873 67.5769 231.822 67.4728C231.772 67.3688 231.701 67.2756 231.615 67.1988C231.529 67.1219 231.428 67.0628 231.319 67.0249C231.209 66.987 231.094 66.9709 230.978 66.9777C230.863 66.9845 230.75 67.0139 230.646 67.0644C230.541 67.1148 230.448 67.1853 230.371 67.2717C229.147 68.6174 227.607 69.6364 225.889 70.2364C224.171 70.8363 222.331 70.9982 220.536 70.7074C220.274 70.6505 220.016 70.5787 219.762 70.4924C220.731 68.8485 221.601 67.1485 222.369 65.4015C223.304 63.3264 223.962 61.1375 224.326 58.8909C227.267 58.8987 230.162 59.6259 232.757 61.0089C232.855 61.069 232.963 61.1094 233.076 61.1278C233.189 61.1461 233.304 61.142 233.415 61.1158C233.527 61.0895 233.632 61.0416 233.725 60.9747C233.817 60.9079 233.896 60.8234 233.956 60.7261C234.016 60.6288 234.057 60.5206 234.075 60.4077C234.093 60.2948 234.089 60.1794 234.063 60.0681C234.037 59.9568 233.989 59.8517 233.922 59.7589C233.855 59.6661 233.771 59.5874 233.673 59.5272C230.854 58.0163 227.706 57.2215 224.506 57.2128C224.672 55.377 224.259 53.5355 223.326 51.9458C222.872 51.2407 222.243 50.6652 221.5 50.2749C220.758 49.8846 219.927 49.693 219.088 49.7185C215.595 49.7377 210.603 54.5883 206.684 61.5266C205.995 60.8243 205.238 60.1919 204.424 59.6386L208.31 55.2452C214.409 48.3172 221.209 40.7628 226.986 34.4124C231.967 32.733 234.155 32.9754 235.042 33.6186C235.353 33.8685 235.595 34.1949 235.743 34.5659C235.891 34.937 235.94 35.34 235.886 35.7357L235.874 36.4598C235.802 39.9653 235.73 44.3799 239.043 45.5842C240.716 46.0152 242.461 46.0842 244.162 45.7867C245.652 45.5946 247.524 45.4698 247.833 46.0593C248.371 47.0622 247.746 48.7277 247.027 50.6501C245.836 53.7987 244.37 57.7054 246.627 61.9245C248.084 64.6386 251.139 65.9113 254.094 67.1386C257.791 68.7014 261.064 70.0393 260.973 73.8503C260.915 76.0254 259.052 77.6641 257.239 79.238C255.142 81.0583 252.985 82.9447 253.669 85.7233C253.828 86.541 254.164 87.314 254.653 87.9878C255.143 88.6616 255.774 89.22 256.503 89.6234C259.619 91.2845 263.874 89.757 264.051 89.6875C264.125 89.6608 264.195 89.6244 264.259 89.5792C267.061 87.5398 275.071 83.0459 278.364 86.712C279.953 88.4649 280.368 91.3249 279.5 94.3504C277.839 100.089 272.392 104.753 264.932 106.822C263.245 107.405 261.49 107.768 259.71 107.903C259.834 106.873 259.942 105.811 260.052 104.678C260.071 104.56 260.065 104.441 260.036 104.326C260.007 104.211 259.954 104.103 259.882 104.009C259.809 103.916 259.718 103.838 259.614 103.781C259.51 103.724 259.396 103.688 259.277 103.677C259.159 103.666 259.04 103.679 258.928 103.716C258.815 103.753 258.711 103.812 258.622 103.891C258.533 103.969 258.461 104.065 258.411 104.172C258.361 104.28 258.333 104.396 258.33 104.515C256.581 123.492 252.89 125.599 235.245 135.717L234.615 136.078C223.717 142.39 202.958 143.364 197.604 141.793L197.52 141.769ZM211.97 58.3278C213.22 58.9824 215.636 58.9158 218.623 58.857C219.913 58.8305 221.285 58.8051 222.675 58.8241C222.319 60.8496 221.712 62.8227 220.868 64.6976C220.115 66.4113 219.259 68.0783 218.307 69.6895C217.481 69.1101 216.861 68.2844 216.534 67.3308C216.46 67.1132 216.302 66.9341 216.095 66.8328C215.889 66.7316 215.651 66.7165 215.433 66.7909C215.216 66.8654 215.036 67.0231 214.935 67.2296C214.834 67.4361 214.819 67.6743 214.893 67.8919C215.345 69.2319 216.222 70.3875 217.392 71.1826C213.831 76.7345 209.689 80.5898 207.259 80.9031L207.11 80.9224C206.638 80.9947 206.156 80.9316 205.718 80.7404C205.281 80.5492 204.907 80.2378 204.64 79.8423C203.301 77.9522 203.208 73.1627 206.007 66.7649C206.536 65.5314 207.091 64.411 207.663 63.335C208.797 61.218 210.108 59.201 211.582 57.3056C211.523 57.5042 211.539 57.7173 211.625 57.9055C211.711 58.0937 211.863 58.2441 212.052 58.3289L211.97 58.3278ZM211.937 56.8054C214.537 53.5567 217.097 51.63 218.863 51.4024L219.184 51.3611C219.733 51.3357 220.279 51.4565 220.766 51.711C221.253 51.9655 221.664 52.3447 221.958 52.8098C222.685 54.103 222.995 55.5896 222.844 57.0658C221.372 57.0342 219.931 57.0684 218.57 57.0923C216.037 57.1508 213.655 57.2016 212.7 56.7537C212.589 56.7146 212.471 56.699 212.354 56.7081C212.237 56.7172 212.123 56.7507 212.019 56.8065L211.937 56.8054ZM209.755 181.354C209.828 181.916 209.972 182.492 210.082 182.897C210.134 183.102 210.259 183.28 210.433 183.399C210.607 183.518 210.819 183.57 211.028 183.544L211.131 183.531C211.355 183.476 211.547 183.334 211.666 183.138C211.784 182.941 211.82 182.705 211.765 182.482C210.361 176.836 210.166 167.002 210.73 165.95C211.566 165.376 212.448 164.873 213.367 164.445C217.268 162.637 220.927 160.349 224.26 157.633C225.143 164.034 225.731 169.587 225.877 170.897C221.181 178.495 213.879 188.211 212.098 190.574C210.778 189.38 209.376 188.174 208.005 186.941C208.429 185.032 209.014 183.163 209.755 181.354ZM158.366 113.778C160.471 113.11 162.414 112.545 163.111 112.886C164.696 113.784 166.047 115.043 167.053 116.562C168.059 118.081 168.692 119.817 168.899 121.626C168.935 121.902 168.97 122.177 169.009 122.475C169.058 123.794 168.786 125.106 168.217 126.298C167.648 127.49 166.799 128.526 165.742 129.317C165.352 129.628 164.941 129.911 164.511 130.164L164.209 129.631C160.778 123.536 157.531 117.789 156.302 115.757C156.08 115.389 155.848 115.035 155.616 114.68L158.366 113.778ZM92.6173 149.152C92.0506 148.994 91.5242 148.716 91.0735 148.338C90.6227 147.96 90.2581 147.49 90.0039 146.96C90.9553 146.837 91.5174 146.858 91.5403 146.855C91.7704 146.853 91.9903 146.76 92.1516 146.596C92.313 146.432 92.4026 146.21 92.4007 145.98C92.3989 145.75 92.3058 145.531 92.1418 145.369C91.9779 145.208 91.7565 145.118 91.5265 145.12C91.3889 145.138 90.5961 145.135 89.3207 145.276C89.2896 145.035 89.1898 144.804 89.1444 144.541C88.8676 143.027 88.6843 141.967 89.2169 141.036C90.1684 140.913 91.4925 141.512 92.4548 143.462C93.6235 145.747 93.6339 148.088 92.6287 149.15L92.6173 149.152ZM118.621 147.372C117.2 147.917 114.87 147.203 112.995 145.767L119.299 144.045C119.46 144.293 119.67 144.662 119.94 145.128C119.983 145.593 119.879 146.06 119.642 146.463C119.405 146.865 119.048 147.184 118.621 147.372ZM119.486 142.238L110.817 144.603C104.964 146.208 98.0211 148.129 94.761 148.875C95.0431 147.844 95.118 146.767 94.9812 145.706C94.8445 144.645 94.4989 143.622 93.9644 142.696C93.3551 141.315 92.2529 140.211 90.873 139.599C92.204 138.911 93.593 138.342 95.024 137.898C100.47 136.031 106.733 133.533 109.746 132.317L111.308 131.685C111.516 131.608 111.732 131.557 111.952 131.532C113.913 131.279 117.818 132.466 122.777 138.294C123.472 139.12 124.116 139.986 124.708 140.889C123.238 141.242 121.435 141.719 119.486 142.238ZM126.123 146.534C125.28 146.794 124.372 146.752 123.556 146.415C122.74 146.077 122.068 145.466 121.655 144.686C121.441 144.294 121.26 143.979 121.097 143.709C122.832 143.24 124.479 142.818 125.765 142.489C126.107 143.063 126.453 143.671 126.787 144.269C127.198 145.381 126.999 146.187 126.135 146.532L126.123 146.534ZM162.521 183.796C161.454 181.125 160.661 179.129 160.262 178.202C158.341 174.288 156.141 170.517 153.679 166.919C153.612 166.817 153.524 166.731 153.421 166.666C153.319 166.601 153.203 166.559 153.083 166.541C149.104 165.772 145.277 164.36 141.752 162.361C137.115 159.836 133.837 153.662 130.667 147.696C129.449 145.394 128.187 143.016 126.867 140.914C126.052 139.587 125.141 138.321 124.142 137.128C116.641 128.305 111.641 129.661 110.721 130.024L109.148 130.658C107.642 131.272 105.304 132.214 102.673 133.229C102.523 132.428 102.54 131.605 102.723 130.81C103.151 129.52 107.923 126.492 110.778 124.679C114.269 122.469 114.634 122.411 117.493 121.984L118.754 121.821C120.369 121.623 121.846 120.811 122.878 119.553C123.184 119.133 123.586 118.791 124.05 118.557C124.515 118.323 125.028 118.203 125.548 118.207C128.76 118.084 129.52 117.38 130.711 116.038C131.294 115.326 131.948 114.675 132.663 114.096C134.613 112.586 136.431 113.039 138.202 113.487C138.91 113.701 139.642 113.822 140.381 113.847C141.137 113.845 141.881 113.663 142.552 113.315C143.223 112.967 143.8 112.463 144.237 111.847C144.742 111.164 145.454 110.663 146.267 110.419C148.519 109.803 152.307 112.613 154.766 116.678C155.969 118.69 159.26 124.419 162.644 130.509L163.353 131.758C167.295 138.743 171.236 145.717 173.031 148.702C177.55 156.032 182.506 163.084 187.873 169.817C193.688 177.133 217.106 197.69 225.204 203.918C232.871 209.782 234.633 211.338 238.571 220.189C238.665 220.399 238.838 220.564 239.053 220.646C239.268 220.729 239.507 220.723 239.718 220.629C239.928 220.536 240.093 220.362 240.175 220.147C240.258 219.932 240.252 219.693 240.158 219.483C239.175 217.279 238.303 215.491 237.459 214.004C240.644 213.22 244.627 209.851 246.074 208.511C256.919 216.71 265.966 227.046 272.657 238.881C273.44 240.26 274.174 241.611 274.857 242.933C276.933 246.919 278.789 250.922 280.393 254.864C277.139 257.288 273.491 259.728 269.542 262.09C262.822 266.153 255.846 269.777 248.658 272.94C246.639 273.798 244.698 274.828 242.855 276.019C240.303 277.72 237.454 278.929 234.458 279.584C229.097 280.939 224.455 279.556 221.02 275.605C220.568 275.081 220.196 274.546 219.731 273.919C218.056 271.594 215.258 267.701 203.4 255.723C188.883 241.022 183.983 231.666 178.39 220.826L177.601 219.32C173.033 210.282 166.227 193.108 162.54 183.852L162.521 183.796ZM285.666 264.218L285.384 263.299L285.264 262.906C285.121 262.459 284.972 262 284.818 261.53L284.666 261.072C284.475 260.491 284.27 259.9 284.051 259.287L283.903 258.863C283.731 258.372 283.546 257.872 283.348 257.361L283.102 256.717C282.881 256.147 282.654 255.563 282.422 254.963L282.32 254.72C280.615 250.535 278.653 246.254 276.452 242.016C275.756 240.684 275.021 239.322 274.223 237.922C271.539 233.164 268.464 228.637 265.031 224.387C272.174 220.402 275.868 219.855 276.529 219.922C277.511 220.762 282.372 227.455 285.684 232.54C287.628 235.193 289.781 237.687 292.123 239.996C295.306 243.35 298.583 246.808 299.713 249.331C298.159 250.962 296.426 252.413 294.548 253.656C291.663 255.683 287.582 261.454 285.685 264.274L285.666 264.218ZM287.355 276.144C287.491 276.124 287.62 276.071 287.731 275.991C287.731 275.991 287.731 275.991 287.801 275.9C287.851 275.864 287.896 275.823 287.937 275.778C292.464 268.854 300.606 261.325 308.517 254.618C310.01 254.355 316.344 253.224 319.369 252.554C318.447 257.87 318.011 263.259 318.065 268.654C318.123 278.144 318.533 291.901 318.647 295.138C313.951 296.315 293.285 301.531 289.201 303.118C288.41 301.682 286.926 296.233 285.818 292.157C285.062 289.364 284.277 286.528 283.648 284.36C282.508 280.655 281.631 276.873 281.023 273.044C282.903 274.245 284.889 275.273 286.955 276.114C287.085 276.178 287.229 276.207 287.374 276.2L287.355 276.144ZM267.771 296.989C269.35 302.274 274.957 322.447 275.945 326.131C274.089 326.743 267.046 327.791 259.636 328.898L257.768 329.138C255.234 329.465 252.746 329.961 250.329 330.377C242.899 331.685 235.218 333.036 233.708 330.9C231.584 327.899 224.075 296.585 223.897 280.024C226.581 281.496 229.673 282.047 232.7 281.593C233.467 281.495 234.226 281.35 234.975 281.16C238.129 280.46 241.126 279.181 243.812 277.387C245.58 276.238 247.445 275.245 249.385 274.419C252.532 273.07 256.949 270.985 261.802 268.402C262.423 274.848 266.333 292.163 267.771 296.989ZM199.904 254.46C198.954 259.993 198.289 265.572 197.91 271.173C197.423 276.433 196.845 282.894 196.347 284.543L194.901 284.357C189.965 283.626 184.98 283.279 179.99 283.319C180.669 262.371 182.102 244.833 184.196 234.587C188.721 241.732 193.984 248.382 199.9 254.426L199.904 254.46ZM173.683 216.224L173.873 215.349C174.678 217.074 175.463 218.64 176.182 220.062L176.959 221.57L177.888 223.35C175.88 222.905 173.815 222.778 171.768 222.974C172.631 220.794 173.273 218.532 173.683 216.224ZM166.823 240.218C168.344 235.745 168.068 234.231 167.77 232.556C167.73 232.246 167.69 231.937 167.645 231.581C167.41 229.759 168.45 227.34 170.328 225.28L170.581 224.98C173.392 224.462 176.286 224.637 179.014 225.489C180.246 227.813 181.498 230.11 182.882 232.437C181.717 237.858 180.868 243.341 180.337 248.86C175.122 247.851 169.777 247.71 164.515 248.44C165.106 245.653 165.876 242.906 166.823 240.218ZM153.007 288.534C154.756 284.02 156.269 280.119 156.754 278.728C157.432 276.659 159.175 270.386 160.724 264.324C163.693 264.669 166.678 264.86 169.667 264.896L170.473 264.909C170.325 265.662 169.986 267.011 169.584 268.59C169.137 270.372 168.55 272.685 167.857 275.63C166.908 279.656 166.188 284.283 165.618 288.004C165.245 290.441 164.858 292.95 164.581 293.965L164.269 293.9C159.788 292.819 155.093 293.02 150.72 294.481L153.007 288.534ZM149.685 303.355C149.41 303.391 149.147 303.518 148.89 303.609L148.471 303.791C147.928 304.018 147.405 304.292 146.91 304.61C147.77 302.239 148.835 299.386 149.926 296.542C154.375 294.733 159.283 294.381 163.944 295.538C164.356 295.663 164.784 295.722 165.214 295.713C166.211 295.584 166.371 294.748 167.383 288.219C167.956 284.532 168.641 279.899 169.594 275.989C170.288 273.056 170.875 270.742 171.323 268.971C172.567 264.068 172.667 263.67 171.752 263.264C171.102 263.104 170.43 263.053 169.763 263.112C167.987 263.073 164.808 263.005 161.234 262.58C162.522 257.659 163.655 253.155 163.965 251.495L164.207 250.298C169.521 249.493 174.933 249.611 180.207 250.648C178.708 266.143 177.83 287.082 177.802 310.009C172.854 305.706 162.741 302.476 154.897 302.648L154.771 302.665C154.159 302.681 153.566 302.719 152.99 302.778L151.649 302.95L151.214 303.007L150.499 303.157L149.685 303.355ZM179.625 299.111C184.882 299.296 186.479 299.393 187.245 306.962C188.037 314.82 188.533 334.218 188.737 342.49L188.849 346.612C188.947 349.816 189.036 353.126 188.692 353.893C185.934 354.021 183.171 353.988 180.417 353.795C179.64 335.295 179.386 316.425 179.619 299.065L179.625 299.111ZM170.17 375.743C167.922 377.105 166.15 378.185 164.984 378.999C163.023 380.417 156.861 379.266 149.88 375.014C147.611 373.843 145.211 372.948 142.73 372.347C131.462 368.929 120.403 364.856 109.61 360.149C96.8124 354.807 85.8368 347.504 69.273 336.54C64.8289 333.617 60.0109 330.416 54.6816 326.954C54.0963 326.646 53.4537 326.463 52.7942 326.416C50.5308 326.226 48.4232 325.186 46.895 323.506C45.9447 322.463 45.3413 321.76 44.8056 321.13C42.941 318.901 40.8018 316.917 38.4389 315.226C36.7132 313.864 34.8752 312.353 32.958 310.77C28.5901 307.173 23.6369 303.103 18.5368 299.612C16.4166 298.172 14.3844 296.872 12.4069 295.635C7.92726 292.798 4.05845 290.36 3.03105 288.267C1.65391 285.449 2.24506 283.345 5.76598 278.474C7.16067 276.546 8.25691 274.925 9.23627 273.482C10.297 271.782 11.4968 270.174 12.8234 268.672C13.4527 268.002 14.0467 267.299 14.603 266.567C16.2181 264.54 18.2341 262.008 20.7466 260.705C22.3848 259.853 24.3054 261.19 25.1898 261.904C25.0867 262.189 25.0028 262.472 24.9379 262.752C23.8706 262.501 22.7616 262.484 21.6872 262.703C20.6129 262.922 19.5988 263.372 18.715 264.02C17.1614 265.258 9.78639 274.495 6.48 278.86C6.40568 278.95 6.35016 279.053 6.31677 279.165C6.28337 279.276 6.27279 279.393 6.28563 279.509C6.29848 279.625 6.33449 279.737 6.39153 279.838C6.44857 279.94 6.52547 280.029 6.61764 280.1C6.7098 280.171 6.81537 280.223 6.928 280.252C7.04063 280.282 7.15803 280.288 7.27321 280.271C7.38839 280.254 7.49898 280.214 7.59839 280.154C7.6978 280.093 7.78397 280.013 7.85179 279.918C12.605 273.758 18.6892 266.261 19.7998 265.384C20.4968 264.887 21.2938 264.549 22.135 264.392C22.9763 264.235 23.8417 264.264 24.6707 264.476C24.6035 265.35 24.7527 266.228 25.1049 267.031C24.757 266.97 24.4025 266.957 24.051 266.992C21.3571 267.339 18.3045 270.961 13.2381 276.951L10.2838 280.432C10.158 280.609 10.1027 280.825 10.1288 281.04C10.1549 281.255 10.2605 281.453 10.4248 281.594C10.5891 281.735 10.8002 281.809 11.0167 281.802C11.2331 281.796 11.4391 281.708 11.5942 281.557L14.5585 278.063C19.0228 272.826 22.2363 268.916 24.2539 268.655C26.0766 268.42 31.1848 271.433 34.051 275.224C34.2629 275.511 34.4747 275.799 34.6651 276.1C35.2867 276.991 35.676 278.022 35.7978 279.101C34.9049 277.935 33.911 276.851 32.8277 275.86C31.0625 274.281 29.5686 273.541 28.3749 273.683C24.4888 274.184 19.8711 279.045 15.4135 283.792C14.4712 284.799 13.5388 285.793 12.622 286.727C12.4609 286.892 12.3717 287.113 12.374 287.344C12.3764 287.574 12.4701 287.794 12.6346 287.955C12.7991 288.116 13.0209 288.205 13.2512 288.203C13.4815 288.201 13.7014 288.107 13.8625 287.942C14.7793 287.008 15.7217 286.001 16.6755 284.993C20.7033 280.709 25.2637 275.856 28.5194 275.436C28.7601 275.405 29.6879 275.46 31.6113 277.182C34.5893 279.851 37.147 283.962 37.1198 285.469C37.1576 285.969 37.0655 286.47 36.8525 286.924C36.6395 287.379 36.3128 287.77 35.9041 288.061C33.9865 288.313 32.0528 288.422 30.1191 288.387C30.062 288.162 29.9868 287.942 29.8943 287.729C31.7157 286.645 33.1388 285.002 33.9521 283.045C33.9975 282.937 34.0205 282.821 34.0197 282.703C34.0189 282.586 33.9943 282.47 33.9474 282.363C33.9005 282.255 33.8323 282.158 33.7468 282.078C33.6614 281.998 33.5606 281.935 33.4504 281.895C33.3403 281.855 33.2231 281.837 33.1059 281.844C32.9888 281.85 32.8742 281.88 32.7691 281.932C32.6639 281.984 32.5704 282.057 32.4941 282.146C32.4179 282.235 32.3605 282.339 32.3255 282.451C31.647 284.035 30.4843 285.364 29.004 286.247C27.9464 284.991 26.4629 284.17 24.8375 283.94C24.6082 283.923 24.3816 283.999 24.2075 284.149C24.0335 284.299 23.9262 284.512 23.9094 284.742C23.8926 284.971 23.9677 285.198 24.118 285.372C24.2682 285.546 24.4815 285.653 24.7109 285.67C26.1578 285.775 28.4366 287.45 28.4923 289.238C28.4939 289.461 28.5815 289.675 28.7367 289.835C28.8919 289.995 29.1028 290.089 29.3257 290.098C31.6705 290.181 34.0182 290.065 36.3436 289.752C36.4353 289.741 46.1142 288.341 47.6539 296.126C47.6966 296.342 47.8198 296.534 47.9987 296.662C48.1776 296.791 48.3987 296.846 48.6171 296.817C48.7292 296.796 48.8358 296.752 48.9309 296.689C49.026 296.626 49.1077 296.544 49.1713 296.449C49.2348 296.355 49.279 296.248 49.3014 296.136C49.3237 296.024 49.3237 295.909 49.3013 295.797C48.0828 289.509 42.3865 287.901 38.2489 287.899C38.6213 287.153 38.8107 286.33 38.8016 285.496C38.6099 283.893 38.0118 282.366 37.0641 281.059C37.6271 279.821 37.8203 277.885 36.025 275.168C35.937 275.027 35.826 274.89 35.738 274.75C37.4242 271.829 35.7934 269.032 33.6478 266.582C34.0726 266.315 34.4825 266.024 34.876 265.713C34.9696 265.643 35.0483 265.556 35.1074 265.455C35.1664 265.355 35.2046 265.243 35.2195 265.128C35.2345 265.012 35.226 264.895 35.1945 264.782C35.163 264.67 35.1092 264.565 35.0363 264.474C34.9634 264.383 34.8729 264.308 34.7702 264.253C34.6675 264.198 34.5547 264.164 34.4386 264.153C34.3225 264.142 34.2055 264.155 34.0945 264.191C33.9835 264.227 33.8808 264.284 33.7927 264.361C30.5368 266.948 27.2294 266.967 26.7158 266.508C26.4897 266.162 26.3357 265.774 26.2632 265.367C26.1907 264.959 26.2011 264.542 26.2938 264.139C26.374 263.508 26.529 262.89 26.7555 262.296C26.8383 262.214 26.9037 262.116 26.9479 262.009C26.9921 261.901 27.014 261.785 27.0125 261.669C27.4781 260.658 28.0873 259.72 28.8211 258.883C29.3156 258.245 29.98 257.76 30.738 257.483C31.4959 257.206 32.3168 257.148 33.106 257.317C34.1219 257.599 35.0431 258.15 35.7728 258.911C36.5025 259.672 37.0138 260.615 37.253 261.642C38.6337 266.475 40.1747 268.666 44.4461 271.786C45.0514 272.232 45.6393 272.635 46.2143 273.027C49.6671 275.402 52.1626 277.131 53.126 283.067C53.3299 284.649 53.5642 285.924 53.7246 286.987C54.1517 290.3 54.4155 291.805 55.69 294.006C57.4724 297.074 63.716 302.656 73.2175 307.654C82.5554 312.522 92.4576 316.22 102.7 318.666C106.655 319.601 112.636 320.799 118.965 322.07C127.161 323.717 135.632 325.422 140.264 326.643C153.889 330.27 161.958 334.731 164.24 339.867C164.315 340.039 164.444 340.182 164.607 340.275C164.77 340.367 164.959 340.404 165.145 340.38C165.226 340.381 165.308 340.371 165.386 340.349C165.597 340.257 165.762 340.085 165.846 339.871C165.93 339.657 165.925 339.418 165.833 339.207C164.038 335.138 159.378 331.625 151.745 328.554C153.061 323.303 154.02 317.97 154.617 312.59L154.602 312.476L154.801 310.947C155.09 308.672 155.378 306.385 155.578 304.227C163.949 304.255 174.182 308.238 177.69 312.308C177.71 328.283 178.124 345.14 178.958 361.733C179.102 364.663 179.196 367.378 179.246 369.935C175.949 372.201 172.749 374.141 170.166 375.709L170.17 375.743ZM28.7564 268.506C29.9247 268.36 31.0621 268.028 32.126 267.524C34.6026 270.281 35.0276 271.951 34.5871 273.325C32.9108 271.42 30.9428 269.794 28.7564 268.506ZM216.025 395.867C216.307 398.872 216.569 401.449 216.772 403.474C204.271 401.56 191.93 398.718 179.851 394.972C180.292 392.059 181.723 380.745 180.767 361.663C180.665 359.609 180.57 357.547 180.482 355.476C183.29 355.665 186.107 355.691 188.918 355.554C189.088 355.551 189.257 355.529 189.422 355.489C190.819 354.936 190.759 352.659 190.601 346.55L190.49 342.438C190.282 334.133 189.792 314.698 188.992 306.772C188.117 298.086 185.476 297.576 179.68 297.367C179.744 293.164 179.83 289.039 179.955 285.037C184.89 284.992 189.82 285.334 194.701 286.061C195.441 286.203 196.191 286.278 196.944 286.284C198.091 286.137 198.411 285.093 199.677 271.318C200.19 265.716 200.767 259.523 201.401 255.945L202.315 256.888C203.659 258.276 204.919 259.547 206.06 260.717C206.198 269.382 206.958 283.141 208.048 298.919L207.39 298.876C194.901 298.004 194.156 298.1 193.695 298.416C193.063 298.847 192.967 299.185 193.559 308.572C193.694 310.792 193.838 313.081 193.929 315.051C194.046 317.681 194.021 320.738 194.007 323.432C193.966 329.987 194.011 330.424 194.859 330.769C195.225 330.896 195.876 330.883 201.902 330.432C204.903 330.208 208.262 329.962 210.362 329.889C210.952 337.353 211.563 344.803 212.164 351.998C204.993 352.06 196.998 353.685 195.724 355.014C195.139 355.626 194.985 357.685 194.725 367.963L194.643 370.945C194.334 382.196 194.508 383.91 195.946 384.039C196.312 384.074 197.53 383.94 201.216 383.512C205.684 383.006 212.196 382.259 214.782 382.252C215.219 387.359 215.64 391.978 216.013 395.869L216.025 395.867ZM210.171 328.131C208.025 328.209 204.7 328.451 201.721 328.672C199.412 328.842 196.85 329.032 195.747 329.069C195.614 328.038 195.671 325.583 195.683 323.414C195.694 320.697 195.712 317.583 195.604 314.94C195.512 312.959 195.378 310.657 195.231 308.427C195.035 305.189 194.784 301.259 194.851 299.875C196.826 299.83 203.73 300.315 207.229 300.61L208.134 300.668C208.724 309.403 209.426 318.74 210.169 328.119L210.171 328.131ZM213.565 348.496C221.281 346.604 237.056 346.563 238.876 347.482C242.236 352.037 247.634 389.205 247.149 393.579C244.026 393.891 240.887 394.023 237.749 393.976C231.758 394.06 224.361 394.175 217.642 394.854C216.595 383.662 215.085 366.795 213.552 348.486L213.565 348.496ZM200.963 381.726C199.117 381.964 197.225 382.208 196.365 382.226C196.007 380.71 196.157 375.097 196.272 370.922L196.353 367.939C196.469 363.414 196.62 357.265 196.95 356.115C198.015 355.337 204.986 353.727 212.196 353.695C213.012 363.368 213.817 372.506 214.481 380.461C211.735 380.489 205.557 381.204 200.963 381.726ZM340.096 341.915C332.311 344.806 320.016 348.874 317.968 348.264C315.389 346.976 309.873 320.009 310.194 316.891C311.34 315.473 322.736 310.939 332.268 308.404C332.498 310.791 332.771 313.207 333.086 315.653C334.325 324.665 336.688 333.486 340.119 341.912L340.096 341.915ZM332.058 306.683C324.983 308.574 309.302 313.859 308.494 316.364C307.911 318.164 312.388 342.049 315.67 348.07C315.828 348.476 316.065 348.846 316.368 349.159C316.67 349.472 317.032 349.722 317.432 349.894C318.145 350.019 318.875 350.016 319.587 349.885C324.952 349.193 336.699 344.94 340.703 343.456C344.72 353.031 349.545 362.245 355.127 371C351.357 372.768 336.208 379.919 319.436 388.584C299.899 398.666 285.781 405.952 249.259 406.057C238.975 406.028 228.706 405.241 218.538 403.701C218.293 401.798 218.097 399.376 217.821 396.51C224.47 395.839 231.822 395.73 237.788 395.637C242.721 395.572 245.357 395.5 246.825 395.311C247.414 395.299 247.986 395.112 248.468 394.773C249.761 393.592 247.205 376.837 246.395 371.732C245.342 365.097 242.625 349.353 240.174 346.254C238.67 344.35 220.898 344.986 213.425 346.684C210.825 315.308 208.23 280.168 207.804 262.497C214.963 270.023 217.066 272.957 218.412 274.811C218.91 275.505 219.306 276.048 219.811 276.624C220.529 277.455 221.329 278.211 222.2 278.88C222.012 295.499 229.898 328.466 232.321 331.895C233.753 333.959 237.526 334.032 242.616 333.376C245.035 333.064 247.747 332.586 250.607 332.078C253.011 331.651 255.495 331.215 257.999 330.845L259.868 330.604C274.138 328.473 277.009 327.963 277.605 327.071C277.744 326.841 277.8 326.57 277.762 326.305C277.567 325.421 271.027 301.907 269.406 296.475C267.786 291.043 263.72 272.618 263.471 267.522C265.573 266.377 267.734 265.155 269.887 263.863C272.645 266.833 275.723 269.489 279.066 271.782C279.675 276.221 280.63 280.606 281.922 284.897C282.587 286.979 283.365 289.851 284.084 292.625C286.607 301.891 287.441 304.476 288.518 304.873C288.69 304.948 288.878 304.975 289.064 304.954C289.194 304.938 289.319 304.898 289.434 304.836C291.033 303.954 308.399 299.443 319.677 296.614C319.87 296.565 320.041 296.452 320.161 296.292C320.28 296.132 320.341 295.936 320.333 295.737C320.312 295.576 319.726 279.371 319.727 268.614C319.627 262.884 320.143 257.16 321.266 251.541C321.302 251.39 321.297 251.232 321.251 251.085C321.205 250.937 321.121 250.804 321.006 250.699C320.892 250.595 320.751 250.524 320.6 250.492C320.448 250.46 320.291 250.47 320.144 250.52C319.228 250.824 314.611 251.711 311.058 252.356L311.519 251.958L314.028 249.817C315.81 248.27 317.598 246.676 319.393 244.964L320.367 244.839C325.056 244.234 332.484 242.729 335.436 242.127C331.349 263.386 330.235 285.109 332.127 306.675L332.058 306.683ZM313.68 247.927C311.116 244.761 307.765 241.009 304.51 237.455C299.157 231.549 293.64 225.454 291.812 221.762C293.016 221.071 296.055 219.514 298.787 218.101C302.797 216.034 307.333 213.701 310.047 212.151C314.737 209.484 322.066 204.681 324.063 203.352C326.895 205.724 329.415 208.446 331.563 211.452C333.481 214.142 335.714 216.593 338.215 218.752C331.673 229.721 323.412 239.568 313.749 247.918L313.68 247.927ZM340.734 218.404C339.184 225.002 337.479 232.296 335.934 240.291C333.891 240.718 326.66 242.21 321.616 242.953C328.76 235.765 334.999 227.732 340.197 219.033C340.438 218.64 340.654 218.239 340.895 217.847L340.734 218.404ZM339.208 217.237C336.909 215.216 334.851 212.935 333.076 210.441C330.706 207.123 327.903 204.137 324.741 201.563C324.597 201.449 324.421 201.383 324.238 201.375C324.055 201.367 323.874 201.418 323.721 201.519C323.63 201.531 314.65 207.537 309.242 210.612C306.57 212.121 302.036 214.466 298.047 216.518C290.08 220.622 290.07 220.635 289.931 221.189C289.896 221.371 289.921 221.56 290.001 221.728C291.563 225.617 297.269 231.909 303.303 238.578C306.562 242.167 309.909 245.884 312.45 249.053L310.518 250.7C302.338 257.582 293.282 265.532 287.759 273.039L287.731 272.821C287.7 272.58 287.667 272.328 287.633 272.064L287.609 271.881C287.568 271.56 287.524 271.216 287.396 270.859C287.352 270.515 287.247 270.156 287.145 269.726L287.113 269.474C286.926 268.659 286.708 267.778 286.443 266.81L286.4 266.478C287.45 264.862 292.466 257.305 295.631 255.183C297.8 253.768 299.772 252.072 301.495 250.139C301.591 250.023 301.655 249.883 301.681 249.735C301.707 249.587 301.694 249.434 301.642 249.292C300.616 246.395 296.989 242.573 293.482 238.877C291.218 236.64 289.134 234.227 287.249 231.662C286.173 230.006 278.694 218.908 277.297 218.378C276.073 217.918 271.53 218.841 264.024 223.084C261.22 219.718 258.205 216.533 254.998 213.549C261.484 212.421 268.856 211.844 268.938 211.845C269.096 211.83 269.248 211.774 269.377 211.681C269.506 211.589 269.609 211.464 269.674 211.319C272.439 204.832 279.924 187.587 281.363 185.735C281.443 185.631 281.499 185.51 281.525 185.382C281.552 185.253 281.549 185.121 281.517 184.994C281.485 184.866 281.424 184.748 281.34 184.648C281.256 184.548 281.15 184.468 281.03 184.414C277.958 183.169 274.693 182.466 271.381 182.337L272.656 181.112C279.294 174.744 281.295 172.819 281.176 171.086C281.094 170.511 280.912 169.955 280.638 169.443C279.892 167.814 279.179 166.263 282.941 164.076C285.011 162.865 287.034 161.742 288.795 160.758C292.709 158.575 294.457 157.58 294.968 156.932C295.091 156.757 295.145 156.542 295.117 156.33C295.09 156.117 294.984 155.923 294.82 155.785C294.637 155.648 294.408 155.588 294.181 155.617C293.954 155.646 293.747 155.763 293.605 155.942C292.377 156.846 291.078 157.649 289.719 158.343C286.383 157.502 278.877 158.855 274.093 159.891C287.674 149.982 293.838 145.004 294.944 144.092C298.75 143.601 301.949 143.189 304.688 142.836C313.859 141.653 317.656 141.094 321.485 141.952C314.252 141.719 306.159 144.115 297.911 148.931C297.805 148.983 297.71 149.057 297.634 149.148C297.558 149.239 297.501 149.344 297.467 149.458C297.433 149.571 297.422 149.69 297.436 149.808C297.45 149.926 297.488 150.039 297.547 150.142C297.607 150.244 297.687 150.333 297.782 150.404C297.878 150.474 297.986 150.524 298.102 150.551C298.217 150.578 298.337 150.581 298.453 150.559C298.57 150.538 298.681 150.493 298.779 150.427C302.101 148.447 305.622 146.821 309.284 145.576C298.486 156.921 283.275 176.515 283.116 176.733C283.022 176.853 282.961 176.996 282.939 177.147C282.917 177.299 282.936 177.453 282.994 177.595C283.051 177.737 283.145 177.861 283.265 177.954C283.386 178.048 283.529 178.108 283.681 178.129C295.71 179.771 307.488 188.87 311.928 192.306C312.597 192.874 313.31 193.386 314.061 193.838C314.297 193.956 314.562 194.002 314.824 193.973C316.314 193.78 317.927 190.927 320.927 185.086C321.865 183.322 322.902 181.335 323.987 179.354C328.073 171.998 338.416 158.568 338.516 158.438C338.606 158.322 338.665 158.185 338.688 158.04C338.71 157.895 338.696 157.747 338.645 157.609C338.595 157.471 338.51 157.348 338.4 157.251C338.289 157.155 338.155 157.089 338.011 157.058C333.446 156.085 327.621 152.128 322.497 148.628C320.197 146.987 317.811 145.47 315.35 144.083C320.302 143.119 325.424 143.548 330.147 145.322C338.362 149.566 344.073 155.263 347.196 162.307C346.498 165.124 336.881 181.736 330.736 191.84C330.627 192.024 330.591 192.242 330.633 192.451C330.675 192.661 330.793 192.848 330.964 192.976C332.12 193.805 335.396 197.066 344.343 207.438C342.851 210.807 341.147 214.079 339.243 217.233L339.208 217.237ZM312.376 144.7C314.26 145.121 317.737 147.505 321.414 149.991C326.218 153.264 331.632 156.936 336.243 158.347C333.712 161.68 325.895 172.092 322.367 178.444C321.259 180.428 320.213 182.439 319.276 184.215C317.566 187.489 315.452 191.526 314.538 192.121C314.219 191.906 313.533 191.377 312.873 190.868C308.512 187.502 297.236 178.77 285.276 176.583C288.97 171.876 303.08 154.045 312.387 144.698L312.376 144.7ZM345.05 205.692C338.8 198.433 334.599 193.87 332.56 192.152C335.017 188.071 345.022 171.305 348.052 164.702C348.697 166.537 349.178 168.425 349.49 170.344C351.341 182.309 349.807 194.553 345.062 205.691L345.05 205.692Z" fill="black"/>
</svg>
