<svg width="506" height="382" viewBox="0 0 506 382" fill="none" xmlns="http://www.w3.org/2000/svg">
<path d="M448.46 327.67C433.021 346.756 391.203 363.045 354.976 363.775C354.49 363.775 354.125 364.261 354.125 364.747C354.125 365.234 354.49 365.598 355.098 365.598C391.689 364.747 434.237 348.214 449.918 328.764C450.283 328.399 450.162 327.792 449.797 327.427C449.432 327.184 448.824 327.184 448.46 327.67Z" fill="black"/>
<path d="M429.739 351.862C426.578 354.658 416.975 360.493 409.073 362.438C408.587 362.559 408.344 363.046 408.465 363.532C408.587 363.896 408.951 364.261 409.316 364.261C409.438 364.261 409.438 364.261 409.559 364.261C417.704 362.316 427.672 356.116 430.955 353.32C431.319 352.956 431.319 352.469 431.076 351.983C430.711 351.618 430.104 351.618 429.739 351.862Z" fill="black"/>
<path d="M237.667 153.346C237.18 153.468 236.816 153.832 236.937 154.44L267.572 353.806C267.693 354.292 268.058 354.536 268.423 354.536H268.544C269.03 354.414 269.395 354.049 269.274 353.442L238.639 154.075C238.639 153.589 238.153 153.225 237.667 153.346Z" fill="black"/>
<path d="M503.65 247.924L445.421 176.444C446.393 175.957 447.122 175.593 447.366 175.349C447.852 174.863 449.311 172.797 450.04 169.028C450.891 164.895 448.217 163.922 446.758 163.436C446.028 163.193 445.907 162.099 446.15 159.424C446.393 156.628 443.84 154.562 441.287 153.711C441.044 153.589 440.801 153.589 440.68 153.589C440.801 150.186 439.342 146.539 436.425 145.931C435.695 145.809 434.966 145.688 434.358 145.809C434.844 143.013 434.601 140.947 433.629 139.488C432.899 138.272 431.562 137.543 429.86 137.3C426.943 136.813 420.621 137.908 418.312 138.758C417.704 139.002 416.853 139.609 416.002 140.339L385.246 102.654C382.693 99.6146 378.195 99.0068 375.035 101.317L340.146 126.237C339.902 126.359 339.781 126.602 339.781 126.845C339.781 126.967 339.781 127.21 339.902 127.331C335.283 133.41 333.46 135.355 325.072 139.123C323.491 139.853 322.032 140.46 320.574 141.068C312.55 132.316 295.774 117.241 285.928 111.771C279.85 108.367 274.014 107.273 269.881 106.422C267.45 105.936 265.505 105.571 264.532 104.963C256.874 99.9793 246.784 98.8852 236.329 101.924C227.577 104.477 222.471 104.234 216.636 103.14C213.961 101.195 210.679 99.7362 206.789 99.1284C204.966 98.8852 203.628 98.8852 202.656 99.1284C206.911 89.6463 205.452 78.3408 203.507 70.6822C203.021 68.9803 202.656 67.2784 202.17 65.6981C207.275 57.067 207.519 47.9496 202.534 43.4517C201.562 42.6008 200.468 42.3576 199.252 42.7223C197.793 43.2086 196.578 44.6674 195.605 46.3693C194.268 43.087 192.931 39.8048 191.594 36.5225L190.864 34.5775C189.041 30.0796 187.217 26.3111 185.515 23.1504C186.731 22.1779 187.46 20.9623 187.703 19.625C187.947 17.1938 186.366 14.5193 182.962 11.2371C176.033 4.55103 158.285 3.33538 146.25 6.3745C146.493 5.40198 146.615 4.06477 146.128 3.09226C145.885 2.36287 145.277 1.8766 144.67 1.63347C141.023 0.296254 138.348 1.02565 136.403 3.94321C135.795 4.79416 135.188 6.13136 135.674 7.46857C135.917 8.19796 136.525 8.68423 137.497 9.17049C129.717 12.2096 124.368 15.4918 118.168 23.0289C112.82 29.5934 109.902 39.5617 111.847 45.0321C112.576 46.9771 113.792 48.3143 115.494 48.679C116.345 48.9221 117.074 48.9221 117.925 48.9221C118.168 48.9221 118.412 48.9221 118.655 48.9221C119.506 54.7572 121.451 59.863 123.76 65.8196C123.882 66.0628 123.882 66.1843 124.004 66.4275C120.843 64.8471 117.925 64.2393 116.467 66.1843C114.765 68.4941 114.643 73.2351 118.047 77.4898C120.6 80.7721 125.462 83.8112 129.96 84.419C132.756 93.6579 135.431 101.195 143.454 109.34C145.277 111.163 147.222 112.744 149.167 113.959C150.018 115.296 150.748 116.755 151.356 117.971C149.775 120.281 144.791 123.563 142.603 124.9C136.403 124.049 122.788 131.465 109.416 138.637C107.714 139.609 105.89 140.46 104.31 141.433C104.067 141.554 103.824 141.919 103.824 142.162C98.1103 144.472 93.4908 148.605 85.7107 158.573C84.495 160.032 83.2794 161.734 81.8206 163.558C73.3111 174.62 60.4252 191.274 46.6884 200.635L46.4453 200.756C43.6493 202.701 42.5552 203.552 44.3787 207.199C44.6218 207.686 45.1081 208.415 45.7159 209.266C44.2571 211.089 42.9199 212.67 41.7043 214.129C36.7201 220.207 35.0182 222.273 34.0457 224.218C33.9241 224.462 33.681 224.948 33.4379 225.556C31.2497 229.932 26.0224 240.387 25.4146 245.249C24.6852 250.72 24.6852 260.809 25.0499 263.241C25.4146 265.672 28.5753 270.535 31.4928 270.656C32.2222 270.656 32.9516 270.656 33.8026 270.535C35.7476 270.291 38.0573 270.17 39.6377 271.142C41.3396 272.115 45.8375 273.087 51.9157 273.087C57.7508 273.087 65.1662 272.115 72.8248 269.197C81.0912 266.037 86.5616 263.362 90.9379 261.174C94.9496 259.107 98.1103 257.527 101.879 256.433C109.78 254.002 119.019 251.692 128.623 253.88C129.231 254.002 129.839 254.123 130.446 254.366C134.58 261.782 134.701 272.48 134.701 273.695C134.701 274.303 135.431 275.519 137.133 277.342C135.917 278.923 135.917 280.989 137.254 283.177C137.376 283.42 138.105 284.271 139.199 285.609C140.536 300.439 141.144 307.612 139.078 319.89C137.74 328.156 133.486 335.815 129.474 343.23C126.678 348.458 123.882 353.32 122.18 358.304C122.059 358.547 122.18 358.912 122.302 359.155C122.666 359.641 130.568 370.461 149.046 377.268C157.069 380.186 166.43 381.766 177.006 381.766C184.178 381.766 192.08 381.037 200.346 379.7C201.197 379.578 202.048 379.457 203.142 379.213C217.001 376.782 253.591 370.218 290.912 378.727C291.277 378.849 291.641 378.606 291.884 378.362C292.128 377.998 292.006 377.633 291.763 377.268C291.763 377.268 288.845 373.5 290.912 356.481V356.359L319.723 350.403C321.303 350.038 322.64 349.065 323.491 347.85C324.221 348.579 324.95 348.822 325.801 348.822C327.017 348.822 328.475 348.093 329.934 347.242C331.271 346.513 332.001 346.877 332.973 347.363C333.703 347.728 334.675 348.214 335.891 347.85C337.106 347.485 337.714 346.634 338.079 346.026C338.565 345.297 338.687 345.175 339.538 345.418C340.024 345.54 340.389 345.662 340.753 345.783C342.091 346.269 343.428 346.756 344.643 346.026C345.494 345.54 346.102 344.567 346.345 343.23C346.832 341.164 347.318 338.975 347.926 338.611C348.047 338.611 348.29 338.611 348.29 338.732C349.02 338.976 349.506 340.921 349.749 342.015C349.992 343.23 350.357 344.446 351.451 344.081C352.18 343.96 352.302 343.23 353.031 340.799C353.396 339.583 354.004 337.152 354.49 336.301C354.976 336.909 355.827 338.489 356.192 339.462C357.165 341.528 357.651 342.258 358.38 342.501C358.623 342.622 358.988 342.501 359.231 342.379C359.839 342.015 359.839 341.164 359.961 338.368C359.961 336.666 360.082 332.654 360.812 331.925C361.541 332.168 362.878 334.478 363.729 335.815C365.188 338.246 366.16 339.583 367.133 339.583C367.619 339.583 367.984 339.34 368.227 338.975C368.956 338.003 368.956 336.058 369.078 333.14C369.078 332.168 369.078 330.952 369.2 330.223C369.807 330.952 370.901 332.168 371.509 333.019C374.062 336.301 375.156 337.517 376.25 337.517C376.615 337.517 376.98 337.274 377.223 336.909C377.709 336.18 377.831 334.721 378.074 332.168C378.195 330.466 378.56 327.548 378.925 326.697C379.776 327.062 381.599 329.129 382.693 330.344C385.124 332.897 385.975 333.87 386.948 333.87C387.313 333.87 387.556 333.748 387.799 333.384C388.164 332.897 388.285 332.046 388.285 330.223C388.407 328.035 388.528 324.631 390.109 323.901C391.446 323.294 394.12 326.211 395.457 327.792C396.916 329.615 397.889 330.588 398.861 329.737C399.469 329.25 399.469 328.156 399.348 325.603C399.226 323.537 398.983 319.768 399.955 319.16C400.685 318.674 403.845 321.227 405.304 322.321C407.614 324.266 408.951 325.239 410.045 324.631C410.896 324.023 411.018 322.686 411.139 320.011C411.261 318.309 411.382 315.27 412.112 314.784C413.814 313.568 414.665 314.176 416.367 315.635C417.218 316.364 418.068 317.094 419.163 317.459C420.257 317.823 421.108 317.702 421.837 317.215C423.174 316.243 423.296 313.933 423.296 311.623C423.296 309.557 423.782 307.004 424.755 306.518C425.362 306.275 426.213 306.882 426.7 307.369C430.103 310.408 431.684 311.745 432.899 311.259C433.872 310.772 433.872 309.435 433.872 309.071C433.872 308.584 433.872 308.098 433.872 307.49C433.75 304.33 433.75 301.777 435.452 301.534C436.789 301.29 439.099 302.263 441.166 303.114C443.962 304.208 445.664 304.816 446.758 304.33C447.122 304.208 447.366 303.843 447.609 303.479C448.217 301.655 447.852 299.345 447.366 296.549C447.244 296.063 447.244 295.577 447.122 294.969C447.001 294.361 446.879 293.146 447.609 292.538C448.46 291.93 450.162 292.052 452.471 293.024L453.201 293.267C456.483 294.604 457.82 295.212 458.914 294.483C459.765 293.753 459.644 292.416 459.522 291.079C459.401 290.714 459.401 290.35 459.279 289.985C463.169 288.891 472.165 288.04 472.165 288.04C472.408 288.04 472.529 287.918 472.651 287.797L503.042 258.013C505.838 255.339 506.081 250.963 503.65 247.924ZM440.68 155.534C441.287 155.777 444.57 156.993 444.326 159.424C444.083 161.369 443.84 164.409 446.15 165.26C447.609 165.746 448.824 166.11 448.217 168.785C447.487 172.189 446.15 173.891 445.907 174.255C445.785 174.377 445.056 174.742 444.083 175.106C443.597 175.349 442.989 175.593 442.26 175.836C439.95 176.687 437.033 177.538 434.48 177.902C429.982 178.632 428.401 177.902 427.915 177.416C427.794 177.051 428.158 175.228 429.496 174.498C429.982 174.255 431.076 173.891 432.292 173.526C434.237 172.918 436.668 172.189 438.491 171.216C438.735 171.095 438.978 170.973 439.221 170.852C439.464 170.73 439.829 170.487 440.072 170.244C441.409 169.15 442.989 167.448 443.111 167.448C443.476 167.083 443.476 166.475 443.111 166.111C442.746 165.746 442.138 165.746 441.774 166.111C441.287 166.597 439.95 167.934 438.856 168.785L437.154 166.597C438.491 165.989 439.707 165.624 440.68 165.26C441.287 165.016 441.895 164.895 442.382 164.652C442.868 164.409 443.111 163.922 442.868 163.436C442.625 162.95 442.138 162.828 441.652 162.95C441.166 163.193 440.68 163.315 440.072 163.558C438.978 163.922 437.519 164.409 435.938 165.26C435.452 165.503 434.844 165.746 434.358 166.111C433.872 166.354 433.386 166.718 432.899 167.205C428.28 170.608 421.472 174.863 417.096 175.836C416.245 175.957 414.665 176.2 414.178 175.228C413.692 174.498 414.057 173.04 414.908 172.189C416.488 170.365 420.864 167.205 424.998 164.044L426.335 163.071C427.672 162.099 428.888 161.126 429.86 160.397C429.982 160.275 430.225 160.154 430.347 160.032C430.711 159.789 430.954 159.546 431.319 159.303C432.899 158.087 434.115 157.115 435.088 156.628C436.911 155.413 439.099 155.048 440.68 155.534ZM432.656 147.876C433.021 147.754 433.264 147.754 433.629 147.754C434.48 147.633 435.209 147.754 435.938 147.876C437.762 148.241 438.856 151.036 438.735 153.589C437.033 153.711 435.331 154.197 434.115 154.927C433.021 155.534 431.805 156.507 429.982 157.844C429.739 158.087 429.374 158.33 429.131 158.573C429.009 158.695 428.766 158.817 428.523 159.06C427.551 159.789 426.457 160.64 425.119 161.734L423.904 162.707C420.743 165.138 417.704 167.448 415.516 169.271C412.233 171.216 407.979 171.702 406.155 170.73C405.426 170.365 405.426 170.001 405.426 169.757C405.183 167.569 407.492 165.746 409.559 164.044C410.532 163.315 411.382 162.585 411.99 161.856C413.692 159.911 416.367 157.358 419.284 154.805C420.621 153.589 421.837 152.738 423.053 152.009C423.539 151.766 424.025 151.401 424.511 151.158C425.606 150.672 426.7 150.064 428.037 149.578C429.982 148.605 431.319 148.119 432.656 147.876ZM411.382 157.966C412.841 156.993 414.543 155.534 415.759 154.319C416.367 153.832 416.853 153.346 417.218 153.103C418.312 152.252 420.014 151.036 421.472 150.186L421.715 150.55C420.5 151.28 419.284 152.131 417.947 153.346C415.637 155.291 413.449 157.358 411.747 159.181C411.869 158.695 411.626 158.33 411.382 157.966ZM423.053 149.213C423.174 149.213 423.174 149.091 423.296 149.091C423.539 149.091 424.147 148.97 424.876 148.848C424.39 149.091 423.904 149.335 423.417 149.578L423.053 149.213ZM415.637 142.892C416.124 142.405 416.61 142.041 416.974 141.676C417.704 141.068 418.433 140.582 418.798 140.339C420.865 139.488 426.821 138.637 429.374 139.002C430.59 139.245 431.441 139.609 431.927 140.46C432.656 141.554 432.778 143.499 432.292 146.052C431.319 146.295 430.103 146.66 428.888 147.146C428.766 146.782 428.28 146.539 427.915 146.539C427.794 146.539 423.904 147.025 422.931 147.268C422.688 147.268 422.323 147.511 421.959 147.754C421.472 147.997 420.986 148.362 420.378 148.727C418.676 149.821 416.853 151.158 416.245 151.644C415.88 151.887 415.394 152.374 414.665 152.981C413.327 154.197 411.261 156.142 409.681 156.993C409.316 157.236 408.951 157.358 408.708 157.479C408.586 157.479 408.465 157.601 408.222 157.479C407.979 157.479 407.735 157.236 407.371 156.993C406.763 156.264 406.641 155.17 406.885 154.683C408.586 150.793 409.437 149.821 410.896 148.119L411.382 147.633C412.112 146.539 413.935 144.594 415.637 142.892ZM264.532 107.03C265.748 107.516 267.328 107.759 269.273 108.124C273.407 108.854 278.999 109.948 284.834 113.23C294.073 118.457 310.484 133.166 318.507 141.676C312.429 143.986 308.417 144.837 308.417 144.837C307.323 145.08 300.88 145.445 295.531 145.445C294.316 143.499 292.128 142.284 289.696 142.527L254.078 146.539L254.199 145.688C256.266 134.504 261.129 108.246 264.532 107.03ZM237.18 103.383C246.662 100.83 255.78 101.803 262.83 106.179C259.548 109.826 256.509 123.32 252.497 145.445L252.254 146.903L243.988 147.876C240.584 132.316 236.451 111.285 237.18 103.383ZM235.357 103.869C234.992 112.379 238.882 132.802 242.043 147.997L236.086 148.605C231.831 146.052 217.852 142.041 201.927 138.151C206.06 133.774 211.165 131.586 217.487 131.465C219.553 131.465 221.377 131.708 222.714 132.072C224.538 132.437 225.996 132.68 226.969 131.829C227.698 131.221 227.941 130.37 227.941 128.79C227.941 122.469 225.875 112.014 218.946 105.207C223.687 105.936 228.428 105.693 235.357 103.869ZM206.06 100.83C221.863 103.383 226.118 120.281 226.118 128.912C226.118 130.127 225.875 130.492 225.753 130.614C225.389 130.857 224.294 130.614 222.957 130.37C221.498 130.127 219.553 129.641 217.244 129.763C210.436 130.006 204.601 132.437 200.103 137.3C206.06 127.574 206.911 118.7 203.021 107.881C201.805 104.599 201.319 102.289 201.076 101.317C201.805 100.952 203.142 100.344 206.06 100.83ZM183.327 80.6505C180.896 86.7287 174.21 89.16 168.132 89.16C167.281 89.16 166.308 89.16 165.457 89.0385C164.971 88.9169 164.606 88.5522 164.728 88.066C164.728 87.5797 165.214 87.215 165.7 87.3366C171.778 88.066 179.194 85.8778 181.625 80.0427C181.868 79.5564 182.355 79.3133 182.841 79.5564C183.327 79.678 183.57 80.1642 183.327 80.6505ZM184.057 102.532C184.543 102.532 185.029 102.897 185.029 103.505V109.826C185.029 110.312 184.664 110.799 184.057 110.799C183.57 110.799 183.084 110.434 183.084 109.826V103.505C183.206 102.897 183.57 102.532 184.057 102.532ZM172.994 114.081C172.751 114.324 172.508 114.446 172.265 114.446C172.022 114.446 171.9 114.446 171.657 114.202C167.524 111.042 166.186 106.665 165.822 104.842C165.7 104.356 166.065 103.869 166.551 103.748C167.037 103.626 167.524 103.991 167.645 104.477C167.888 105.693 168.982 109.826 172.751 112.744C173.237 113.108 173.359 113.716 172.994 114.081ZM165.214 114.324C165.579 114.567 165.7 115.175 165.336 115.54C165.214 115.783 164.849 115.904 164.606 115.904C164.363 115.904 164.241 115.904 163.998 115.661C159.865 112.5 158.528 108.124 158.163 106.301C158.042 105.814 158.406 105.328 158.893 105.207C159.379 105.085 159.865 105.45 159.987 105.936C160.351 107.273 161.445 111.406 165.214 114.324ZM163.512 118.214C166.43 118.214 169.712 117.849 173.237 117.12C176.763 116.391 180.531 115.296 184.786 113.959C191.958 111.528 196.699 107.759 199.86 103.383C200.225 104.599 200.711 106.422 201.44 108.61C205.209 119.187 204.236 127.818 198.036 137.421C185.151 134.382 171.535 131.343 161.081 129.155L160.959 129.033C155.61 124.535 154.395 122.347 154.03 120.645C153.908 120.037 153.544 119.187 152.936 118.214C152.936 118.092 152.814 117.971 152.814 117.849C152.571 117.241 152.207 116.634 151.842 115.904C155.246 117.363 159.136 118.214 163.512 118.214ZM188.554 96.2108C188.433 95.7245 188.554 95.2383 189.041 94.9951C189.527 94.752 190.013 94.9952 190.256 95.4814C190.986 97.3049 192.444 102.167 190.621 107.638C190.499 108.003 190.135 108.246 189.77 108.246C189.648 108.246 189.527 108.246 189.527 108.246C189.041 108.124 188.798 107.516 188.919 107.03C190.499 101.924 189.041 97.4264 188.554 96.2108ZM199.495 44.4243C199.981 44.1811 200.468 44.3027 200.954 44.7889C204.479 47.9496 205.452 55.0004 201.076 63.1452C200.103 60.1061 199.252 57.1885 198.158 54.271C198.28 53.5416 198.401 52.9338 198.523 52.4475C198.644 52.4475 198.766 52.5691 198.766 52.5691C199.252 53.0553 199.617 54.1494 199.495 56.0945C199.495 56.5807 199.86 57.067 200.346 57.067H200.468C200.954 57.067 201.319 56.7023 201.319 56.216C201.562 54.0279 201.076 52.0828 200.103 51.1103C199.86 50.8672 199.495 50.6241 199.131 50.5025C199.738 48.679 200.589 47.8281 201.319 47.7065C201.805 47.5849 202.17 47.0987 202.048 46.6124C201.927 46.1261 201.44 45.7615 200.954 45.883C199.738 46.1262 198.158 47.3418 197.186 50.8672L196.335 48.4359C196.942 46.734 198.158 44.9105 199.495 44.4243ZM136.889 6.98232C136.768 6.61763 136.889 6.00981 137.497 5.15885C138.713 3.21382 140.172 2.2413 143.575 3.57851C143.819 3.70007 143.94 3.82163 144.062 4.06476C144.426 4.79415 144.183 6.25292 143.819 7.10388C143.697 7.10388 143.575 7.22545 143.454 7.22545C142.117 7.59014 140.901 8.0764 139.807 8.4411C137.497 7.83327 137.011 7.22545 136.889 6.98232ZM123.031 46.1262C123.031 46.1262 122.909 46.1262 122.909 46.2477C121.572 46.8555 120.235 47.2202 118.898 47.3418C117.682 47.4634 116.467 47.4634 115.494 47.2202C114.4 46.9771 113.671 46.1261 113.184 44.7889C111.726 40.4126 113.549 31.4168 119.263 24.4876C125.705 16.5859 131.297 13.4252 140.172 10.2646C141.387 9.77831 142.725 9.41361 144.062 8.92735C155.367 5.28041 174.574 6.00979 181.382 12.5743C184.3 15.3703 185.758 17.68 185.515 19.5035C185.394 20.476 184.786 21.327 183.57 22.0563C183.57 22.0563 183.449 22.0563 183.449 22.1779C183.327 22.2995 183.084 22.421 182.841 22.5426C182.719 22.6642 182.476 22.6642 182.355 22.7857C182.233 22.7857 182.111 22.9073 181.99 22.9073C181.625 23.0289 181.382 23.1504 181.017 23.272C180.896 23.272 180.774 23.3936 180.653 23.3936C180.166 23.5151 179.68 23.6367 179.194 23.7583L178.708 23.8798C172.022 23.5151 159.744 25.0955 148.56 29.7149C137.376 34.3344 128.258 40.4126 126.556 44.3027C125.949 44.6674 125.219 45.1536 124.611 45.3968C123.76 45.7614 123.396 45.883 123.031 46.1262ZM182.355 27.4052C182.355 27.4052 182.355 27.5268 182.355 27.6483C182.355 27.7699 182.233 27.8915 182.111 28.013C182.111 28.1346 181.99 28.1346 181.868 28.2561C181.504 28.4993 181.017 28.864 180.288 29.2287C180.288 29.2287 180.288 29.2287 180.166 29.2287C179.559 29.4718 178.829 29.8365 177.978 30.0796C176.033 30.5659 173.845 31.1737 171.535 31.66C166.794 32.754 161.445 34.0912 154.759 36.2794C146.128 39.197 140.05 42.2361 135.674 44.4243C135.066 44.7889 134.337 45.0321 133.729 45.3968C130.568 46.9771 128.258 46.8555 127.65 46.3693C127.529 46.2477 127.286 46.1261 127.529 45.3968C128.501 42.4792 136.768 36.5225 148.681 31.5384C159.865 26.9189 170.684 25.8249 176.276 25.8249C177.006 25.8249 177.614 25.8249 178.1 25.8249H178.221C178.465 25.8249 178.586 25.8249 178.829 25.8249C179.437 25.8249 179.802 25.9464 180.166 26.068C180.41 26.068 180.531 26.1895 180.653 26.1895H180.774C181.017 26.3111 181.139 26.4327 181.382 26.4327C181.504 26.5542 181.747 26.6758 181.868 26.6758L181.99 26.7974C181.99 26.7974 181.99 26.7974 181.99 26.9189C182.111 27.0405 182.111 27.0405 182.111 27.1621C182.355 27.2836 182.355 27.4052 182.355 27.4052ZM119.019 76.6389C115.98 72.8704 116.223 68.9803 117.439 67.5215C118.047 66.7922 119.749 66.549 124.49 69.2234C124.854 70.0744 125.219 71.0469 125.584 72.0194C122.909 70.9254 120.235 70.4391 118.533 70.8038C118.047 70.9254 117.682 71.4116 117.804 71.8979C117.925 72.3841 118.412 72.7488 118.898 72.6273C119.749 72.3841 121.208 72.6273 122.788 72.992C122.545 73.8429 122.666 74.937 123.031 75.9095C123.517 77.1251 124.368 78.0977 125.462 78.4624C125.584 78.4624 125.705 78.5839 125.827 78.5839C126.192 78.5839 126.556 78.3408 126.678 77.9761C126.921 77.4898 126.678 77.0036 126.192 76.7605C125.341 76.3958 124.976 75.6664 124.855 75.1801C124.611 74.5723 124.611 73.9645 124.611 73.4782C125.219 73.7213 125.949 74.086 126.556 74.3292C126.921 75.5448 127.407 76.7605 127.772 78.0977C128.137 79.4349 128.623 80.7721 128.988 82.1093C128.988 82.2309 129.109 82.474 129.109 82.5956C125.219 81.9877 121.208 79.3133 119.019 76.6389ZM146.858 89.16C139.929 87.215 135.917 84.5406 133.486 80.2858C132.027 77.733 130.811 69.9528 129.839 63.5099C129.231 59.012 128.623 55.1219 128.015 53.5416L127.772 52.6906C127.164 50.8672 126.313 48.8006 125.827 46.734C125.949 46.734 126.07 46.6124 126.07 46.6124C126.192 47.0987 126.556 47.4634 126.8 47.7065C127.407 48.1928 128.38 48.5574 129.474 48.5574C131.054 48.5574 132.999 48.0712 134.944 47.0987C135.552 46.8555 136.16 46.4908 136.889 46.1262C141.266 43.938 147.222 40.8989 155.732 38.1029C162.296 35.9147 167.645 34.6991 172.265 33.4834C174.574 32.8756 176.763 32.3893 178.829 31.9031C179.437 31.7815 179.923 31.5384 180.41 31.4168C181.868 35.4285 184.421 41.6283 187.339 44.3027C191.472 48.0712 194.39 53.9063 196.456 63.2668C197.915 69.5881 196.213 74.086 195.362 75.5448C192.688 74.8154 183.084 72.3841 173.723 72.992C174.21 71.4116 174.331 69.2234 173.237 66.549C172.751 65.2118 171.657 63.3883 170.441 61.3217C168.253 57.4317 165.457 52.5691 165.214 49.0437C165.092 47.4634 165.822 46.0046 167.281 44.7889C169.833 42.6008 174.574 41.3851 177.735 42.1145C178.221 42.2361 178.708 41.8714 178.829 41.3851C178.951 40.8989 178.586 40.4126 178.1 40.291C174.453 39.4401 169.104 40.7773 166.065 43.3302C164.12 44.9105 163.147 46.9771 163.39 49.0437C163.634 53.0553 166.551 58.161 168.861 62.1727C170.077 64.2393 171.049 65.9412 171.535 67.1568C172.508 69.5881 172.508 71.8979 171.414 73.5998C171.414 73.5998 171.414 73.5998 171.292 73.7213C171.171 73.9645 170.928 74.2076 170.684 74.4507C170.563 74.5723 170.563 74.5723 170.441 74.6938C170.32 74.8154 170.077 75.0585 169.955 75.1801C169.833 75.3017 169.712 75.3017 169.712 75.4232C169.469 75.6664 169.104 75.7879 168.739 75.9095C168.739 75.9095 168.739 75.9095 168.618 75.9095C168.253 76.0311 167.888 76.1526 167.524 76.2742C167.402 76.2742 167.402 76.2742 167.281 76.2742C167.037 76.2742 166.794 76.3958 166.551 76.3958C166.43 76.3958 166.43 76.3958 166.308 76.3958C165.943 76.3958 165.7 76.3958 165.336 76.3958C165.214 76.3958 165.214 76.3958 165.092 76.3958C164.849 76.3958 164.606 76.2742 164.363 76.2742C164.241 76.2742 164.241 76.2742 164.12 76.1526C163.877 76.0311 163.634 75.9095 163.39 75.7879C162.175 75.0585 161.689 73.5998 161.81 71.8979C161.81 71.4116 161.445 70.9253 160.959 70.9253C160.473 70.9253 159.987 71.29 159.987 71.7763C159.865 73.5998 160.351 75.1801 161.324 76.2742C153.422 80.2858 148.195 87.0934 146.858 89.16ZM150.869 102.897C150.869 102.411 151.356 102.046 151.842 102.046C152.328 102.046 152.693 102.532 152.693 103.018C152.571 104.842 153.787 110.069 158.163 113.351C158.528 113.595 158.649 114.202 158.285 114.567C158.163 114.81 157.799 114.932 157.555 114.932C157.312 114.932 157.191 114.932 157.069 114.81C151.963 111.163 150.626 105.207 150.869 102.897ZM151.842 120.037C151.963 120.402 152.085 120.645 152.207 120.888C152.693 122.833 153.908 124.9 157.555 128.182C151.963 126.967 147.466 126.116 144.913 125.508C146.979 124.292 150.14 122.104 151.842 120.037ZM110.024 140.46C122.666 133.653 137.011 125.873 142.36 126.967C154.516 129.398 220.04 143.013 233.776 149.456L215.542 156.628C215.299 156.75 215.056 156.872 214.812 156.993C211.287 156.142 185.029 149.942 160.959 147.146C139.929 144.715 115.98 142.527 107.592 141.798C108.322 141.433 109.173 140.947 110.024 140.46ZM212.867 161.248L242.772 348.214L244.353 357.21C244.353 357.453 244.474 357.575 244.474 357.818L187.825 366.571C186.002 366.814 184.178 366.449 182.719 365.355C181.261 364.261 180.288 362.681 180.045 360.857L165.457 264.821C166.794 265.186 167.888 265.55 168.861 265.672C170.198 265.915 172.143 265.915 174.21 266.037L170.806 266.523C170.32 266.644 169.955 267.009 170.077 267.495C170.198 267.982 170.563 268.225 170.928 268.225H171.049L189.405 265.55L189.527 266.523C189.527 266.766 189.648 267.009 189.892 267.131C190.013 267.252 190.256 267.252 190.499 267.252H190.621L225.996 262.025L226.604 265.915L191.107 271.142C190.864 271.142 190.621 271.264 190.499 271.507C190.378 271.75 190.256 271.993 190.378 272.236L190.621 274.06L172.386 276.613C171.9 276.734 171.535 277.099 171.657 277.585C171.778 278.072 172.143 278.315 172.508 278.315H172.629L190.864 275.762L191.107 277.707C191.229 278.193 191.594 278.436 191.958 278.436H192.08L227.577 273.209L228.185 276.856L174.331 284.514C173.845 284.636 173.48 285.001 173.602 285.487C173.723 285.973 174.088 286.216 174.453 286.216H174.574L228.428 278.558L228.792 280.868L193.903 286.095C193.417 286.216 193.052 286.581 193.174 287.067L193.539 289.62L174.696 292.295C174.21 292.416 173.845 292.781 173.967 293.267C174.088 293.753 174.453 293.997 174.818 293.997H174.939L193.782 291.322L193.903 292.538C193.903 292.781 194.025 293.024 194.268 293.146C194.389 293.267 194.633 293.389 194.876 293.389H194.997L230.008 288.161L230.494 291.322L195.848 296.428C195.605 296.428 195.362 296.549 195.24 296.793C195.119 297.036 194.997 297.279 195.119 297.522L195.484 299.71L176.641 302.384C176.155 302.506 175.79 302.871 175.912 303.357C176.033 303.843 176.398 304.086 176.763 304.086H176.884L195.727 301.412L195.97 302.992C195.97 303.479 196.456 303.722 196.821 303.722H196.942L231.588 298.616L232.075 302.02L197.307 307.126C196.821 307.247 196.456 307.612 196.578 308.098L196.699 309.071L177.857 311.745C177.37 311.867 177.006 312.231 177.127 312.717C177.249 313.204 177.614 313.447 177.978 313.447H178.1L196.942 310.772L197.307 313.568C197.307 313.812 197.429 314.055 197.672 314.176C197.793 314.298 198.036 314.419 198.28 314.419H198.401L233.29 309.314L233.776 312.353L180.531 320.011C180.045 320.133 179.68 320.498 179.802 320.984C179.923 321.47 180.288 321.713 180.653 321.713H180.774L234.02 314.055L234.384 316.608L199.495 321.713C199.252 321.713 199.009 321.835 198.887 322.078C198.766 322.321 198.644 322.564 198.766 322.807L199.252 326.09L181.139 328.642C180.653 328.764 180.288 329.129 180.41 329.615C180.531 330.101 180.896 330.344 181.261 330.344H181.382L199.495 327.792L199.617 328.278C199.617 328.764 200.103 329.007 200.468 329.007H200.589L235.6 323.78L236.208 327.792L201.805 332.897C201.319 333.019 200.954 333.384 201.076 333.87L201.197 334.964L182.719 337.638C182.233 337.76 181.868 338.125 181.99 338.611C182.111 339.097 182.476 339.34 182.841 339.34H182.962L201.44 336.666L201.805 339.219C201.805 339.462 201.927 339.705 202.17 339.826C202.291 339.948 202.534 340.07 202.656 340.07H202.777L237.302 334.964L237.91 338.489L183.935 346.269C183.449 346.391 183.084 346.756 183.206 347.242C183.327 347.728 183.692 347.971 184.057 347.971H184.178L238.153 340.191L238.639 343.595L203.993 348.701C203.75 348.701 203.507 348.822 203.385 349.065C203.264 349.309 203.142 349.552 203.264 349.795L203.75 353.077L185.151 355.751C184.664 355.873 184.3 356.238 184.421 356.724C184.543 357.21 184.907 357.453 185.272 357.453H185.394L203.993 354.779V355.144C204.115 355.63 204.479 355.873 204.844 355.873H204.966L240.463 350.646H240.584H240.706H240.827C240.827 350.646 240.949 350.646 240.949 350.524C240.949 350.524 241.07 350.524 241.07 350.403C241.07 350.403 241.07 350.403 241.07 350.281C241.192 350.159 241.192 350.038 241.313 349.916V349.795V349.673V349.552L239.612 338.854L232.926 296.671V296.549L232.075 290.957V290.836L231.345 285.973L230.98 283.299L230.494 280.381C230.494 280.381 230.494 280.381 230.494 280.26L228.063 265.307L224.659 244.277C224.659 244.277 224.659 244.277 224.659 244.155L223.808 238.563L221.255 220.571L221.012 218.991L215.663 185.682L212.624 166.84L212.503 165.746C212.503 165.746 212.503 165.746 212.503 165.624C212.503 165.503 212.503 165.503 212.381 165.381C212.381 165.381 212.381 165.26 212.26 165.26L212.138 165.138C212.138 165.138 212.138 165.138 212.016 165.138C211.895 165.138 211.773 165.016 211.652 165.016H211.53L175.912 170.244C175.669 170.244 175.425 170.365 175.304 170.608C175.182 170.852 175.061 171.095 175.182 171.338L175.425 172.553L156.948 175.228C156.461 175.349 156.097 175.714 156.218 176.2C156.34 176.687 156.704 176.93 157.069 176.93H157.191L175.669 174.255L176.033 176.687C176.155 177.173 176.519 177.416 176.884 177.416H177.006L211.773 172.31L212.26 175.349L177.492 180.455C177.006 180.577 176.641 180.941 176.763 181.549V181.792L158.042 184.467C157.555 184.588 157.191 184.953 157.312 185.439C157.434 185.926 157.799 186.169 158.163 186.169H158.285L177.127 183.494L177.614 187.02C177.614 187.263 177.735 187.506 177.978 187.627C178.1 187.749 178.343 187.871 178.465 187.871H178.586L213.475 182.765L213.84 185.075L167.524 192.612C167.037 191.882 166.308 191.274 165.579 191.031C164.12 190.545 162.418 191.031 161.445 192.368C161.081 192.855 160.716 193.341 160.351 193.827C159.865 194.435 159.379 195.043 158.771 195.772C157.92 196.745 156.826 197.596 155.732 198.447L152.207 175.228C151.963 173.404 152.45 171.581 153.422 170.122C154.516 168.663 156.097 167.691 157.92 167.448L213.11 159.303C212.746 160.032 212.746 160.64 212.867 161.248ZM183.327 228.716H182.841C178.1 228.716 171.9 228.473 171.171 228.109L167.767 226.65C171.414 224.583 175.182 222.638 177.492 221.422L185.272 220.328C187.825 220.328 190.499 220.45 191.594 220.085C192.201 219.964 192.809 219.599 193.174 219.234L218.581 215.587L219.067 218.626L183.57 223.854C183.327 223.854 183.084 223.975 182.962 224.218C182.841 224.462 182.719 224.705 182.841 224.948L183.327 228.716ZM180.896 210.482C177.249 210.846 170.32 211.697 167.524 212.305C166.551 212.548 165.822 212.67 165.214 212.913C163.147 213.399 162.053 213.764 158.285 213.399C158.163 213.399 158.042 213.399 157.92 213.399L157.555 211.211C160.108 209.144 162.54 207.078 164.485 204.89L180.045 202.701L180.166 203.674C180.166 204.16 180.653 204.403 181.017 204.403H181.139L215.906 199.298L216.514 203.188L181.382 208.415C180.896 208.537 180.531 208.901 180.653 209.509L180.896 210.482ZM168.132 194.435L213.961 187.02L214.691 191.761L179.923 196.866C179.68 196.866 179.437 196.988 179.315 197.231C179.194 197.474 179.072 197.717 179.194 197.96L179.559 200.756L165.943 202.701C167.402 200.756 168.253 198.69 168.375 196.866C168.496 195.894 168.375 195.164 168.132 194.435ZM192.444 214.129L217.73 210.36L218.216 213.764L194.025 217.168C194.146 216.195 193.782 215.344 193.174 214.736C193.174 214.493 192.809 214.372 192.444 214.129ZM190.013 230.297L220.161 225.799L220.647 228.716L191.107 233.093C191.107 232.728 190.986 232.363 190.864 231.999C190.743 231.269 190.378 230.783 190.013 230.297ZM221.863 236.132L222.349 239.414L193.052 243.79C191.837 242.575 188.554 243.061 183.449 243.912C181.017 244.277 178.586 244.763 177.37 244.641C175.182 244.52 169.59 241.967 166.308 240.265C167.645 240.265 168.982 240.387 170.077 240.387C171.414 240.387 172.629 240.508 173.359 240.508C174.453 240.508 181.625 240.265 185.637 239.292L185.758 240.508C185.88 240.994 186.245 241.237 186.609 241.237H186.731L221.863 236.132ZM223.565 246.708L224.051 249.504L174.818 256.555C173.845 256.433 173.116 256.311 172.994 256.311C172.143 256.19 169.833 255.096 167.402 253.88L168.253 254.123C170.077 254.61 173.845 255.096 176.884 255.096C177.978 255.096 178.951 255.096 179.68 254.853C181.504 254.488 185.515 253.151 188.311 252.057C188.433 252.057 188.433 252.057 188.554 252.057H188.676L223.565 246.708ZM224.294 251.327L224.902 254.974L189.648 260.202C189.162 260.323 188.798 260.688 188.919 261.296L189.284 264.092L183.813 264.821C184.421 263.727 184.543 262.025 183.084 260.323C182.233 259.229 180.774 258.5 179.194 257.892L224.294 251.327ZM47.1747 202.58L47.4178 202.458C61.3977 192.976 74.4052 176.079 82.9147 165.016C84.2519 163.193 85.5891 161.491 86.8047 160.032C95.0711 149.456 99.5691 145.566 105.89 143.621C112.333 144.229 138.227 146.417 160.716 149.091C180.653 151.401 201.927 156.021 210.679 157.966L157.555 165.746C155.246 166.111 153.301 167.326 151.842 169.15C150.505 170.973 149.897 173.283 150.262 175.593L153.908 199.541C153.058 200.027 152.085 200.513 150.991 201C148.56 201.972 146.736 202.458 145.277 202.945C142.603 203.796 140.901 204.282 138.348 206.348C136.889 207.442 131.297 211.576 122.545 215.223C121.208 208.901 121.937 205.619 122.059 205.254C122.666 204.403 125.827 199.541 125.098 188.235C124.368 177.416 119.263 164.53 112.698 156.993C112.333 156.628 111.847 156.628 111.361 156.872C110.996 157.236 110.996 157.723 111.239 158.209C117.682 165.381 122.545 177.781 123.274 188.357C124.004 199.298 120.964 203.674 120.6 204.16C119.749 205.254 119.384 209.509 120.721 215.83C116.71 217.411 112.212 218.87 107.106 219.842C102 220.936 98.2318 221.666 95.3143 222.395C88.7498 223.854 85.346 224.583 77.2011 225.677C74.8914 226.042 66.1388 225.677 62.2487 224.948C55.3195 218.87 47.4178 209.509 45.959 206.713C44.5002 204.282 44.6218 204.282 47.1747 202.58ZM128.745 252.3C118.776 249.869 109.173 252.421 101.028 254.853C97.1378 256.068 93.8555 257.649 89.8439 259.715C85.4675 261.904 80.1187 264.578 71.9739 267.739C56.0489 273.817 42.5552 271.021 40.367 269.805C38.1789 268.59 35.5045 268.833 33.4379 269.076C32.7085 269.197 31.9791 269.197 31.3713 269.197C29.7909 269.197 26.9949 265.429 26.7518 263.362C26.3871 261.296 26.5087 251.327 27.1165 245.857C27.7243 241.359 32.9516 230.783 35.0182 226.771C35.2613 226.163 35.5045 225.799 35.626 225.434C36.477 223.611 38.3004 221.544 43.0415 215.709C44.1355 214.372 45.3512 212.913 46.6884 211.211C49.4844 214.858 53.9823 219.842 58.4802 224.218C58.2371 224.218 58.1155 224.097 57.8724 224.097C51.0647 222.517 44.1355 220.815 38.7867 224.462C38.422 224.705 38.3004 225.313 38.5436 225.677C38.7867 226.042 39.3945 226.163 39.8808 225.92C44.5002 222.76 50.8216 224.218 57.5076 225.799C58.8449 226.163 60.1821 226.407 61.5193 226.771C64.4369 227.379 70.1504 227.744 73.9189 227.744C75.3777 227.744 76.7149 227.744 77.3227 227.622C85.5891 226.407 88.8714 225.677 95.5574 224.218C98.5965 223.611 102.243 222.76 107.349 221.787C125.462 218.019 137.133 209.509 139.321 207.807C141.63 205.984 143.089 205.619 145.642 204.768C147.101 204.282 148.924 203.796 151.477 202.823C152.45 202.458 153.301 202.094 154.03 201.607C154.638 201.243 155.124 201 155.732 200.635C158.042 199.176 159.744 197.474 161.081 195.772C161.689 195.043 162.175 194.435 162.661 193.706C162.661 193.706 162.661 193.584 162.783 193.584C163.269 192.976 163.998 192.733 164.728 192.976C164.849 192.976 164.971 193.098 165.092 193.219C165.579 193.584 166.065 194.07 166.187 194.921C166.308 195.529 166.43 196.137 166.43 196.988C166.43 198.933 165.092 201.121 163.269 203.309C162.661 204.039 162.053 204.768 161.324 205.497C159.987 206.835 158.528 208.172 156.948 209.388C156.34 209.874 155.853 210.238 155.367 210.725C154.273 211.576 153.301 212.305 152.207 213.034C151.963 213.034 151.72 212.913 151.356 212.913C147.587 212.427 145.277 212.184 144.305 212.305C143.819 212.427 143.454 212.791 143.575 213.278C143.697 213.764 144.062 214.129 144.548 214.007C145.399 213.885 148.316 214.25 151.234 214.615C151.599 214.615 151.963 214.736 152.328 214.736C153.544 214.858 154.759 214.98 155.975 215.101C156.583 215.101 157.191 215.223 157.799 215.223C161.932 215.587 163.147 215.223 165.336 214.736C165.943 214.615 166.673 214.372 167.524 214.25C170.806 213.521 177.614 212.67 180.774 212.427C181.139 212.427 181.382 212.427 181.747 212.427C182.111 212.427 182.355 212.427 182.355 212.427C182.355 212.427 182.476 212.427 182.598 212.548C183.206 212.67 184.3 213.035 185.515 213.521C186.123 213.764 186.609 214.007 187.217 214.129C187.825 214.372 188.311 214.615 188.798 214.858C190.256 215.466 191.35 216.074 191.594 216.317C191.837 216.56 191.958 217.046 191.837 217.532C191.837 217.654 191.837 217.654 191.715 217.776C191.594 218.14 191.229 218.505 190.621 218.626C189.648 218.87 187.096 218.87 184.664 218.748C184.421 218.748 184.178 218.748 183.935 218.748C181.261 218.626 179.68 218.626 178.951 218.87C178.586 218.991 177.735 219.356 176.52 219.964C175.182 220.693 173.359 221.544 171.657 222.517C168.739 224.097 165.822 225.677 164.849 226.285C164.606 226.407 164.363 226.771 164.363 227.136C164.363 227.501 164.606 227.744 164.849 227.987L169.833 230.297C171.049 230.904 179.559 231.026 182.355 231.026C182.598 231.026 182.962 231.026 183.206 231.026C184.664 231.026 185.758 231.026 186.609 231.148C187.825 231.391 188.433 231.877 188.798 232.85C188.919 233.214 188.919 233.457 188.919 233.7C188.919 234.065 188.919 234.308 188.919 234.673C188.919 235.038 188.676 235.402 188.554 235.645C188.19 236.253 187.582 236.74 186.853 237.226C186.853 237.226 186.731 237.226 186.731 237.347C186.609 237.469 186.245 237.591 186.002 237.591C185.758 237.712 185.394 237.712 185.151 237.834C181.868 238.563 175.425 238.928 173.116 238.928C172.386 238.928 171.171 238.928 169.833 238.806C162.418 238.563 162.418 238.685 162.053 239.292C161.932 239.536 161.81 240.022 162.053 240.265C162.661 241.237 173.724 246.465 177.006 246.708C178.465 246.829 180.896 246.343 183.57 245.979C184.3 245.857 185.394 245.614 186.366 245.492C188.311 245.249 190.378 245.006 191.229 245.128C191.35 245.128 191.472 245.249 191.472 245.249C191.594 245.492 191.715 245.735 191.837 245.979C192.08 246.586 191.958 247.073 191.958 247.437C191.715 248.288 190.986 249.018 190.256 249.382C189.892 249.504 189.405 249.747 188.798 249.99C188.554 250.112 188.19 250.233 187.947 250.355C187.703 250.476 187.339 250.598 187.096 250.72C184.3 251.692 180.653 253.029 178.829 253.394C176.398 253.88 170.806 253.272 168.253 252.665L167.159 252.421C165.943 252.178 164.606 251.814 163.269 251.57C162.661 251.449 161.932 251.327 161.324 251.206C160.473 251.084 159.622 250.963 158.893 250.963C158.406 250.963 157.92 251.327 157.92 251.814C157.92 252.3 158.285 252.786 158.771 252.786C159.379 252.786 160.108 252.908 160.838 253.029C160.838 253.151 160.959 253.272 161.081 253.272C161.202 253.272 161.324 253.394 161.567 253.516C162.053 253.759 162.661 254.123 163.634 254.61C165.7 255.704 168.496 257.284 170.563 258.013C171.292 258.257 171.9 258.5 172.386 258.5C172.994 258.621 173.724 258.743 174.453 258.864C177.127 259.351 180.166 260.445 181.382 261.782C182.476 263.119 181.99 264.092 181.868 264.456C181.504 264.943 181.017 265.186 180.774 265.064C179.923 264.821 177.857 264.821 175.425 264.699C173.237 264.578 170.684 264.578 169.104 264.335C168.01 264.213 166.673 263.849 165.092 263.362C164.485 263.119 163.877 262.998 163.147 262.754C162.175 262.39 160.959 262.025 159.865 261.539C158.285 260.931 156.583 260.323 154.638 259.715C148.195 256.919 137.862 254.488 128.745 252.3ZM155.854 213.034C155.61 213.034 155.246 212.913 154.881 212.913C155.124 212.67 155.367 212.548 155.732 212.305L155.854 213.034ZM136.16 273.695C136.16 272.48 136.038 262.633 132.391 254.974C140.293 256.919 148.56 258.986 154.152 260.931C155.975 261.539 157.677 262.147 159.257 262.754C160.838 263.362 162.175 263.849 163.512 264.213L169.833 305.788C169.104 305.181 168.253 304.33 167.281 303.479C159.014 296.063 137.011 276.248 136.16 273.695ZM138.591 282.205C138.105 281.354 137.376 280.017 138.105 278.801C142.603 283.542 151.356 291.565 166.065 304.937C167.888 306.639 169.347 307.855 170.198 308.706C170.198 308.706 170.198 308.706 170.32 308.706L172.022 319.647C162.661 311.38 139.321 283.542 138.591 282.205ZM202.534 377.268C201.44 377.512 200.589 377.633 199.738 377.755C179.68 381.158 162.783 380.429 149.411 375.445C133.364 369.488 125.341 360.371 123.76 358.426C125.462 353.685 128.015 349.065 130.69 344.081C134.823 336.544 139.078 328.764 140.536 320.255C142.481 308.584 142.117 301.047 140.901 288.161C148.803 297.644 165.943 317.459 172.265 322.321L178.1 361.222C178.465 363.532 179.68 365.477 181.504 366.935C182.962 368.029 184.786 368.637 186.609 368.637C187.096 368.637 187.46 368.637 187.947 368.516L245.325 359.641C246.054 360.371 247.149 360.857 248.364 360.857L269.76 360.492H269.881L288.481 356.724C287.143 368.394 287.994 373.986 288.845 376.539C252.133 368.394 216.15 374.837 202.534 377.268ZM319.115 348.579L269.881 358.669L248.607 359.034C247.878 359.034 247.149 358.669 246.784 358.183C246.784 358.183 246.784 358.061 246.662 358.061C246.419 357.818 246.298 357.453 246.298 357.089L244.717 348.093L214.569 161.005C214.448 160.154 214.812 159.303 215.42 158.695C215.542 158.574 215.785 158.452 216.028 158.33L235.965 150.55L252.741 148.727H252.984L289.696 144.594C291.52 144.35 293.1 145.323 293.829 146.903C293.829 146.903 293.829 146.903 293.829 147.025C293.951 147.39 294.073 147.754 294.073 148.119L322.154 344.081C322.64 346.148 321.303 348.093 319.115 348.579ZM327.503 346.391C325.679 347.242 325.072 347.242 324.099 346.026C324.221 345.297 324.342 344.567 324.221 343.838L296.139 147.876C296.139 147.754 296.139 147.633 296.018 147.511C296.504 147.511 296.99 147.511 297.476 147.511L327.503 346.391ZM332.365 345.175C331.514 344.932 330.299 344.811 328.84 345.662C328.718 345.783 328.475 345.905 328.354 345.905L298.57 147.268C299.178 147.268 299.908 147.268 300.516 147.146L332.365 345.175ZM336.377 345.054C336.012 345.662 335.769 346.026 335.161 346.148C334.675 346.269 334.31 346.148 333.581 345.783C333.46 345.783 333.46 345.662 333.338 345.662L301.366 147.268C301.974 147.268 302.704 147.268 303.311 147.146L338.93 343.473C337.471 343.352 336.863 344.324 336.377 345.054ZM344.4 342.866C344.157 343.717 343.914 344.324 343.549 344.567C343.063 344.811 342.091 344.446 341.118 344.203C340.753 344.081 340.267 343.96 339.781 343.838L304.041 147.268C304.892 147.268 305.621 147.146 306.229 147.146L344.522 342.136C344.522 342.258 344.522 342.501 344.4 342.866ZM348.898 337.03C348.169 336.787 347.561 336.666 346.953 337.03C346.102 337.517 345.616 338.368 345.13 339.948L307.202 146.903C307.809 146.903 308.417 146.782 308.66 146.782C308.66 146.782 308.66 146.782 308.782 146.782L350.114 338.246C349.871 337.638 349.384 337.274 348.898 337.03ZM354.369 334.234C352.91 333.991 352.18 336.058 351.33 339.34L309.633 146.417C309.876 146.417 310.119 146.295 310.484 146.174L357.043 337.274C356.071 335.45 355.341 334.356 354.369 334.234ZM365.066 334.721C363.364 332.046 361.906 329.615 360.204 329.98C358.502 330.344 358.137 333.14 358.016 337.274L311.335 145.931C311.821 145.809 312.186 145.688 312.793 145.566L366.404 336.787C365.917 336.18 365.431 335.329 365.066 334.721ZM375.399 335.085C374.67 334.234 373.576 332.897 372.846 331.925C370.537 329.007 369.686 327.913 368.713 327.913C367.133 327.913 367.133 329.98 367.133 333.14C367.133 333.87 367.133 334.721 367.011 335.572L313.644 145.323C314.131 145.201 314.617 144.958 315.103 144.837L375.399 335.085ZM384.03 329.129C381.599 326.576 380.14 324.996 378.925 324.874C376.98 324.752 376.615 327.913 376.25 332.046C376.25 332.654 376.129 333.262 376.129 333.748L316.076 144.472C316.684 144.229 317.17 144.107 317.778 143.864L386.097 331.074C385.368 330.466 384.517 329.737 384.03 329.129ZM396.795 326.576C394.728 324.145 391.932 320.984 389.258 322.2C386.705 323.415 386.583 327.062 386.462 329.858L318.507 143.621C319.115 143.378 319.844 143.135 320.574 142.77L397.524 327.184C397.524 327.305 397.524 327.427 397.524 327.548C397.281 327.184 397.038 326.941 396.795 326.576ZM408.343 322.564C407.736 322.2 407.006 321.592 406.398 321.105C403.602 318.917 400.806 316.608 398.983 317.823C397.403 318.796 397.403 321.713 397.524 324.631L321.546 142.648C322.519 142.284 323.37 141.919 324.342 141.433L408.343 322.564ZM417.461 314.419C416.002 313.204 413.935 311.38 411.018 313.447C409.559 314.419 409.437 317.337 409.194 320.011C409.194 320.619 409.073 321.47 409.073 322.078L325.072 140.825C325.193 140.703 325.315 140.703 325.436 140.582C326.287 140.217 327.138 139.731 327.989 139.366L419.284 315.635C418.676 315.514 418.069 315.027 417.461 314.419ZM431.441 309.314C430.468 308.584 428.888 307.247 427.794 306.275C426.335 304.937 425.119 304.573 423.904 305.181C421.715 306.153 421.229 309.922 421.351 311.988C421.351 314.298 421.229 315.635 420.621 316.121C420.621 316.121 420.5 316.121 420.378 316.243L328.84 139.123C329.691 138.637 330.42 138.272 331.15 137.907L431.441 309.314ZM441.774 301.534C439.342 300.561 436.911 299.71 435.209 299.832C431.684 300.318 431.927 304.816 432.049 307.733C432.049 307.977 432.049 308.22 432.049 308.463L332.001 137.421C333.095 136.813 333.946 136.084 334.797 135.476L445.907 302.749C445.177 302.749 443.111 302.02 441.774 301.534ZM456.726 292.902C455.997 292.659 454.903 292.173 453.809 291.808L453.079 291.444C449.311 289.863 447.366 290.471 446.393 291.322C445.299 292.173 444.934 293.632 445.177 295.455C445.299 295.942 445.421 296.428 445.421 297.036C445.785 298.738 446.028 300.196 446.028 301.534L335.405 134.99C336.256 134.139 337.106 133.288 338.079 132.316L456.726 292.902ZM456.969 289.134C457.091 289.863 457.334 290.714 457.455 291.565C457.577 292.052 457.577 292.416 457.577 292.659L338.687 131.465C339.295 130.614 340.024 129.763 340.753 128.79L467.059 282.813C463.898 281.719 459.644 280.746 458.063 281.962C455.875 283.42 456.361 286.216 456.969 289.134ZM458.671 288.405C458.185 285.852 457.942 284.271 459.036 283.42C460.13 282.691 465.114 283.907 469.247 285.609L470.098 286.581C467.302 286.824 461.832 287.554 458.671 288.405ZM501.705 256.798L471.922 285.852L341.726 127.088L375.886 102.775C378.317 101.073 381.721 101.438 383.666 103.869L414.422 141.676C412.963 143.013 411.382 144.715 409.802 146.539L409.316 147.025C407.736 148.848 406.763 149.942 404.939 154.076C404.453 155.291 404.696 156.993 405.79 158.209C406.155 158.574 406.52 158.938 407.006 159.181C407.006 159.303 407.006 159.424 407.006 159.668C407.006 160.883 407.857 161.856 409.073 162.099C408.83 162.22 408.586 162.464 408.465 162.585C406.155 164.409 403.238 166.84 403.724 170.001C403.845 170.73 404.21 171.702 405.547 172.31C406.398 172.675 407.614 172.918 408.83 172.918C410.045 172.918 411.504 172.675 412.841 172.31C412.233 173.647 412.112 175.106 412.72 176.2C413.206 177.051 414.422 178.267 417.582 177.659C423.661 176.444 433.021 169.514 434.115 168.785C434.723 168.42 435.209 168.056 435.695 167.691L437.519 169.879C435.817 170.73 433.75 171.338 431.927 171.946C430.468 172.432 429.374 172.675 428.766 173.04C427.186 174.012 426.335 175.714 426.213 176.93C426.092 177.659 426.335 178.267 426.7 178.632C425.727 178.996 424.876 179.847 424.876 181.063C424.876 182.4 425.97 183.494 427.307 183.494C428.645 183.494 429.739 182.4 429.739 181.063C429.739 180.698 429.617 180.334 429.496 179.969C430.103 180.09 430.711 180.09 431.441 180.09C432.413 180.09 433.629 179.969 434.844 179.847H434.966C434.966 179.969 434.966 180.09 434.966 180.212C434.966 181.549 436.06 182.643 437.397 182.643C438.734 182.643 439.829 181.549 439.829 180.212C439.829 179.726 439.707 179.24 439.464 178.875C440.923 178.51 442.381 178.024 443.719 177.538L502.313 249.382C504.015 251.449 503.893 254.731 501.705 256.798Z" fill="black"/>
<path d="M402.873 140.582C404.21 140.582 405.304 139.488 405.304 138.151C405.304 136.814 404.21 135.719 402.873 135.719C401.535 135.719 400.441 136.814 400.441 138.151C400.32 139.488 401.414 140.582 402.873 140.582Z" fill="black"/>
<path d="M401.658 146.052C400.32 146.052 399.226 147.146 399.226 148.484C399.226 149.821 400.32 150.915 401.658 150.915C402.995 150.915 404.089 149.821 404.089 148.484C404.21 147.146 402.995 146.052 401.658 146.052Z" fill="black"/>
<path d="M400.077 156.993C398.74 156.993 397.646 158.087 397.646 159.424C397.646 160.762 398.74 161.856 400.077 161.856C401.414 161.856 402.508 160.762 402.508 159.424C402.508 158.087 401.414 156.993 400.077 156.993Z" fill="black"/>
<path d="M417.339 178.51C416.002 178.51 414.908 179.604 414.908 180.941C414.908 182.278 416.002 183.373 417.339 183.373C418.676 183.373 419.77 182.278 419.77 180.941C419.77 179.604 418.676 178.51 417.339 178.51Z" fill="black"/>
<path d="M444.813 199.419C443.476 199.419 442.382 200.513 442.382 201.851C442.382 203.188 443.476 204.282 444.813 204.282C446.15 204.282 447.244 203.188 447.244 201.851C447.366 200.513 446.272 199.419 444.813 199.419Z" fill="black"/>
<path d="M442.989 209.752C441.652 209.752 440.558 210.846 440.558 212.184C440.558 213.521 441.652 214.615 442.989 214.615C444.327 214.615 445.421 213.521 445.421 212.184C445.421 210.846 444.327 209.752 442.989 209.752Z" fill="black"/>
<path d="M462.926 209.995C461.589 209.995 460.495 211.09 460.495 212.427C460.495 213.764 461.589 214.858 462.926 214.858C464.264 214.858 465.358 213.764 465.358 212.427C465.479 211.211 464.264 209.995 462.926 209.995Z" fill="black"/>
<path d="M454.539 199.055C453.201 199.055 452.107 200.149 452.107 201.486C452.107 202.823 453.201 203.917 454.539 203.917C455.876 203.917 456.97 202.823 456.97 201.486C457.091 200.149 455.997 199.055 454.539 199.055Z" fill="black"/>
<path d="M452.715 210.968C451.378 210.968 450.284 212.062 450.284 213.399C450.284 214.736 451.378 215.83 452.715 215.83C454.052 215.83 455.146 214.736 455.146 213.399C455.146 212.062 454.052 210.968 452.715 210.968Z" fill="black"/>
<path d="M434.723 199.055C433.386 199.055 432.292 200.149 432.292 201.486C432.292 202.823 433.386 203.917 434.723 203.917C436.06 203.917 437.155 202.823 437.155 201.486C437.155 200.149 436.06 199.055 434.723 199.055Z" fill="black"/>
<path d="M445.663 187.871C444.326 187.871 443.232 188.965 443.232 190.302C443.232 191.639 444.326 192.733 445.663 192.733C447.001 192.733 448.095 191.639 448.095 190.302C448.095 188.965 447.001 187.871 445.663 187.871Z" fill="black"/>
<path d="M436.547 188.721C435.21 188.721 434.115 189.815 434.115 191.153C434.115 192.49 435.21 193.584 436.547 193.584C437.884 193.584 438.978 192.49 438.978 191.153C438.978 189.937 437.884 188.721 436.547 188.721Z" fill="black"/>
<path d="M425.849 188.721C424.512 188.721 423.418 189.815 423.418 191.153C423.418 192.49 424.512 193.584 425.849 193.584C427.186 193.584 428.28 192.49 428.28 191.153C428.402 189.937 427.308 188.721 425.849 188.721Z" fill="black"/>
<path d="M425.606 124.657C439.099 125.629 448.217 131.951 449.919 141.554C450.04 142.041 450.405 142.284 450.77 142.284H450.891C451.377 142.162 451.742 141.676 451.62 141.19C449.675 130.857 439.707 123.806 425.606 122.833C425.119 122.833 424.633 123.198 424.633 123.684C424.633 124.171 424.998 124.657 425.606 124.657Z" fill="black"/>
<path d="M440.923 120.524C445.907 119.673 448.581 122.226 449.432 124.778C449.554 125.143 449.918 125.386 450.283 125.386C450.405 125.386 450.526 125.386 450.526 125.386C451.013 125.265 451.256 124.657 451.134 124.171C449.675 120.037 445.542 117.971 440.558 118.7C440.072 118.822 439.707 119.308 439.829 119.794C439.95 120.28 440.315 120.645 440.923 120.524Z" fill="black"/>
<path d="M28.4538 291.079C10.3407 285.609 1.70958 275.032 2.80366 259.594C2.80366 259.107 2.43897 258.621 1.95271 258.621C1.46646 258.621 0.980193 258.986 0.980193 259.472C-0.235453 275.883 8.76032 287.189 27.846 292.902C27.9675 292.902 27.9676 292.902 28.0891 292.902C28.4538 292.902 28.8185 292.659 28.9401 292.295C29.3048 291.687 28.9401 291.201 28.4538 291.079Z" fill="black"/>
<path d="M366.039 63.6311C366.404 63.8742 366.89 63.9958 367.255 63.9958C368.228 63.9958 369.322 63.5096 370.416 62.6586C371.51 61.8076 372.482 60.592 373.333 59.3763C375.035 56.8235 376.008 53.9059 375.4 52.0825C375.4 51.9609 375.4 51.8393 375.278 51.7178C375.035 51.11 374.306 47.9493 373.455 44.0592L385.368 35.6712L387.556 44.667C385.611 44.7886 383.302 46.8552 381.6 49.408C379.533 52.5687 378.439 56.4588 380.384 57.796C380.749 58.0391 381.235 58.1607 381.6 58.1607C382.572 58.1607 383.666 57.6744 384.76 56.8235C385.855 55.9725 386.827 54.7569 387.678 53.5412C389.137 51.2315 390.109 48.6787 389.866 46.8552L385.49 28.8636C385.368 28.6205 385.247 28.3774 384.882 28.2558C384.639 28.1342 384.274 28.1342 384.031 28.3773L370.659 37.7378C370.416 37.981 370.173 38.3456 370.294 38.7103C371.631 45.3964 372.482 48.8002 372.847 50.7453C371.024 50.8668 368.714 52.9334 367.012 55.4863C365.067 58.4038 363.973 62.2939 366.039 63.6311ZM372.239 38.7103L384.031 30.444L384.882 33.8478L372.969 42.1142C372.726 41.0201 372.482 39.8044 372.239 38.7103Z" fill="black"/>
<path d="M28.3324 173.648C30.1559 173.648 32.7087 172.189 34.6538 170.122C36.2341 168.542 37.4498 166.718 37.936 165.138C37.936 165.016 37.936 164.895 38.0576 164.773C39.1517 160.154 38.6654 148.727 38.3007 142.527C39.8811 143.743 41.9476 143.986 43.6496 144.107C46.9318 144.35 49.2416 144.594 48.8769 150.186C48.8769 150.672 49.2415 151.158 49.7278 151.158C50.2141 151.158 50.7003 150.793 50.7003 150.307C51.065 142.892 47.0534 142.649 43.7711 142.405C41.0967 142.162 38.9085 142.041 37.936 138.88C37.8145 138.394 37.3282 138.151 36.8419 138.272C36.3557 138.394 36.1125 138.759 36.1125 139.245C36.5988 145.445 37.0851 156.021 36.4772 161.856C34.5322 161.126 31.6147 162.828 29.3049 165.138C26.6305 167.812 24.807 171.459 26.5089 173.161C27.1168 173.404 27.7246 173.648 28.3324 173.648Z" fill="black"/>
<path d="M94.5848 300.683C92.0319 300.683 89.6006 300.683 88.0203 298.859C87.7771 298.616 87.2909 298.495 86.9262 298.738C86.5615 298.981 86.4399 299.346 86.5615 299.832C87.1693 301.899 87.8987 304.208 88.6281 306.64C88.6281 306.64 88.6281 306.64 88.6281 306.761C89.8437 310.894 91.0594 315.028 91.7888 317.459C89.8437 317.58 87.534 319.647 85.8321 322.078C84.738 323.659 84.0086 325.36 83.6439 326.819C83.1577 329.129 84.0086 330.102 84.4949 330.466C84.8596 330.709 85.3459 330.831 85.7105 330.831C87.6556 330.831 90.0869 328.764 91.7888 326.211C93.3691 324.023 94.3416 321.47 94.0985 319.647C94.0985 319.161 93.0044 315.149 90.8163 307.734C91.6672 307.855 92.6397 307.855 93.4907 307.855C97.0161 307.855 99.812 307.977 100.906 312.11C101.028 312.475 101.392 312.839 101.757 312.839C101.879 312.839 101.879 312.839 102 312.839C102.486 312.718 102.73 312.232 102.608 311.745C101.149 306.275 97.1376 306.153 93.4907 306.153C92.3966 306.153 91.181 306.153 90.2085 305.91C89.8438 304.695 89.4791 303.357 88.9928 302.02C90.8163 302.749 92.7613 302.749 94.5848 302.749C98.1101 302.749 100.906 302.871 102 307.004C102.122 307.49 102.608 307.734 103.094 307.612C103.581 307.49 103.824 307.004 103.702 306.518C102.365 300.804 98.2317 300.683 94.5848 300.683Z" fill="black"/>
<path d="M151.842 49.8947C152.328 50.1378 152.815 49.8947 153.058 49.4084C153.301 48.9222 153.058 48.4359 152.571 48.1928C148.074 46.2477 140.537 47.8281 135.674 54.5141C135.431 54.8788 135.431 55.4866 135.917 55.7298C136.039 55.8513 136.282 55.8513 136.403 55.8513C136.646 55.8513 137.011 55.7298 137.133 55.4867C141.266 50.0162 147.83 48.3143 151.842 49.8947Z" fill="black"/>
<path d="M170.806 56.4593C170.32 56.2161 169.834 56.3377 169.591 56.824C169.348 57.3102 169.469 57.7965 169.955 58.0396C171.049 58.6474 172.265 58.8906 173.602 58.8906C176.52 58.8906 179.559 57.3102 182.233 54.3927C182.598 54.028 182.598 53.4202 182.233 53.0555C181.869 52.6908 181.261 52.6908 180.896 53.0555C177.614 56.824 173.724 58.0396 170.806 56.4593Z" fill="black"/>
<path d="M155.854 60.9571C156.097 60.4709 155.854 59.9846 155.368 59.7415C154.881 59.4984 154.395 59.7415 154.152 60.2278C152.936 62.659 150.505 63.6316 149.046 63.9962C146.615 64.6041 144.062 64.2394 142.725 63.1453C142.36 62.7806 141.752 62.9022 141.388 63.2669C141.023 63.6316 141.144 64.2394 141.509 64.6041C142.725 65.5766 144.548 66.0628 146.615 66.0628C147.587 66.0628 148.438 65.9413 149.411 65.6982C152.45 64.9688 154.638 63.2669 155.854 60.9571Z" fill="black"/>
</svg>
