<svg width="24" height="24" viewBox="0 0 24 24" fill="none" xmlns="http://www.w3.org/2000/svg">
<g clip-path="url(#clip0_1030_2434)">
<path fill-rule="evenodd" clip-rule="evenodd" d="M23.49 6.54C23.42 4.94 23.32 3.54 23.18 2.54C23.1226 1.9836 22.9191 1.45229 22.59 0.999995C22.4083 0.777253 22.1836 0.593391 21.9294 0.459379C21.6751 0.325367 21.3964 0.243953 21.11 0.219995C18.1765 -0.0252384 15.2298 -0.0720116 12.29 0.0799954C10.3009 0.129459 8.32138 0.373963 6.37999 0.809995C5.7736 1.01618 5.23214 1.37831 4.80999 1.86C4.51033 2.20967 4.31308 2.63532 4.23999 3.09C4.08748 5.02032 4.08748 6.95967 4.23999 8.89C4.32508 11.7624 4.57885 14.6273 4.99999 17.47C5.11601 17.9708 5.4204 18.4077 5.84999 18.69C6.40541 19.0507 7.04044 19.2703 7.69999 19.33C8.98191 19.4153 10.2681 19.4153 11.55 19.33C14.55 19.22 18.16 18.92 20.38 18.8C20.4242 18.7987 20.4677 18.7886 20.508 18.7702C20.5482 18.7518 20.5843 18.7255 20.6142 18.6928C20.644 18.6602 20.667 18.6218 20.6817 18.5801C20.6965 18.5384 20.7027 18.4942 20.7 18.45C20.7002 18.4053 20.691 18.3611 20.6731 18.3202C20.6552 18.2793 20.6289 18.2426 20.5959 18.2124C20.563 18.1823 20.524 18.1594 20.4817 18.1452C20.4393 18.131 20.3945 18.1258 20.35 18.13C18.13 18.22 14.48 18.45 11.53 18.51C10.2891 18.5573 9.04652 18.5239 7.80999 18.41C7.37968 18.3621 6.96233 18.2332 6.57999 18.03C6.43883 17.9516 6.31479 17.8457 6.21518 17.7186C6.11557 17.5915 6.0424 17.4458 5.99999 17.29C5.66855 14.969 5.45495 12.6326 5.35999 10.29C5.17848 7.96019 5.17848 5.6198 5.35999 3.29C5.41736 2.97804 5.57544 2.69351 5.80999 2.48C6.06067 2.2239 6.36448 2.02591 6.69999 1.9C8.55287 1.48593 10.4419 1.25482 12.34 1.21C15.2236 1.02161 18.1164 1.02161 21 1.21C21.1602 1.21709 21.3171 1.25821 21.4602 1.33063C21.6033 1.40304 21.7294 1.50509 21.83 1.63C22.05 1.92276 22.1911 2.26707 22.24 2.63C22.41 3.63 22.54 5 22.64 6.57C22.86 9.92 22.96 13.96 23.05 15.9C23.0713 16.3556 22.9785 16.8093 22.78 17.22C22.7119 17.4082 22.5941 17.5745 22.4392 17.7012C22.2843 17.828 22.098 17.9105 21.9 17.94C21.8611 17.94 21.8225 17.9478 21.7867 17.963C21.7508 17.9782 21.7184 18.0004 21.6913 18.0284C21.6642 18.0564 21.6431 18.0896 21.6291 18.1259C21.6152 18.1623 21.6087 18.2011 21.61 18.24C21.6126 18.3178 21.6453 18.3916 21.7013 18.4457C21.7573 18.4998 21.8321 18.53 21.91 18.53C22.1627 18.5173 22.4086 18.4433 22.6264 18.3144C22.8442 18.1854 23.0273 18.0055 23.16 17.79C23.5296 17.2191 23.7178 16.5498 23.7 15.87C23.65 14 23.63 9.89999 23.49 6.54Z" fill="black"/>
<path fill-rule="evenodd" clip-rule="evenodd" d="M19.47 20.43C19.3812 20.4186 19.2915 20.4427 19.2204 20.497C19.1493 20.5512 19.1024 20.6314 19.09 20.72C19.0447 21.0581 18.9745 21.3923 18.88 21.72C18.78 22.06 18.7 22.27 18.55 22.32C16.5244 22.7223 14.4651 22.9299 12.4 22.94C9.28592 23.0741 6.16654 23.014 3.05997 22.76C2.90601 22.7457 2.75658 22.7001 2.62077 22.6262C2.48496 22.5523 2.3656 22.4515 2.26997 22.33C2.06085 22.0332 1.92701 21.69 1.87997 21.33C1.66997 20 1.52997 18 1.40997 15.85C1.22997 12.72 1.09997 9.34 0.99997 7.6C0.976264 7.13339 1.06187 6.66768 1.24997 6.24C1.31382 6.04358 1.43074 5.86863 1.5878 5.73451C1.74487 5.60038 1.93597 5.5123 2.13997 5.48C2.21779 5.47741 2.29155 5.44466 2.34567 5.38868C2.39978 5.3327 2.43001 5.25787 2.42997 5.18C2.42999 5.14106 2.42217 5.10252 2.40698 5.06667C2.39178 5.03081 2.36952 4.99839 2.34153 4.97133C2.31353 4.94426 2.28037 4.92311 2.24402 4.90914C2.20767 4.89517 2.16889 4.88866 2.12997 4.89C1.87232 4.90337 1.62186 4.97962 1.40048 5.1121C1.17909 5.24458 0.993521 5.42926 0.85997 5.65C0.467403 6.24109 0.271426 6.94101 0.29997 7.65C0.29997 9.65 0.29997 13.84 0.42997 17.31C0.49997 18.97 0.61997 20.46 0.76997 21.49C0.844605 22.0345 1.05052 22.5528 1.36997 23C1.55633 23.2458 1.79253 23.4495 2.06309 23.5977C2.33365 23.7459 2.63247 23.8353 2.93997 23.86C5.57948 24.043 8.22764 24.0664 10.87 23.93C13.5248 23.8894 16.1685 23.5778 18.76 23C18.9048 22.942 19.0357 22.8541 19.1442 22.7421C19.2528 22.6301 19.3365 22.4965 19.39 22.35C19.5862 21.8604 19.7108 21.3451 19.76 20.82C19.767 20.7753 19.7651 20.7296 19.7543 20.6857C19.7435 20.6417 19.724 20.6003 19.697 20.564C19.67 20.5277 19.636 20.4971 19.597 20.4741C19.558 20.4511 19.5148 20.4361 19.47 20.43Z" fill="black"/>
<path fill-rule="evenodd" clip-rule="evenodd" d="M16.4499 9.27C16.068 9.33539 15.704 9.48049 15.3818 9.69586C15.0596 9.91123 14.7864 10.192 14.5799 10.52C14.4175 10.8104 14.3365 11.1392 14.3453 11.4719C14.3541 11.8045 14.4524 12.1286 14.6299 12.41C14.8068 12.6818 15.0405 12.9121 15.3151 13.0847C15.5896 13.2574 15.8983 13.3684 16.2199 13.41C16.4462 13.43 16.6737 13.43 16.8999 13.41C17.135 13.3873 17.3667 13.337 17.5899 13.26C18.0063 13.1159 18.3762 12.8626 18.6612 12.5266C18.9462 12.1906 19.1357 11.7843 19.2099 11.35C19.2976 10.2755 19.2269 9.19393 18.9999 8.14L18.7899 6.28C18.7899 6.28 18.7199 4 18.4499 4C17.1078 3.81948 15.7424 3.93554 14.4499 4.34C13.2773 4.65031 12.1557 5.1286 11.1199 5.76C10.9374 5.87347 10.7834 6.02744 10.6699 6.21C10.5672 6.42316 10.5061 6.65395 10.4899 6.89C10.4698 7.1663 10.4698 7.4437 10.4899 7.72C10.5966 8.77831 10.794 9.82549 11.0799 10.85H10.7899C10.2468 10.8341 9.71315 10.9955 9.26995 11.31C8.82199 11.6161 8.47416 12.0474 8.26995 12.55C8.03426 13.1273 8.01649 13.7706 8.21995 14.36C8.30018 14.5914 8.43186 14.8017 8.60506 14.9749C8.77827 15.1481 8.98851 15.2798 9.21995 15.36C9.40467 15.4331 9.59538 15.4899 9.78995 15.53C9.99023 15.5763 10.1945 15.603 10.3999 15.61C10.6795 15.6258 10.9592 15.5793 11.2186 15.4738C11.478 15.3683 11.7107 15.2065 11.8999 15C12.3499 14.4143 12.5768 13.6876 12.5399 12.95C12.5344 12.3789 12.4742 11.8096 12.3599 11.25C12.0273 10.0749 11.7734 8.87891 11.5999 7.67C11.5601 7.43879 11.5401 7.20461 11.5399 6.97C11.5256 6.88729 11.5256 6.80271 11.5399 6.72C11.5399 6.72 11.8199 6.49 12.0899 6.33C13.1225 5.72285 14.2326 5.25861 15.3899 4.95C16.2762 4.69606 17.2006 4.60126 18.1199 4.67C18.0752 5.86036 18.0986 7.05231 18.1899 8.24C18.1899 8.65 18.1899 9.1 18.2499 9.55C17.7062 9.23455 17.0638 9.13463 16.4499 9.27ZM11.1899 14.08C11.1141 14.216 11.0019 14.3282 10.8659 14.4042C10.7299 14.4801 10.5755 14.5168 10.4199 14.51H9.99995C9.85083 14.484 9.70378 14.4472 9.55995 14.4C9.4334 14.3594 9.3197 14.2863 9.23021 14.1881C9.14072 14.0898 9.07857 13.9698 9.04995 13.84C8.95711 13.5131 8.95711 13.1669 9.04995 12.84C9.16864 12.4747 9.39526 12.1539 9.69995 11.92C10.0028 11.6791 10.3735 11.5392 10.7599 11.52H11.2099C11.2099 11.67 11.2599 11.82 11.2799 11.96C11.3324 12.2908 11.3592 12.6251 11.3599 12.96C11.3967 13.3416 11.3383 13.7264 11.1899 14.08ZM18.1099 10.25C18.1506 10.2985 18.2074 10.3305 18.2699 10.34C18.2518 10.6029 18.2117 10.8638 18.1499 11.12C18.1008 11.3689 17.9872 11.6006 17.8205 11.7919C17.6538 11.9831 17.4398 12.1273 17.1999 12.21C17.0685 12.26 16.9303 12.2903 16.7899 12.3C16.6403 12.3148 16.4896 12.3148 16.3399 12.3C16.1766 12.2889 16.0179 12.2409 15.8758 12.1595C15.7337 12.078 15.6121 11.9654 15.5199 11.83C15.4268 11.7032 15.3693 11.5538 15.3534 11.3973C15.3376 11.2408 15.364 11.0828 15.4299 10.94C15.5595 10.7153 15.7337 10.5196 15.9418 10.3648C16.1499 10.21 16.3875 10.0995 16.6399 10.04C16.8826 9.94732 17.1449 9.91797 17.4021 9.95471C17.6593 9.99145 17.9029 10.0931 18.1099 10.25Z" fill="black"/>
</g>
<defs>
<clipPath id="clip0_1030_2434">
<rect width="24" height="24" fill="white"/>
</clipPath>
</defs>
</svg>
