<svg width="24" height="24" viewBox="0 0 24 24" fill="none" xmlns="http://www.w3.org/2000/svg">
<g clip-path="url(#clip0_1030_2534)">
<path fill-rule="evenodd" clip-rule="evenodd" d="M19.57 11.73C20.23 11.16 20.95 10.49 21.62 9.79999C22.0674 9.34825 22.4882 8.87077 22.88 8.36999C23.2709 7.96566 23.6071 7.51179 23.88 7.01999C24.0439 6.6755 24.0655 6.28027 23.94 5.91999C23.7768 5.50416 23.5396 5.12131 23.24 4.78999C22.8471 4.36934 22.4333 3.96883 22 3.58999C21.45 3.07999 20.9 2.21999 20.26 1.58999C19.9343 1.25583 19.5472 0.987606 19.12 0.799991C18.8207 0.704956 18.4993 0.704956 18.2 0.799991C17.7769 0.958625 17.3741 1.16674 17 1.41999C16.3719 1.79617 15.7765 2.22434 15.22 2.69999C14.43 3.41675 13.6883 4.1851 13 4.99999C11.43 6.77999 12.66 6.92999 10.44 4.44999L7.99998 1.92999C7.64311 1.52082 7.2553 1.13969 6.83998 0.789991C6.47216 0.522632 6.02421 0.388599 5.56998 0.409991C5.25429 0.428124 4.94671 0.516981 4.66998 0.669991C4.32548 0.858073 3.99164 1.06506 3.66998 1.28999C3.41025 1.44767 3.16287 1.62484 2.92998 1.81999L2.28998 2.42999C1.76899 3.00762 1.33448 3.65771 0.999982 4.35999C0.747279 4.84903 0.610419 5.38962 0.599982 5.93999C0.61782 6.15308 0.686396 6.35881 0.799982 6.53999C1.0258 6.83769 1.27313 7.11844 1.53998 7.37999L5.30998 11.24C5.37371 11.3035 5.46001 11.3392 5.54998 11.3392C5.63995 11.3392 5.72625 11.3035 5.78998 11.24C5.85184 11.1734 5.88621 11.0859 5.88621 10.995C5.88621 10.9041 5.85184 10.8166 5.78998 10.75L2.10998 6.86999C1.94998 6.67999 1.70998 6.46999 1.53998 6.22999C1.45822 6.13739 1.40599 6.02248 1.38998 5.89999C1.42095 5.48167 1.54387 5.07533 1.74998 4.70999C2.05029 4.08835 2.43751 3.51258 2.89998 2.99999C3.64567 2.21407 4.57786 1.62931 5.60998 1.29999C5.85663 1.29439 6.09738 1.37582 6.28998 1.52999C6.64746 1.85974 6.9816 2.21393 7.28998 2.58999L9.58998 5.07999C9.77998 5.29999 10.45 6.31999 10.95 6.83999C11.1523 7.08866 11.4354 7.25851 11.75 7.31999C12.0251 7.32005 12.2925 7.22858 12.51 7.05999C12.9668 6.64219 13.3882 6.18731 13.77 5.69999C14.3337 5.06495 14.9312 4.46074 15.56 3.88999C16.1766 3.33823 16.8466 2.84915 17.56 2.42999C18.88 1.63999 19.25 2.42999 19.33 2.42999C19.96 3.05999 20.52 3.92999 21.07 4.42999C21.41 4.74999 21.84 5.12999 22.2 5.53999C22.3938 5.75531 22.5494 6.0022 22.66 6.26999C22.71 6.40999 22.58 6.53999 22.48 6.67999C22.27 6.97999 22 7.25999 21.82 7.47999C21.4495 7.93986 21.0556 8.38043 20.64 8.79999C20 9.45999 19.3 10.11 18.64 10.66C18.37 10.89 17.9 11.18 17.54 11.48C17.3249 11.6483 17.139 11.8511 16.99 12.08C16.9142 12.207 16.8743 12.3521 16.8743 12.5C16.8743 12.6479 16.9142 12.793 16.99 12.92C17.1853 13.1786 17.4101 13.4136 17.66 13.62C18.2 14.23 18.81 14.81 19.37 15.43C19.5969 15.675 19.8106 15.9321 20.01 16.2C20.4748 16.7664 20.8897 17.372 21.25 18.01C21.4547 18.359 21.565 18.7554 21.57 19.16C21.57 19.29 21.39 19.35 21.26 19.45C21.13 19.55 20.88 19.71 20.74 19.81C20.0627 20.3407 19.415 20.9082 18.8 21.51C18.5472 21.7298 18.2835 21.9367 18.01 22.13C17.45 22.51 16.81 22.25 16.16 21.86C15.1082 21.1041 14.1274 20.2539 13.23 19.32C12.9 18.9252 12.5495 18.548 12.18 18.19C11.8968 17.9674 11.5383 17.8634 11.18 17.9C10.8815 17.9559 10.5943 18.0606 10.33 18.21C9.83146 18.5109 9.35371 18.845 8.89998 19.21C8.33998 19.61 7.73998 20.02 7.11998 20.4C6.49998 20.78 5.99998 21.22 5.33998 21.55L3.99998 22.33C3.81962 22.1886 3.65229 22.0313 3.49998 21.86C3.09998 21.39 2.68998 20.79 2.49998 20.6C2.03647 20.1274 1.61489 19.6155 1.23998 19.07C1.03199 18.7752 0.907596 18.4297 0.879982 18.07C0.902843 17.8658 0.974905 17.6702 1.08998 17.5C1.33123 17.1779 1.59171 16.8707 1.86998 16.58C2.4012 15.9097 2.99377 15.2903 3.63998 14.73C4.28535 14.1576 4.97408 13.636 5.69998 13.17C5.74984 13.146 5.79403 13.1117 5.82961 13.0693C5.86518 13.0269 5.89134 12.9775 5.90633 12.9242C5.92132 12.871 5.92481 12.8151 5.91656 12.7604C5.90831 12.7057 5.88851 12.6534 5.85848 12.6069C5.82845 12.5604 5.78888 12.5209 5.74239 12.4909C5.6959 12.4609 5.64356 12.4411 5.58884 12.4329C5.53413 12.4247 5.47829 12.4282 5.42504 12.4432C5.37178 12.4582 5.32234 12.4844 5.27998 12.52C4.51382 12.9825 3.78493 13.504 3.09998 14.08C2.41367 14.662 1.78112 15.3046 1.20998 16C0.908052 16.3171 0.624267 16.6509 0.359982 17C0.156621 17.2971 0.0326899 17.6414 -1.75539e-05 18C-0.0031279 18.5522 0.160698 19.0925 0.469982 19.55C0.86459 20.1407 1.30958 20.6961 1.79998 21.21C2.21339 21.7989 2.66081 22.3632 3.13998 22.9C3.33806 23.1102 3.59671 23.2535 3.87998 23.31C4.08343 23.3071 4.28417 23.2629 4.46998 23.18C4.90998 22.99 5.46998 22.56 5.79998 22.42C6.43998 22.1 7.08998 21.74 7.72998 21.35C8.36998 20.96 9.00998 20.55 9.58998 20.14C9.88998 19.93 10.31 19.6 10.74 19.35C10.9408 19.21 11.1693 19.1146 11.41 19.07C11.53 19.07 11.62 19.16 11.72 19.26C12.04 19.57 12.32 20.02 12.56 20.26C13.643 21.4571 14.8965 22.4882 16.28 23.32C16.6646 23.5295 17.0981 23.6326 17.5359 23.6185C17.9736 23.6044 18.3996 23.4738 18.77 23.24C19.0856 23.023 19.3893 22.7894 19.68 22.54C20.2754 21.9748 20.8995 21.4408 21.55 20.94C21.9117 20.7186 22.2472 20.457 22.55 20.16C22.7558 19.9369 22.8823 19.6522 22.91 19.35C22.9251 18.7204 22.7696 18.0984 22.46 17.55C22.0756 16.8436 21.627 16.1741 21.12 15.55C20.8964 15.25 20.656 14.9629 20.4 14.69C19.85 14.07 19.24 13.5 18.71 12.89L18.42 12.62C18.81 12.27 19.3 12 19.57 11.73Z" fill="black"/>
</g>
<defs>
<clipPath id="clip0_1030_2534">
<rect width="24" height="24" fill="white"/>
</clipPath>
</defs>
</svg>
