<svg width="24" height="24" viewBox="0 0 24 24" fill="none" xmlns="http://www.w3.org/2000/svg">
<g clip-path="url(#clip0_1030_2555)">
<path d="M16.19 8.06002C16.0108 7.08004 15.5801 6.16343 14.94 5.40002C14.75 5.17002 14.55 4.90002 14.32 4.67002C14.1526 4.49472 13.9564 4.3493 13.74 4.24002C13.6648 4.20194 13.5782 4.19313 13.4969 4.2153C13.4156 4.23747 13.3454 4.28905 13.3 4.36002H13.17C12.17 4.94002 11.17 5.56002 10.25 6.22002C9.78001 6.55002 9.31001 6.88002 8.85001 7.22002L7.51001 8.35002C6.82001 8.96002 6.09001 9.58002 5.42001 10.25C5.11001 10.56 4.82001 10.88 4.54001 11.25C4.38509 10.7146 4.33751 10.1539 4.40001 9.60002C4.68903 7.92491 5.4848 6.37874 6.68001 5.17002C7.00982 4.84847 7.39634 4.59079 7.82001 4.41002C8.41917 4.19124 9.05215 4.07953 9.69001 4.08002C10.7003 4.07779 11.7073 4.19527 12.69 4.43002C12.7591 4.43479 12.8278 4.41549 12.8843 4.37538C12.9408 4.33528 12.9817 4.27685 13 4.21002C13.0184 4.13186 13.0057 4.04962 12.9647 3.98061C12.9237 3.91159 12.8575 3.86119 12.78 3.84002C11.7642 3.56577 10.7212 3.40479 9.67001 3.36002C8.94055 3.33367 8.2123 3.43867 7.52001 3.67002C5.39001 4.42002 3.59001 7.47002 3.31001 9.47002C3.18399 10.532 3.35355 11.6082 3.80001 12.58C4.24306 13.5364 4.91652 14.3679 5.76001 15C6.2386 15.347 6.77788 15.6013 7.35001 15.75C7.8878 15.9001 8.44189 15.984 9.00001 16C10.5578 16.0311 12.0862 15.5729 13.37 14.69C14.6622 13.8166 15.596 12.5064 16 11C16.2712 10.0446 16.336 9.0424 16.19 8.06002ZM4.86001 12.06C4.83243 12.0052 4.80903 11.9484 4.79001 11.89C5.17046 11.5238 5.57467 11.183 6.00001 10.87C6.73001 10.29 7.50001 9.77002 8.24001 9.24002C8.98001 8.71002 9.50001 8.24002 10.11 7.75002C10.72 7.26002 11.32 6.75002 11.94 6.22002C12.56 5.69002 13 5.38002 13.54 5.00002C13.6249 5.06425 13.7051 5.13443 13.78 5.21002C13.98 5.43002 14.16 5.69002 14.33 5.91002C14.81 6.49264 15.1519 7.17641 15.33 7.91002C14.27 8.56002 13.19 9.15002 12.13 9.79002C11.3445 10.2537 10.5835 10.7577 9.85001 11.3C8.69238 12.1876 7.63002 13.193 6.68001 14.3L6.46001 14.17C5.76115 13.6255 5.21086 12.9135 4.86001 12.1V12.06ZM15.14 10.71C14.7642 11.9887 13.936 13.087 12.81 13.8C11.6939 14.5141 10.3835 14.8635 9.06001 14.8C8.58668 14.7939 8.11612 14.7267 7.66001 14.6C7.53001 14.6 7.41001 14.51 7.29001 14.47C7.74001 14.08 8.19001 13.72 8.66001 13.37C9.13001 13.02 9.66001 12.71 10.13 12.37L11.61 11.37C12.9033 10.4834 14.1733 9.57002 15.42 8.63002C15.4518 9.34764 15.357 10.0653 15.14 10.75V10.71Z" fill="black"/>
<path d="M23.25 20.58C23.21 20.3615 23.1497 20.1473 23.07 19.94C22.9338 19.5848 22.7523 19.2487 22.53 18.94C22.2262 18.5006 21.892 18.0829 21.53 17.69C21.0008 17.1151 20.4328 16.5772 19.83 16.08C19 15.4 18.13 14.78 17.25 14.08C17.5135 13.5739 17.7311 13.0451 17.9 12.5C18.1483 11.6817 18.3355 10.8461 18.46 10C18.617 9.18628 18.6908 8.35867 18.68 7.53C18.6722 6.95172 18.5743 6.37818 18.39 5.83C18.2322 5.33461 18.0418 4.85022 17.82 4.38C17.6636 4.04752 17.4725 3.73244 17.25 3.44C16.8714 2.95134 16.4272 2.51725 15.93 2.15C15.1933 1.62865 14.3978 1.19568 13.56 0.860003C12.9765 0.605536 12.3748 0.394952 11.76 0.230003C11.1073 0.0604415 10.4341 -0.0169755 9.76001 3.27965e-06C8.93059 0.0451275 8.11209 0.210175 7.33001 0.490003C6.56162 0.768913 5.8216 1.12051 5.12001 1.54C4.51891 1.88012 3.95283 2.27872 3.43001 2.73C1.19001 4.7 0.730007 9 0.700007 9.47C0.592915 10.7415 0.77761 12.0207 1.24001 13.21C1.36164 13.5118 1.50191 13.8057 1.66001 14.09C1.89001 14.49 2.15001 14.88 2.42001 15.27C2.92451 16.0437 3.54511 16.7351 4.26001 17.32C4.75897 17.7166 5.32442 18.0213 5.93001 18.22C6.62144 18.4457 7.3306 18.6129 8.05001 18.72C8.54212 18.8024 9.04156 18.8326 9.54001 18.81C10.3155 18.7599 11.0816 18.6121 11.82 18.37C12.5366 18.1189 13.2321 17.8113 13.9 17.45C14.0353 17.6099 14.1622 17.7768 14.28 17.95C14.71 18.61 15.05 19.32 15.45 19.95C15.7313 20.3848 16.0385 20.8022 16.37 21.2C16.6831 21.591 17.0169 21.9648 17.37 22.32C18.3424 23.2232 19.5666 23.8091 20.88 24C21.1423 24.0472 21.4114 24.0414 21.6715 23.9831C21.9316 23.9248 22.1774 23.8151 22.3944 23.6605C22.6115 23.5058 22.7955 23.3093 22.9355 23.0826C23.0756 22.8558 23.1689 22.6033 23.21 22.34C23.2505 22.1653 23.2806 21.9883 23.3 21.81C23.3097 21.6335 23.3097 21.4565 23.3 21.28C23.3036 21.0457 23.2868 20.8115 23.25 20.58ZM22.09 22.05C22.039 22.3035 21.8918 22.5275 21.6792 22.6748C21.4667 22.8221 21.2053 22.8813 20.95 22.84C19.9018 22.709 18.9146 22.2745 18.11 21.59C17.7573 21.2766 17.4234 20.9427 17.11 20.59C16.7783 20.2485 16.4709 19.8843 16.19 19.5C15.75 18.88 15.35 18.19 14.89 17.56C14.7679 17.4001 14.6378 17.2466 14.5 17.1L14.63 17.01C14.8516 16.8512 15.0621 16.6774 15.26 16.49C15.3219 16.4234 15.3562 16.3359 15.3562 16.245C15.3562 16.1541 15.3219 16.0666 15.26 16C15.1963 15.9365 15.11 15.9008 15.02 15.9008C14.93 15.9008 14.8437 15.9365 14.78 16C14.6089 16.1584 14.425 16.3022 14.23 16.43C14.038 16.5659 13.8376 16.6895 13.63 16.8C12.9845 17.1279 12.3161 17.4086 11.63 17.64C10.9354 17.8526 10.216 17.9736 9.49001 18C8.93831 18.0138 8.38713 17.9567 7.85001 17.83C7.29231 17.7235 6.74393 17.5731 6.21001 17.38C5.58163 17.1536 5.00885 16.7956 4.53001 16.33C4.035 15.8462 3.59867 15.3058 3.23001 14.72C3.00001 14.36 2.76001 14 2.55001 13.6C2.41916 13.3534 2.30231 13.0997 2.20001 12.84C1.81593 11.7885 1.67573 10.6636 1.79001 9.55C2.25001 4.25 4.94001 2.99 5.71001 2.55C6.34388 2.16846 7.01377 1.85026 7.71001 1.6C8.38666 1.34459 9.09802 1.19287 9.82001 1.15C10.3822 1.13447 10.944 1.19501 11.49 1.33C12.0552 1.46724 12.6099 1.64435 13.15 1.86C13.791 2.10725 14.4098 2.40832 15 2.76C15.5696 3.08106 16.0775 3.50094 16.5 4C16.6897 4.23537 16.8539 4.49012 16.99 4.76C17.2112 5.18933 17.4016 5.63377 17.56 6.09C17.7234 6.55411 17.821 7.03882 17.85 7.53C17.8742 8.30967 17.824 9.08987 17.7 9.86C17.6145 10.5331 17.4909 11.2008 17.33 11.86C17.1688 12.5208 16.934 13.1615 16.63 13.77C16.4689 14.119 16.2782 14.4536 16.06 14.77C15.8453 15.0738 15.6044 15.3583 15.34 15.62C15.3111 15.6476 15.2879 15.6806 15.2718 15.7171C15.2557 15.7536 15.2469 15.793 15.246 15.8329C15.2441 15.9136 15.2743 15.9917 15.33 16.05C15.3857 16.1084 15.4623 16.1422 15.5429 16.1441C15.6236 16.1459 15.7017 16.1157 15.76 16.06C16.0539 15.7753 16.3248 15.4676 16.57 15.14C16.68 14.99 16.77 14.83 16.87 14.67C17.68 15.35 18.49 15.99 19.26 16.67C19.8041 17.1664 20.3121 17.7011 20.78 18.27C21.0938 18.6452 21.3843 19.0393 21.65 19.45C21.8087 19.7038 21.9363 19.9757 22.03 20.26C22.0806 20.424 22.1206 20.591 22.15 20.76C22.1599 20.9199 22.1599 21.0802 22.15 21.24L22.09 22.05Z" fill="black"/>
</g>
<defs>
<clipPath id="clip0_1030_2555">
<rect width="24" height="24" fill="white"/>
</clipPath>
</defs>
</svg>
