<svg width="25" height="24" viewBox="0 0 25 24" fill="none" xmlns="http://www.w3.org/2000/svg">
<g clip-path="url(#clip0_1032_3519)">
<path d="M23.97 10.13C23.9253 10.1338 23.8818 10.1463 23.842 10.167C23.8021 10.1877 23.7668 10.216 23.738 10.2504C23.7092 10.2848 23.6874 10.3246 23.6741 10.3674C23.6607 10.4102 23.6559 10.4553 23.66 10.5C23.7078 10.9484 23.7311 11.3991 23.73 11.85C23.73 12.31 23.73 12.76 23.68 13.2C23.5905 14.1583 23.3719 15.1002 23.03 16C22.689 16.8945 22.2461 17.7468 21.71 18.54C20.5849 20.1535 18.994 21.385 17.15 22.07C15.3146 22.7801 13.3394 23.054 11.38 22.87C10.2983 22.772 9.23511 22.5264 8.22002 22.14C7.22531 21.7593 6.30479 21.2076 5.50002 20.51C3.44134 18.6608 2.11431 16.1345 1.76002 13.39C1.29474 10.6497 1.91919 7.83614 3.50002 5.54999C4.34316 4.3601 5.40546 3.34192 6.63002 2.54999C7.83693 1.77467 9.20512 1.28554 10.63 1.11999C11.34 1.04999 12.04 0.989987 12.75 0.989987C13.2183 0.985073 13.6862 1.01516 14.15 1.07999C14.1894 1.0859 14.2296 1.08399 14.2683 1.07437C14.3069 1.06475 14.3433 1.04762 14.3753 1.02394C14.4074 1.00026 14.4344 0.970502 14.455 0.936366C14.4755 0.90223 14.4891 0.864383 14.495 0.824987C14.5009 0.78559 14.499 0.745415 14.4894 0.706756C14.4798 0.668097 14.4627 0.631711 14.439 0.599674C14.4153 0.567638 14.3855 0.54058 14.3514 0.520043C14.3173 0.499507 14.2794 0.485896 14.24 0.479987C13.7463 0.411993 13.2484 0.378578 12.75 0.379987C12.02 0.379987 11.29 0.379987 10.56 0.469987C9.00232 0.599067 7.49598 1.08863 6.16002 1.89999C4.83029 2.71005 3.66361 3.76142 2.72002 4.99999C0.915724 7.45594 0.157114 10.5263 0.610023 13.54C0.972926 16.5671 2.42706 19.358 4.70002 21.39C5.62692 22.1623 6.67864 22.771 7.81002 23.19C8.93056 23.5969 10.1013 23.8493 11.29 23.94C13.4049 24.1133 15.5311 23.7914 17.5 23C19.5051 22.1965 21.2178 20.8012 22.41 19C22.9595 18.1406 23.4091 17.2213 23.75 16.26C24.101 15.2944 24.3164 14.2848 24.39 13.26V11.85C24.3816 11.3786 24.3482 10.9079 24.29 10.44C24.2829 10.3585 24.2467 10.2822 24.1879 10.2253C24.1291 10.1683 24.0517 10.1345 23.97 10.13Z" fill="black"/>
<path d="M15.09 1.3L17.61 2C17.6446 2.01876 17.6827 2.03029 17.7218 2.03388C17.761 2.03747 17.8005 2.03305 17.8379 2.02089C17.8754 2.00873 17.9099 1.98908 17.9395 1.96314C17.9691 1.9372 17.9931 1.90551 18.01 1.87C18.0449 1.79691 18.0497 1.7131 18.0235 1.63649C17.9974 1.55987 17.9423 1.49653 17.87 1.46C17.4583 1.22417 17.0225 1.03308 16.57 0.890003C16.1165 0.757296 15.6509 0.670198 15.18 0.630003C15.0901 0.618427 14.9992 0.642185 14.9265 0.696276C14.8537 0.750366 14.8048 0.83057 14.79 0.920003C14.7845 0.964702 14.7878 1.01006 14.7999 1.05345C14.812 1.09684 14.8326 1.13739 14.8606 1.17274C14.8885 1.2081 14.9231 1.23756 14.9625 1.2594C15.0019 1.28125 15.0453 1.29505 15.09 1.3Z" fill="black"/>
<path d="M9.55003 10.16C9.73624 9.75348 9.76356 9.29198 9.62661 8.86632C9.48966 8.44067 9.19836 8.08168 8.81003 7.86001C8.5437 7.74265 8.25219 7.69398 7.96219 7.71844C7.67218 7.74289 7.39294 7.83971 7.15003 8.00001C6.15003 8.60001 5.54003 10.18 6.69003 11C6.93176 11.1378 7.19879 11.2255 7.47516 11.2577C7.75153 11.29 8.03157 11.2662 8.29854 11.1878C8.56552 11.1094 8.81394 10.978 9.02897 10.8014C9.244 10.6248 9.42121 10.4066 9.55003 10.16Z" fill="black"/>
<path d="M16.27 11C16.4867 11.125 16.7279 11.2015 16.977 11.2242C17.2261 11.247 17.4772 11.2155 17.7129 11.1318C17.9487 11.0482 18.1635 10.9144 18.3425 10.7397C18.5216 10.565 18.6606 10.3536 18.75 10.12C18.81 9.78001 18.03 9.71001 17.36 9.21001C16.69 8.71001 16.7 7.91001 16.07 8.21001C15.7095 8.46413 15.4633 8.84988 15.3847 9.28396C15.3061 9.71803 15.4014 10.1656 15.65 10.53C15.8202 10.7298 16.0318 10.8901 16.27 11Z" fill="black"/>
<path d="M5.81003 19C5.84948 19.0056 5.88965 19.0033 5.9282 18.9932C5.96675 18.9831 6.00291 18.9655 6.03456 18.9413C6.06621 18.9171 6.09272 18.8868 6.11255 18.8523C6.13238 18.8177 6.14512 18.7795 6.15003 18.74C6.49565 17.342 7.29372 16.0974 8.42003 15.2C9.45716 14.254 10.7971 13.7081 12.2 13.66C13.7603 13.5963 15.3077 13.9667 16.67 14.73C17.3335 15.1264 17.9085 15.6549 18.3592 16.2828C18.8099 16.9107 19.1267 17.6245 19.29 18.38C19.3073 18.4688 19.3591 18.5472 19.4341 18.5978C19.5091 18.6485 19.6012 18.6672 19.69 18.65C19.7789 18.6327 19.8572 18.5809 19.9079 18.5059C19.9585 18.4309 19.9773 18.3388 19.96 18.25C19.8283 17.3727 19.5147 16.5326 19.0394 15.7835C18.5641 15.0344 17.9376 14.3929 17.2 13.9C15.6999 12.9695 13.9651 12.4873 12.2 12.51C11.3533 12.5164 10.5191 12.7147 9.76003 13.09C9.02104 13.4479 8.34548 13.9242 7.76003 14.5C6.5641 15.5973 5.77463 17.067 5.52003 18.67C5.51732 18.7107 5.52268 18.7516 5.5358 18.7902C5.54892 18.8289 5.56954 18.8646 5.59649 18.8952C5.62343 18.9259 5.65617 18.9509 5.69281 18.9689C5.72946 18.9869 5.76929 18.9974 5.81003 19Z" fill="black"/>
<path d="M18.02 7.91999C18.46 8.71999 19.39 9.29999 21.08 9.31999C22.77 9.33999 23.71 8.76999 24.16 7.99999C24.3922 7.48259 24.5072 6.92029 24.4969 6.35328C24.4865 5.78626 24.351 5.22855 24.1 4.71999C23.8491 4.09489 23.5447 3.49265 23.19 2.91999C21.04 -0.700012 20.82 0.0599874 20.77 0.129987C20.44 0.589987 19.71 1.57999 19.03 2.72999C18.671 3.33966 18.3568 3.97467 18.09 4.62999C17.8457 5.14205 17.7131 5.70022 17.701 6.26746C17.689 6.83469 17.7977 7.398 18.02 7.91999ZM19.02 4.91999C19.2225 4.29008 19.4767 3.67799 19.78 3.08999C20.21 2.21999 20.69 1.43999 21.02 0.909987C21.479 1.55131 21.8997 2.21913 22.28 2.90999C22.6798 3.58685 23.0146 4.30003 23.28 5.03999C23.4511 5.41514 23.5397 5.82266 23.5397 6.23499C23.5397 6.64731 23.4511 7.05483 23.28 7.42999C22.96 7.92999 22.28 8.17999 21.14 8.15999C20 8.13999 19.35 7.86999 19.04 7.34999C18.8639 6.97427 18.7676 6.5661 18.7573 6.15128C18.747 5.73646 18.8228 5.324 18.98 4.93999L19.02 4.91999Z" fill="black"/>
</g>
<defs>
<clipPath id="clip0_1032_3519">
<rect width="24" height="24" fill="white" transform="translate(0.5)"/>
</clipPath>
</defs>
</svg>
